<?xml version="1.0" encoding="UTF-8" standalone="no"?>
<svg
   xmlns:dc="http://purl.org/dc/elements/1.1/"
   xmlns:cc="http://creativecommons.org/ns#"
   xmlns:rdf="http://www.w3.org/1999/02/22-rdf-syntax-ns#"
   xmlns:svg="http://www.w3.org/2000/svg"
   xmlns="http://www.w3.org/2000/svg"
   xmlns:sodipodi="http://sodipodi.sourceforge.net/DTD/sodipodi-0.dtd"
   xmlns:inkscape="http://www.inkscape.org/namespaces/inkscape"
   width="100mm"
   height="100mm"
   viewBox="0 0 100 100"
   version="1.1"
   id="svg8"
   sodipodi:docname="zensur_bottom.svg"
   inkscape:version="0.92.2 2405546, 2018-03-11">
  <sodipodi:namedview
     pagecolor="#ffffff"
     bordercolor="#666666"
     borderopacity="1"
     objecttolerance="10"
     gridtolerance="10"
     guidetolerance="10"
     inkscape:pageopacity="0"
     inkscape:pageshadow="2"
     inkscape:window-width="1920"
     inkscape:window-height="1080"
     id="namedview954"
     showgrid="false"
     inkscape:zoom="10.24"
     inkscape:cx="83.295505"
     inkscape:cy="221.77627"
     inkscape:window-x="0"
     inkscape:window-y="0"
     inkscape:window-maximized="1"
     inkscape:current-layer="svg8" />
  <defs
     id="defs2" />
  <metadata
     id="metadata5">
    <rdf:RDF>
      <cc:Work
         rdf:about="">
        <dc:format>image/svg+xml</dc:format>
        <dc:type
           rdf:resource="http://purl.org/dc/dcmitype/StillImage" />
        <dc:title></dc:title>
      </cc:Work>
    </rdf:RDF>
  </metadata>
  <g
     id="layer2">
    <path
       id="path4797-3"
       d="M 72.463507,3.4727558 2.4364925,73.446226"
       style="fill:none;fill-rule:evenodd;stroke:#ff0dbf;stroke-width:5.07749128;stroke-linecap:butt;stroke-linejoin:miter;stroke-miterlimit:4;stroke-dasharray:none;stroke-opacity:1" />
    <path
       d="m 8.0943822,51.652501 -0.2574947,-0.2575 -0.148554,0.14856 -0.04457,-0.0446 c -0.170837,-0.17084 -0.188169,-0.25254 -0.07675,-0.37386 l -0.09408,-0.0941 c -0.1683617,0.15846 -0.1460787,0.37387 0.06437,0.58432 l 0.297109,0.29711 z"
       style="font-style:normal;font-variant:normal;font-weight:normal;font-stretch:normal;font-size:medium;line-height:100%;font-family:'Nimbus Sans';-inkscape-font-specification:'Nimbus Sans';font-variant-ligatures:normal;font-variant-caps:normal;font-variant-numeric:normal;text-align:center;letter-spacing:0px;word-spacing:0px;writing-mode:lr-tb;text-anchor:middle;fill:#000000;fill-opacity:1;stroke:none;stroke-width:0.14589423px;stroke-linecap:butt;stroke-linejoin:miter;stroke-opacity:1"
       id="path5675"
       inkscape:connector-curvature="0" />
  </g>
  <g
     id="layer3">
    <g
       id="flowRoot819"
       style="font-style:normal;font-variant:normal;font-weight:normal;font-stretch:normal;font-size:24px;line-height:0px;font-family:Montserrat;-inkscape-font-specification:'Montserrat, Normal';font-variant-ligatures:normal;font-variant-caps:normal;font-variant-numeric:normal;text-align:start;letter-spacing:0px;word-spacing:0px;writing-mode:lr-tb;text-anchor:start;fill:#000000;fill-opacity:1;stroke:none;stroke-width:1px;stroke-linecap:butt;stroke-linejoin:miter;stroke-opacity:1"
       transform="matrix(-0.23310363,0.23310363,-0.23310363,-0.23310363,52.01908,19.299836)"
       aria-label="ZENSUR?">
      <path
         id="path1517"
         style="font-style:normal;font-variant:normal;font-weight:bold;font-stretch:normal;line-height:100%;font-family:'nimbus sans';-inkscape-font-specification:'nimbus sans Bold'"
         d="M 28.989187,75.589844 H 15.837188 v 3 h 8.951999 l -8.951999,11.496 v 3 h 13.151999 v -3 h -8.927999 l 8.927999,-11.496 z" />
      <path
         id="path1519"
         style="font-style:normal;font-variant:normal;font-weight:bold;font-stretch:normal;line-height:100%;font-family:'nimbus sans';-inkscape-font-specification:'nimbus sans Bold'"
         d="m 35.097563,85.549844 h 8.375999 v -3 h -8.375999 v -3.96 h 9.047999 v -3 h -12.648 v 17.496 h 13.08 v -3 h -9.479999 z" />
      <path
         id="path1521"
         style="font-style:normal;font-variant:normal;font-weight:bold;font-stretch:normal;line-height:100%;font-family:'nimbus sans';-inkscape-font-specification:'nimbus sans Bold'"
         d="m 57.896812,93.085844 h 3.600001 v -17.496 h -3.600001 v 11.904 l -6.935999,-11.904 h -3.696001 v 17.496 h 3.6 v -12.096 z" />
      <path
         id="path1523"
         style="font-style:normal;font-variant:normal;font-weight:bold;font-stretch:normal;line-height:100%;font-family:'nimbus sans';-inkscape-font-specification:'nimbus sans Bold'"
         d="m 77.544562,80.917844 c -0.024,-3.624 -2.447999,-5.616 -6.863999,-5.616 -4.2,0 -6.624001,1.968 -6.624001,5.376 0,2.712 1.368001,4.032 4.92,4.704 l 2.448001,0.48 c 2.399999,0.456 3.288,1.128 3.288,2.544 0,1.464 -1.344001,2.352 -3.528001,2.352 -2.447999,0 -3.816,-1.032 -3.935999,-2.904 h -3.504001 c 0.216001,3.744 2.784,5.784 7.248001,5.784 4.512,0 7.176,-2.088 7.176,-5.664 0,-2.76 -1.392001,-4.2 -4.632,-4.824 l -2.736001,-0.528 c -2.568,-0.504 -3.312,-1.008 -3.312,-2.28 0,-1.32 1.152001,-2.16 3.024001,-2.16 2.28,0 3.551999,0.96 3.671999,2.736 z" />
      <path
         id="path1525"
         style="font-style:normal;font-variant:normal;font-weight:bold;font-stretch:normal;line-height:100%;font-family:'nimbus sans';-inkscape-font-specification:'nimbus sans Bold'"
         d="m 91.103813,75.589844 v 11.856 c 0,2.112 -1.08,3.12 -3.336,3.12 -2.256,0 -3.336,-1.008 -3.336,-3.12 v -11.856 h -3.600001 v 11.856 c 0,1.968 0.528001,3.36 1.704001,4.416 1.271999,1.152 3.119999,1.776 5.232,1.776 2.111999,0 3.959999,-0.624 5.232,-1.776 1.176,-1.056 1.703999,-2.448 1.703999,-4.416 v -11.856 z" />
      <path
         id="path1527"
         style="font-style:normal;font-variant:normal;font-weight:bold;font-stretch:normal;line-height:100%;font-family:'nimbus sans';-inkscape-font-specification:'nimbus sans Bold'"
         d="m 101.87156,86.149844 h 4.128 c 1.56,0 2.232,0.624 2.232,2.064 v 0.72 c -0.024,0.456 -0.024,0.888 -0.024,1.152 0,1.656 0.096,2.16 0.528,3 h 3.864 v -0.648 c -0.552,-0.312 -0.768,-0.672 -0.768,-1.44 -0.096,-5.16 -0.192,-5.4 -2.424,-6.36 1.968,-0.768 2.952,-2.184 2.952,-4.32 0,-1.392 -0.48,-2.664 -1.32,-3.528 -0.792,-0.816 -1.896,-1.2 -3.384,-1.2 h -9.383997 v 17.496 h 3.599997 z m 0,-3 v -4.56 h 4.344 c 1.032,0 1.44,0.096 1.896,0.456 0.432,0.36 0.648,0.96 0.648,1.776 0,0.84 -0.216,1.512 -0.648,1.872 -0.408,0.336 -0.864,0.456 -1.896,0.456 z" />
      <path
         id="path1529"
         style="font-style:normal;font-variant:normal;font-weight:bold;font-stretch:normal;line-height:100%;font-family:'nimbus sans';-inkscape-font-specification:'nimbus sans Bold'"
         d="m 122.55131,88.261844 c 0,-1.584 0.168,-1.848 1.608,-2.856 2.232,-1.584 2.88,-2.64 2.88,-4.656 0,-3.264 -2.448,-5.52 -5.976,-5.52 -2.064,0 -3.672,0.72 -4.704,2.136 -0.792,1.056 -1.104,2.208 -1.128,4.176 h 3.264 c 0,-2.16 1.008,-3.48 2.664,-3.48 1.416,0 2.496,1.176 2.496,2.76 0,1.08 -0.288,1.536 -1.68,2.688 -1.92,1.632 -2.472,2.712 -2.4,4.752 z m 0.384,1.32 h -3.6 v 3.504 h 3.6 z" />
    </g>
    <g
       id="flowRoot827"
       style="font-style:normal;font-variant:normal;font-weight:normal;font-stretch:normal;font-size:24px;line-height:0px;font-family:Montserrat;-inkscape-font-specification:'Montserrat, Normal';font-variant-ligatures:normal;font-variant-caps:normal;font-variant-numeric:normal;text-align:center;letter-spacing:0px;word-spacing:0px;writing-mode:lr-tb;text-anchor:middle;fill:#000000;fill-opacity:1;stroke:none;stroke-width:1px;stroke-linecap:butt;stroke-linejoin:miter;stroke-opacity:1"
       transform="matrix(-0.12022463,0.12022538,-0.12022463,-0.12022538,83.492644,22.191584)"
       aria-label="Die EU-Urheberrechtsreform würde alle Internetplattformen dazu zwingen Zensurfilter zu installieren.">
      <path
         id="path1532"
         style="font-style:normal;font-variant:normal;font-weight:normal;font-stretch:normal;line-height:100%;font-family:'Nimbus Sans';-inkscape-font-specification:'Nimbus Sans';text-align:center;text-anchor:middle"
         d="m 49.631117,168.67764 h 6.744 c 4.416,0 7.128,-3.312 7.128,-8.76 0,-5.424 -2.688,-8.736 -7.128,-8.736 h -6.744 z m 2.232,-1.968 v -13.56 h 4.128 c 3.456,0 5.28,2.328 5.28,6.792 0,4.44 -1.824,6.768 -5.28,6.768 z" />
      <path
         id="path1534"
         style="font-style:normal;font-variant:normal;font-weight:normal;font-stretch:normal;line-height:100%;font-family:'Nimbus Sans';-inkscape-font-specification:'Nimbus Sans';text-align:center;text-anchor:middle"
         d="m 68.438867,156.10164 h -1.992 v 12.576 h 1.992 z m 0,-4.92 h -2.016 v 2.52 h 2.016 z" />
      <path
         id="path1536"
         style="font-style:normal;font-variant:normal;font-weight:normal;font-stretch:normal;line-height:100%;font-family:'Nimbus Sans';-inkscape-font-specification:'Nimbus Sans';text-align:center;text-anchor:middle"
         d="m 82.494617,163.06164 c 0,-1.92 -0.144,-3.072 -0.504,-4.008 -0.816,-2.064 -2.736,-3.312 -5.088,-3.312 -3.504,0 -5.76,2.664 -5.76,6.816 0,4.152 2.16,6.672 5.712,6.672 2.88,0 4.872,-1.632 5.376,-4.368 h -2.016 c -0.552,1.656 -1.68,2.52 -3.288,2.52 -1.272,0 -2.352,-0.576 -3.024,-1.632 -0.48,-0.72 -0.648,-1.44 -0.672,-2.688 z m -9.216,-1.632 c 0.168,-2.328 1.584,-3.84 3.6,-3.84 2.04,0 3.456,1.584 3.456,3.84 z" />
      <path
         id="path1538"
         style="font-style:normal;font-variant:normal;font-weight:normal;font-stretch:normal;line-height:100%;font-family:'Nimbus Sans';-inkscape-font-specification:'Nimbus Sans';text-align:center;text-anchor:middle"
         d="m 94.590242,160.70964 h 9.527998 v -1.968 h -9.527998 v -5.592 h 9.887998 v -1.968 H 92.358242 v 17.496 h 12.551998 v -1.968 H 94.590242 Z" />
      <path
         id="path1540"
         style="font-style:normal;font-variant:normal;font-weight:normal;font-stretch:normal;line-height:100%;font-family:'Nimbus Sans';-inkscape-font-specification:'Nimbus Sans';text-align:center;text-anchor:middle"
         d="m 119.47749,151.18164 v 12.288 c 0,2.352 -1.704,3.792 -4.512,3.792 -1.296,0 -2.352,-0.312 -3.192,-0.912 -0.864,-0.672 -1.272,-1.56 -1.272,-2.88 v -12.288 h -2.232 v 12.288 c 0,3.552 2.544,5.76 6.696,5.76 4.104,0 6.744,-2.256 6.744,-5.76 v -12.288 z" />
      <path
         id="path1542"
         style="font-style:normal;font-variant:normal;font-weight:normal;font-stretch:normal;line-height:100%;font-family:'Nimbus Sans';-inkscape-font-specification:'Nimbus Sans';text-align:center;text-anchor:middle"
         d="m 130.38924,161.18964 h -5.712 v 1.728 h 5.712 z" />
      <path
         id="path1544"
         style="font-style:normal;font-variant:normal;font-weight:normal;font-stretch:normal;line-height:100%;font-family:'Nimbus Sans';-inkscape-font-specification:'Nimbus Sans';text-align:center;text-anchor:middle"
         d="m 144.83687,151.18164 v 12.288 c 0,2.352 -1.704,3.792 -4.512,3.792 -1.296,0 -2.352,-0.312 -3.192,-0.912 -0.864,-0.672 -1.272,-1.56 -1.272,-2.88 v -12.288 h -2.232 v 12.288 c 0,3.552 2.544,5.76 6.696,5.76 4.104,0 6.744,-2.256 6.744,-5.76 v -12.288 z" />
      <path
         id="path1546"
         style="font-style:normal;font-variant:normal;font-weight:normal;font-stretch:normal;line-height:100%;font-family:'Nimbus Sans';-inkscape-font-specification:'Nimbus Sans';text-align:center;text-anchor:middle"
         d="m 150.44799,156.10164 v 12.576 h 2.016 v -6.528 c 0.024,-3.024 1.272,-4.368 4.032,-4.296 v -2.04 c -0.336,-0.048 -0.528,-0.072 -0.768,-0.072 -1.296,0 -2.28,0.768 -3.432,2.64 v -2.28 z" />
      <path
         id="path1548"
         style="font-style:normal;font-variant:normal;font-weight:normal;font-stretch:normal;line-height:100%;font-family:'Nimbus Sans';-inkscape-font-specification:'Nimbus Sans';text-align:center;text-anchor:middle"
         d="m 158.48762,151.18164 v 17.496 h 1.992 v -6.936 c 0,-2.568 1.344,-4.248 3.408,-4.248 0.672,0 1.296,0.192 1.776,0.552 0.576,0.432 0.816,1.032 0.816,1.92 v 8.712 h 1.992 v -9.504 c 0,-2.112 -1.512,-3.432 -3.96,-3.432 -1.776,0 -2.856,0.552 -4.032,2.088 v -6.648 z" />
      <path
         id="path1550"
         style="font-style:normal;font-variant:normal;font-weight:normal;font-stretch:normal;line-height:100%;font-family:'Nimbus Sans';-inkscape-font-specification:'Nimbus Sans';text-align:center;text-anchor:middle"
         d="m 182.47899,163.06164 c 0,-1.92 -0.144,-3.072 -0.504,-4.008 -0.816,-2.064 -2.736,-3.312 -5.088,-3.312 -3.504,0 -5.76,2.664 -5.76,6.816 0,4.152 2.16,6.672 5.712,6.672 2.88,0 4.872,-1.632 5.376,-4.368 h -2.016 c -0.552,1.656 -1.68,2.52 -3.288,2.52 -1.272,0 -2.352,-0.576 -3.024,-1.632 -0.48,-0.72 -0.648,-1.44 -0.672,-2.688 z m -9.216,-1.632 c 0.168,-2.328 1.584,-3.84 3.6,-3.84 2.04,0 3.456,1.584 3.456,3.84 z" />
      <path
         id="path1552"
         style="font-style:normal;font-variant:normal;font-weight:normal;font-stretch:normal;line-height:100%;font-family:'Nimbus Sans';-inkscape-font-specification:'Nimbus Sans';text-align:center;text-anchor:middle"
         d="m 184.86924,151.18164 v 17.496 h 1.8 v -1.608 c 0.96,1.464 2.232,2.16 3.984,2.16 3.312,0 5.472,-2.712 5.472,-6.888 0,-4.08 -2.04,-6.6 -5.376,-6.6 -1.728,0 -2.952,0.648 -3.888,2.064 v -6.624 z m 5.496,6.432 c 2.232,0 3.672,1.944 3.672,4.944 0,2.856 -1.488,4.8 -3.672,4.8 -2.136,0 -3.504,-1.92 -3.504,-4.872 0,-2.952 1.368,-4.872 3.504,-4.872 z" />
      <path
         id="path1554"
         style="font-style:normal;font-variant:normal;font-weight:normal;font-stretch:normal;line-height:100%;font-family:'Nimbus Sans';-inkscape-font-specification:'Nimbus Sans';text-align:center;text-anchor:middle"
         d="m 209.24462,163.06164 c 0,-1.92 -0.144,-3.072 -0.504,-4.008 -0.816,-2.064 -2.736,-3.312 -5.088,-3.312 -3.504,0 -5.76,2.664 -5.76,6.816 0,4.152 2.16,6.672 5.712,6.672 2.88,0 4.872,-1.632 5.376,-4.368 h -2.016 c -0.552,1.656 -1.68,2.52 -3.288,2.52 -1.272,0 -2.352,-0.576 -3.024,-1.632 -0.48,-0.72 -0.648,-1.44 -0.672,-2.688 z m -9.216,-1.632 c 0.168,-2.328 1.584,-3.84 3.6,-3.84 2.04,0 3.456,1.584 3.456,3.84 z" />
      <path
         id="path1556"
         style="font-style:normal;font-variant:normal;font-weight:normal;font-stretch:normal;line-height:100%;font-family:'Nimbus Sans';-inkscape-font-specification:'Nimbus Sans';text-align:center;text-anchor:middle"
         d="m 211.94799,156.10164 v 12.576 h 2.016 v -6.528 c 0.024,-3.024 1.272,-4.368 4.032,-4.296 v -2.04 c -0.336,-0.048 -0.528,-0.072 -0.768,-0.072 -1.296,0 -2.28,0.768 -3.432,2.64 v -2.28 z" />
      <path
         id="path1558"
         style="font-style:normal;font-variant:normal;font-weight:normal;font-stretch:normal;line-height:100%;font-family:'Nimbus Sans';-inkscape-font-specification:'Nimbus Sans';text-align:center;text-anchor:middle"
         d="m 219.96362,156.10164 v 12.576 h 2.016 v -6.528 c 0.024,-3.024 1.272,-4.368 4.032,-4.296 v -2.04 c -0.336,-0.048 -0.528,-0.072 -0.768,-0.072 -1.296,0 -2.28,0.768 -3.432,2.64 v -2.28 z" />
      <path
         id="path1560"
         style="font-style:normal;font-variant:normal;font-weight:normal;font-stretch:normal;line-height:100%;font-family:'Nimbus Sans';-inkscape-font-specification:'Nimbus Sans';text-align:center;text-anchor:middle"
         d="m 238.40087,163.06164 c 0,-1.92 -0.144,-3.072 -0.504,-4.008 -0.816,-2.064 -2.736,-3.312 -5.088,-3.312 -3.504,0 -5.76,2.664 -5.76,6.816 0,4.152 2.16,6.672 5.712,6.672 2.88,0 4.872,-1.632 5.376,-4.368 h -2.016 c -0.552,1.656 -1.68,2.52 -3.288,2.52 -1.272,0 -2.352,-0.576 -3.024,-1.632 -0.48,-0.72 -0.648,-1.44 -0.672,-2.688 z m -9.216,-1.632 c 0.168,-2.328 1.584,-3.84 3.6,-3.84 2.04,0 3.456,1.584 3.456,3.84 z" />
      <path
         id="path1562"
         style="font-style:normal;font-variant:normal;font-weight:normal;font-stretch:normal;line-height:100%;font-family:'Nimbus Sans';-inkscape-font-specification:'Nimbus Sans';text-align:center;text-anchor:middle"
         d="m 250.75224,160.32564 c -0.096,-1.224 -0.36,-2.016 -0.84,-2.712 -0.864,-1.176 -2.376,-1.872 -4.128,-1.872 -3.408,0 -5.592,2.688 -5.592,6.864 0,4.056 2.16,6.624 5.568,6.624 3,0 4.896,-1.8 5.136,-4.872 h -2.016 c -0.336,2.016 -1.368,3.024 -3.072,3.024 -2.208,0 -3.528,-1.8 -3.528,-4.776 0,-3.144 1.296,-5.016 3.48,-5.016 1.68,0 2.736,0.984 2.976,2.736 z" />
      <path
         id="path1564"
         style="font-style:normal;font-variant:normal;font-weight:normal;font-stretch:normal;line-height:100%;font-family:'Nimbus Sans';-inkscape-font-specification:'Nimbus Sans';text-align:center;text-anchor:middle"
         d="m 253.12824,151.18164 v 17.496 h 1.992 v -6.936 c 0,-2.568 1.344,-4.248 3.408,-4.248 0.672,0 1.296,0.192 1.776,0.552 0.576,0.432 0.816,1.032 0.816,1.92 v 8.712 h 1.992 v -9.504 c 0,-2.112 -1.512,-3.432 -3.96,-3.432 -1.776,0 -2.856,0.552 -4.032,2.088 v -6.648 z" />
      <path
         id="path1566"
         style="font-style:normal;font-variant:normal;font-weight:normal;font-stretch:normal;line-height:100%;font-family:'Nimbus Sans';-inkscape-font-specification:'Nimbus Sans';text-align:center;text-anchor:middle"
         d="m 270.90362,156.10164 h -2.064 v -3.456 h -1.992 v 3.456 h -1.704 v 1.632 h 1.704 v 9.504 c 0,1.296 0.864,1.992 2.424,1.992 0.528,0 0.96,-0.048 1.632,-0.168 v -1.68 c -0.288,0.072 -0.552,0.096 -0.96,0.096 -0.864,0 -1.104,-0.24 -1.104,-1.128 v -8.616 h 2.064 z" />
      <path
         id="path1568"
         style="font-style:normal;font-variant:normal;font-weight:normal;font-stretch:normal;line-height:100%;font-family:'Nimbus Sans';-inkscape-font-specification:'Nimbus Sans';text-align:center;text-anchor:middle"
         d="m 281.97587,159.60564 c -0.024,-2.472 -1.656,-3.864 -4.56,-3.864 -2.928,0 -4.824,1.512 -4.824,3.84 0,1.968 1.008,2.904 3.984,3.624 l 1.872,0.456 c 1.392,0.336 1.944,0.84 1.944,1.728 0,1.2 -1.176,1.992 -2.928,1.992 -1.08,0 -1.992,-0.312 -2.496,-0.84 -0.312,-0.36 -0.456,-0.72 -0.576,-1.608 h -2.112 c 0.096,2.904 1.728,4.296 5.016,4.296 3.168,0 5.184,-1.56 5.184,-3.984 0,-1.872 -1.056,-2.904 -3.552,-3.504 l -1.92,-0.456 c -1.632,-0.384 -2.328,-0.912 -2.328,-1.8 0,-1.176 1.032,-1.896 2.664,-1.896 1.608,0 2.472,0.696 2.52,2.016 z" />
      <path
         id="path1570"
         style="font-style:normal;font-variant:normal;font-weight:normal;font-stretch:normal;line-height:100%;font-family:'Nimbus Sans';-inkscape-font-specification:'Nimbus Sans';text-align:center;text-anchor:middle"
         d="m 285.11987,156.10164 v 12.576 h 2.016 v -6.528 c 0.024,-3.024 1.272,-4.368 4.032,-4.296 v -2.04 c -0.336,-0.048 -0.528,-0.072 -0.768,-0.072 -1.296,0 -2.28,0.768 -3.432,2.64 v -2.28 z" />
      <path
         id="path1572"
         style="font-style:normal;font-variant:normal;font-weight:normal;font-stretch:normal;line-height:100%;font-family:'Nimbus Sans';-inkscape-font-specification:'Nimbus Sans';text-align:center;text-anchor:middle"
         d="m 303.55712,163.06164 c 0,-1.92 -0.144,-3.072 -0.504,-4.008 -0.816,-2.064 -2.736,-3.312 -5.088,-3.312 -3.504,0 -5.76,2.664 -5.76,6.816 0,4.152 2.16,6.672 5.712,6.672 2.88,0 4.872,-1.632 5.376,-4.368 h -2.016 c -0.552,1.656 -1.68,2.52 -3.288,2.52 -1.272,0 -2.352,-0.576 -3.024,-1.632 -0.48,-0.72 -0.648,-1.44 -0.672,-2.688 z m -9.216,-1.632 c 0.168,-2.328 1.584,-3.84 3.6,-3.84 2.04,0 3.456,1.584 3.456,3.84 z" />
      <path
         id="path1574"
         style="font-style:normal;font-variant:normal;font-weight:normal;font-stretch:normal;line-height:100%;font-family:'Nimbus Sans';-inkscape-font-specification:'Nimbus Sans';text-align:center;text-anchor:middle"
         d="m 310.56212,156.10164 h -2.088 v -1.968 c 0,-0.84 0.456,-1.272 1.392,-1.272 0.168,0 0.24,0 0.696,0.024 v -1.656 c -0.456,-0.096 -0.72,-0.12 -1.128,-0.12 -1.848,0 -2.952,1.056 -2.952,2.856 v 2.136 h -1.68 v 1.632 h 1.68 v 10.944 h 1.992 v -10.944 h 2.088 z" />
      <path
         id="path1576"
         style="font-style:normal;font-variant:normal;font-weight:normal;font-stretch:normal;line-height:100%;font-family:'Nimbus Sans';-inkscape-font-specification:'Nimbus Sans';text-align:center;text-anchor:middle"
         d="m 317.31999,155.74164 c -3.552,0 -5.664,2.52 -5.664,6.744 0,4.248 2.112,6.744 5.688,6.744 3.552,0 5.688,-2.52 5.688,-6.648 0,-4.368 -2.064,-6.84 -5.712,-6.84 z m 0.024,1.848 c 2.256,0 3.6,1.848 3.6,4.968 0,2.976 -1.392,4.824 -3.6,4.824 -2.232,0 -3.6,-1.848 -3.6,-4.896 0,-3.048 1.368,-4.896 3.6,-4.896 z" />
      <path
         id="path1578"
         style="font-style:normal;font-variant:normal;font-weight:normal;font-stretch:normal;line-height:100%;font-family:'Nimbus Sans';-inkscape-font-specification:'Nimbus Sans';text-align:center;text-anchor:middle"
         d="m 325.80737,156.10164 v 12.576 h 2.016 v -6.528 c 0.024,-3.024 1.272,-4.368 4.032,-4.296 v -2.04 c -0.336,-0.048 -0.528,-0.072 -0.768,-0.072 -1.296,0 -2.28,0.768 -3.432,2.64 v -2.28 z" />
      <path
         id="path1580"
         style="font-style:normal;font-variant:normal;font-weight:normal;font-stretch:normal;line-height:100%;font-family:'Nimbus Sans';-inkscape-font-specification:'Nimbus Sans';text-align:center;text-anchor:middle"
         d="m 333.84699,156.10164 v 12.576 h 2.016 v -7.896 c 0,-1.824 1.32,-3.288 2.952,-3.288 1.488,0 2.328,0.912 2.328,2.52 v 8.664 h 2.016 v -7.896 c 0,-1.824 1.32,-3.288 2.952,-3.288 1.464,0 2.328,0.936 2.328,2.52 v 8.664 h 2.016 v -9.432 c 0,-2.256 -1.296,-3.504 -3.648,-3.504 -1.68,0 -2.688,0.504 -3.864,1.92 -0.744,-1.344 -1.752,-1.92 -3.384,-1.92 -1.68,0 -2.808,0.624 -3.864,2.136 v -1.776 z" />
      <path
         id="path1582"
         style="font-style:normal;font-variant:normal;font-weight:normal;font-stretch:normal;line-height:100%;font-family:'Nimbus Sans';-inkscape-font-specification:'Nimbus Sans';text-align:center;text-anchor:middle"
         d="m 372.13487,168.67764 3.696,-12.576 h -2.256 l -2.496,9.792 -2.472,-9.792 h -2.448 l -2.4,9.792 -2.568,-9.792 h -2.208 l 3.648,12.576 h 2.256 l 2.424,-9.864 2.544,9.864 z" />
      <path
         id="path1584"
         style="font-style:normal;font-variant:normal;font-weight:normal;font-stretch:normal;line-height:100%;font-family:'Nimbus Sans';-inkscape-font-specification:'Nimbus Sans';text-align:center;text-anchor:middle"
         d="m 387.79749,168.67764 v -12.576 h -1.992 v 7.128 c 0,2.568 -1.344,4.248 -3.432,4.248 -1.584,0 -2.592,-0.96 -2.592,-2.472 v -8.904 h -1.992 v 9.696 c 0,2.088 1.56,3.432 4.008,3.432 1.848,0 3.024,-0.648 4.2,-2.304 v 1.752 z m -5.688,-17.16 h -2.496 v 2.472 h 2.496 z m 3.888,0 h -2.496 v 2.472 h 2.496 z" />
      <path
         id="path1586"
         style="font-style:normal;font-variant:normal;font-weight:normal;font-stretch:normal;line-height:100%;font-family:'Nimbus Sans';-inkscape-font-specification:'Nimbus Sans';text-align:center;text-anchor:middle"
         d="m 391.24487,156.10164 v 12.576 h 2.016 v -6.528 c 0.024,-3.024 1.272,-4.368 4.032,-4.296 v -2.04 c -0.336,-0.048 -0.528,-0.072 -0.768,-0.072 -1.296,0 -2.28,0.768 -3.432,2.64 v -2.28 z" />
      <path
         id="path1588"
         style="font-style:normal;font-variant:normal;font-weight:normal;font-stretch:normal;line-height:100%;font-family:'Nimbus Sans';-inkscape-font-specification:'Nimbus Sans';text-align:center;text-anchor:middle"
         d="m 409.43762,151.18164 h -1.992 v 6.504 c -0.84,-1.272 -2.184,-1.944 -3.864,-1.944 -3.264,0 -5.4,2.616 -5.4,6.624 0,4.248 2.064,6.864 5.472,6.864 1.728,0 2.928,-0.648 4.008,-2.208 v 1.656 h 1.776 z m -5.52,6.432 c 2.16,0 3.528,1.896 3.528,4.92 0,2.904 -1.392,4.824 -3.504,4.824 -2.208,0 -3.672,-1.944 -3.672,-4.872 0,-2.928 1.464,-4.872 3.648,-4.872 z" />
      <path
         id="path1590"
         style="font-style:normal;font-variant:normal;font-weight:normal;font-stretch:normal;line-height:100%;font-family:'Nimbus Sans';-inkscape-font-specification:'Nimbus Sans';text-align:center;text-anchor:middle"
         d="m 423.22899,163.06164 c 0,-1.92 -0.144,-3.072 -0.504,-4.008 -0.816,-2.064 -2.736,-3.312 -5.088,-3.312 -3.504,0 -5.76,2.664 -5.76,6.816 0,4.152 2.16,6.672 5.712,6.672 2.88,0 4.872,-1.632 5.376,-4.368 h -2.016 c -0.552,1.656 -1.68,2.52 -3.288,2.52 -1.272,0 -2.352,-0.576 -3.024,-1.632 -0.48,-0.72 -0.648,-1.44 -0.672,-2.688 z m -9.216,-1.632 c 0.168,-2.328 1.584,-3.84 3.6,-3.84 2.04,0 3.456,1.584 3.456,3.84 z" />
      <path
         id="path1592"
         style="font-style:normal;font-variant:normal;font-weight:normal;font-stretch:normal;line-height:100%;font-family:'Nimbus Sans';-inkscape-font-specification:'Nimbus Sans';text-align:center;text-anchor:middle"
         d="m 443.77262,167.50164 c -0.216,0.048 -0.312,0.048 -0.432,0.048 -0.696,0 -1.08,-0.36 -1.08,-0.984 v -7.392 c 0,-2.232 -1.632,-3.432 -4.728,-3.432 -1.848,0 -3.312,0.528 -4.176,1.464 -0.576,0.648 -0.816,1.368 -0.864,2.616 h 2.016 c 0.168,-1.536 1.08,-2.232 2.952,-2.232 1.824,0 2.808,0.672 2.808,1.872 v 0.528 c -0.024,0.864 -0.456,1.176 -2.088,1.392 -2.832,0.36 -3.264,0.456 -4.032,0.768 -1.464,0.624 -2.208,1.728 -2.208,3.36 0,2.28 1.584,3.72 4.128,3.72 1.584,0 2.856,-0.552 4.272,-1.848 0.144,1.296 0.768,1.848 2.064,1.848 0.432,0 0.696,-0.048 1.368,-0.216 z m -3.504,-2.784 c 0,0.672 -0.192,1.08 -0.792,1.632 -0.816,0.744 -1.8,1.128 -2.976,1.128 -1.56,0 -2.472,-0.744 -2.472,-2.016 0,-1.32 0.864,-1.992 3.024,-2.304 2.136,-0.288 2.544,-0.384 3.216,-0.696 z" />
      <path
         id="path1594"
         style="font-style:normal;font-variant:normal;font-weight:normal;font-stretch:normal;line-height:100%;font-family:'Nimbus Sans';-inkscape-font-specification:'Nimbus Sans';text-align:center;text-anchor:middle"
         d="m 447.93999,151.18164 h -2.016 v 17.496 h 2.016 z" />
      <path
         id="path1596"
         style="font-style:normal;font-variant:normal;font-weight:normal;font-stretch:normal;line-height:100%;font-family:'Nimbus Sans';-inkscape-font-specification:'Nimbus Sans';text-align:center;text-anchor:middle"
         d="m 453.28374,151.18164 h -2.016 v 17.496 h 2.016 z" />
      <path
         id="path1598"
         style="font-style:normal;font-variant:normal;font-weight:normal;font-stretch:normal;line-height:100%;font-family:'Nimbus Sans';-inkscape-font-specification:'Nimbus Sans';text-align:center;text-anchor:middle"
         d="m 467.29149,163.06164 c 0,-1.92 -0.144,-3.072 -0.504,-4.008 -0.816,-2.064 -2.736,-3.312 -5.088,-3.312 -3.504,0 -5.76,2.664 -5.76,6.816 0,4.152 2.16,6.672 5.712,6.672 2.88,0 4.872,-1.632 5.376,-4.368 h -2.016 c -0.552,1.656 -1.68,2.52 -3.288,2.52 -1.272,0 -2.352,-0.576 -3.024,-1.632 -0.48,-0.72 -0.648,-1.44 -0.672,-2.688 z m -9.216,-1.632 c 0.168,-2.328 1.584,-3.84 3.6,-3.84 2.04,0 3.456,1.584 3.456,3.84 z" />
      <path
         id="path1600"
         style="font-style:normal;font-variant:normal;font-weight:normal;font-stretch:normal;line-height:100%;font-family:'Nimbus Sans';-inkscape-font-specification:'Nimbus Sans';text-align:center;text-anchor:middle"
         d="m 85.432367,175.18164 h -2.256 v 17.496 h 2.256 z" />
      <path
         id="path1602"
         style="font-style:normal;font-variant:normal;font-weight:normal;font-stretch:normal;line-height:100%;font-family:'Nimbus Sans';-inkscape-font-specification:'Nimbus Sans';text-align:center;text-anchor:middle"
         d="m 89.112617,180.10164 v 12.576 h 2.016 v -6.936 c 0,-2.568 1.344,-4.248 3.408,-4.248 1.584,0 2.592,0.96 2.592,2.472 v 8.712 h 1.992 v -9.504 c 0,-2.088 -1.56,-3.432 -3.984,-3.432 -1.872,0 -3.072,0.72 -4.176,2.472 v -2.112 z" />
      <path
         id="path1604"
         style="font-style:normal;font-variant:normal;font-weight:normal;font-stretch:normal;line-height:100%;font-family:'Nimbus Sans';-inkscape-font-specification:'Nimbus Sans';text-align:center;text-anchor:middle"
         d="m 106.88799,180.10164 h -2.064 v -3.456 h -1.992 v 3.456 h -1.704 v 1.632 h 1.704 v 9.504 c 0,1.296 0.864,1.992 2.424,1.992 0.528,0 0.96,-0.048 1.632,-0.168 v -1.68 c -0.288,0.072 -0.552,0.096 -0.96,0.096 -0.864,0 -1.104,-0.24 -1.104,-1.128 v -8.616 h 2.064 z" />
      <path
         id="path1606"
         style="font-style:normal;font-variant:normal;font-weight:normal;font-stretch:normal;line-height:100%;font-family:'Nimbus Sans';-inkscape-font-specification:'Nimbus Sans';text-align:center;text-anchor:middle"
         d="m 119.43212,187.06164 c 0,-1.92 -0.144,-3.072 -0.504,-4.008 -0.816,-2.064 -2.736,-3.312 -5.088,-3.312 -3.504,0 -5.76,2.664 -5.76,6.816 0,4.152 2.16,6.672 5.712,6.672 2.88,0 4.872,-1.632 5.376,-4.368 h -2.016 c -0.552,1.656 -1.68,2.52 -3.288,2.52 -1.272,0 -2.352,-0.576 -3.024,-1.632 -0.48,-0.72 -0.648,-1.44 -0.672,-2.688 z m -9.216,-1.632 c 0.168,-2.328 1.584,-3.84 3.6,-3.84 2.04,0 3.456,1.584 3.456,3.84 z" />
      <path
         id="path1608"
         style="font-style:normal;font-variant:normal;font-weight:normal;font-stretch:normal;line-height:100%;font-family:'Nimbus Sans';-inkscape-font-specification:'Nimbus Sans';text-align:center;text-anchor:middle"
         d="m 122.13549,180.10164 v 12.576 h 2.016 v -6.528 c 0.024,-3.024 1.272,-4.368 4.032,-4.296 v -2.04 c -0.336,-0.048 -0.528,-0.072 -0.768,-0.072 -1.296,0 -2.28,0.768 -3.432,2.64 v -2.28 z" />
      <path
         id="path1610"
         style="font-style:normal;font-variant:normal;font-weight:normal;font-stretch:normal;line-height:100%;font-family:'Nimbus Sans';-inkscape-font-specification:'Nimbus Sans';text-align:center;text-anchor:middle"
         d="m 130.17512,180.10164 v 12.576 h 2.016 v -6.936 c 0,-2.568 1.344,-4.248 3.408,-4.248 1.584,0 2.592,0.96 2.592,2.472 v 8.712 h 1.992 v -9.504 c 0,-2.088 -1.56,-3.432 -3.984,-3.432 -1.872,0 -3.072,0.72 -4.176,2.472 v -2.112 z" />
      <path
         id="path1612"
         style="font-style:normal;font-variant:normal;font-weight:normal;font-stretch:normal;line-height:100%;font-family:'Nimbus Sans';-inkscape-font-specification:'Nimbus Sans';text-align:center;text-anchor:middle"
         d="m 154.16649,187.06164 c 0,-1.92 -0.144,-3.072 -0.504,-4.008 -0.816,-2.064 -2.736,-3.312 -5.088,-3.312 -3.504,0 -5.76,2.664 -5.76,6.816 0,4.152 2.16,6.672 5.712,6.672 2.88,0 4.872,-1.632 5.376,-4.368 h -2.016 c -0.552,1.656 -1.68,2.52 -3.288,2.52 -1.272,0 -2.352,-0.576 -3.024,-1.632 -0.48,-0.72 -0.648,-1.44 -0.672,-2.688 z m -9.216,-1.632 c 0.168,-2.328 1.584,-3.84 3.6,-3.84 2.04,0 3.456,1.584 3.456,3.84 z" />
      <path
         id="path1614"
         style="font-style:normal;font-variant:normal;font-weight:normal;font-stretch:normal;line-height:100%;font-family:'Nimbus Sans';-inkscape-font-specification:'Nimbus Sans';text-align:center;text-anchor:middle"
         d="m 161.07549,180.10164 h -2.064 v -3.456 h -1.992 v 3.456 h -1.704 v 1.632 h 1.704 v 9.504 c 0,1.296 0.864,1.992 2.424,1.992 0.528,0 0.96,-0.048 1.632,-0.168 v -1.68 c -0.288,0.072 -0.552,0.096 -0.96,0.096 -0.864,0 -1.104,-0.24 -1.104,-1.128 v -8.616 h 2.064 z" />
      <path
         id="path1616"
         style="font-style:normal;font-variant:normal;font-weight:normal;font-stretch:normal;line-height:100%;font-family:'Nimbus Sans';-inkscape-font-specification:'Nimbus Sans';text-align:center;text-anchor:middle"
         d="m 162.97862,197.90964 h 2.016 v -6.552 c 1.056,1.296 2.232,1.872 3.864,1.872 3.264,0 5.376,-2.616 5.376,-6.624 0,-4.224 -2.064,-6.864 -5.4,-6.864 -1.704,0 -3.072,0.768 -4.008,2.256 v -1.896 h -1.848 z m 5.52,-16.296 c 2.208,0 3.648,1.944 3.648,4.944 0,2.856 -1.464,4.8 -3.648,4.8 -2.136,0 -3.504,-1.92 -3.504,-4.872 0,-2.952 1.368,-4.872 3.504,-4.872 z" />
      <path
         id="path1618"
         style="font-style:normal;font-variant:normal;font-weight:normal;font-stretch:normal;line-height:100%;font-family:'Nimbus Sans';-inkscape-font-specification:'Nimbus Sans';text-align:center;text-anchor:middle"
         d="m 178.68999,175.18164 h -2.016 v 17.496 h 2.016 z" />
      <path
         id="path1620"
         style="font-style:normal;font-variant:normal;font-weight:normal;font-stretch:normal;line-height:100%;font-family:'Nimbus Sans';-inkscape-font-specification:'Nimbus Sans';text-align:center;text-anchor:middle"
         d="m 193.22574,191.50164 c -0.216,0.048 -0.312,0.048 -0.432,0.048 -0.696,0 -1.08,-0.36 -1.08,-0.984 v -7.392 c 0,-2.232 -1.632,-3.432 -4.728,-3.432 -1.848,0 -3.312,0.528 -4.176,1.464 -0.576,0.648 -0.816,1.368 -0.864,2.616 h 2.016 c 0.168,-1.536 1.08,-2.232 2.952,-2.232 1.824,0 2.808,0.672 2.808,1.872 v 0.528 c -0.024,0.864 -0.456,1.176 -2.088,1.392 -2.832,0.36 -3.264,0.456 -4.032,0.768 -1.464,0.624 -2.208,1.728 -2.208,3.36 0,2.28 1.584,3.72 4.128,3.72 1.584,0 2.856,-0.552 4.272,-1.848 0.144,1.296 0.768,1.848 2.064,1.848 0.432,0 0.696,-0.048 1.368,-0.216 z m -3.504,-2.784 c 0,0.672 -0.192,1.08 -0.792,1.632 -0.816,0.744 -1.8,1.128 -2.976,1.128 -1.56,0 -2.472,-0.744 -2.472,-2.016 0,-1.32 0.864,-1.992 3.024,-2.304 2.136,-0.288 2.544,-0.384 3.216,-0.696 z" />
      <path
         id="path1622"
         style="font-style:normal;font-variant:normal;font-weight:normal;font-stretch:normal;line-height:100%;font-family:'Nimbus Sans';-inkscape-font-specification:'Nimbus Sans';text-align:center;text-anchor:middle"
         d="m 199.55987,180.10164 h -2.064 v -3.456 h -1.992 v 3.456 h -1.704 v 1.632 h 1.704 v 9.504 c 0,1.296 0.864,1.992 2.424,1.992 0.528,0 0.96,-0.048 1.632,-0.168 v -1.68 c -0.288,0.072 -0.552,0.096 -0.96,0.096 -0.864,0 -1.104,-0.24 -1.104,-1.128 v -8.616 h 2.064 z" />
      <path
         id="path1624"
         style="font-style:normal;font-variant:normal;font-weight:normal;font-stretch:normal;line-height:100%;font-family:'Nimbus Sans';-inkscape-font-specification:'Nimbus Sans';text-align:center;text-anchor:middle"
         d="m 206.73174,180.10164 h -2.064 v -3.456 h -1.992 v 3.456 h -1.704 v 1.632 h 1.704 v 9.504 c 0,1.296 0.864,1.992 2.424,1.992 0.528,0 0.96,-0.048 1.632,-0.168 v -1.68 c -0.288,0.072 -0.552,0.096 -0.96,0.096 -0.864,0 -1.104,-0.24 -1.104,-1.128 v -8.616 h 2.064 z" />
      <path
         id="path1626"
         style="font-style:normal;font-variant:normal;font-weight:normal;font-stretch:normal;line-height:100%;font-family:'Nimbus Sans';-inkscape-font-specification:'Nimbus Sans';text-align:center;text-anchor:middle"
         d="m 213.48399,180.10164 h -2.088 v -1.968 c 0,-0.84 0.456,-1.272 1.392,-1.272 0.168,0 0.24,0 0.696,0.024 v -1.656 c -0.456,-0.096 -0.72,-0.12 -1.128,-0.12 -1.848,0 -2.952,1.056 -2.952,2.856 v 2.136 h -1.68 v 1.632 h 1.68 v 10.944 h 1.992 v -10.944 h 2.088 z" />
      <path
         id="path1628"
         style="font-style:normal;font-variant:normal;font-weight:normal;font-stretch:normal;line-height:100%;font-family:'Nimbus Sans';-inkscape-font-specification:'Nimbus Sans';text-align:center;text-anchor:middle"
         d="m 220.24187,179.74164 c -3.552,0 -5.664,2.52 -5.664,6.744 0,4.248 2.112,6.744 5.688,6.744 3.552,0 5.688,-2.52 5.688,-6.648 0,-4.368 -2.064,-6.84 -5.712,-6.84 z m 0.024,1.848 c 2.256,0 3.6,1.848 3.6,4.968 0,2.976 -1.392,4.824 -3.6,4.824 -2.232,0 -3.6,-1.848 -3.6,-4.896 0,-3.048 1.368,-4.896 3.6,-4.896 z" />
      <path
         id="path1630"
         style="font-style:normal;font-variant:normal;font-weight:normal;font-stretch:normal;line-height:100%;font-family:'Nimbus Sans';-inkscape-font-specification:'Nimbus Sans';text-align:center;text-anchor:middle"
         d="m 228.72924,180.10164 v 12.576 h 2.016 v -6.528 c 0.024,-3.024 1.272,-4.368 4.032,-4.296 v -2.04 c -0.336,-0.048 -0.528,-0.072 -0.768,-0.072 -1.296,0 -2.28,0.768 -3.432,2.64 v -2.28 z" />
      <path
         id="path1632"
         style="font-style:normal;font-variant:normal;font-weight:normal;font-stretch:normal;line-height:100%;font-family:'Nimbus Sans';-inkscape-font-specification:'Nimbus Sans';text-align:center;text-anchor:middle"
         d="m 236.76887,180.10164 v 12.576 h 2.016 v -7.896 c 0,-1.824 1.32,-3.288 2.952,-3.288 1.488,0 2.328,0.912 2.328,2.52 v 8.664 h 2.016 v -7.896 c 0,-1.824 1.32,-3.288 2.952,-3.288 1.464,0 2.328,0.936 2.328,2.52 v 8.664 h 2.016 v -9.432 c 0,-2.256 -1.296,-3.504 -3.648,-3.504 -1.68,0 -2.688,0.504 -3.864,1.92 -0.744,-1.344 -1.752,-1.92 -3.384,-1.92 -1.68,0 -2.808,0.624 -3.864,2.136 v -1.776 z" />
      <path
         id="path1634"
         style="font-style:normal;font-variant:normal;font-weight:normal;font-stretch:normal;line-height:100%;font-family:'Nimbus Sans';-inkscape-font-specification:'Nimbus Sans';text-align:center;text-anchor:middle"
         d="m 267.41649,187.06164 c 0,-1.92 -0.144,-3.072 -0.504,-4.008 -0.816,-2.064 -2.736,-3.312 -5.088,-3.312 -3.504,0 -5.76,2.664 -5.76,6.816 0,4.152 2.16,6.672 5.712,6.672 2.88,0 4.872,-1.632 5.376,-4.368 h -2.016 c -0.552,1.656 -1.68,2.52 -3.288,2.52 -1.272,0 -2.352,-0.576 -3.024,-1.632 -0.48,-0.72 -0.648,-1.44 -0.672,-2.688 z m -9.216,-1.632 c 0.168,-2.328 1.584,-3.84 3.6,-3.84 2.04,0 3.456,1.584 3.456,3.84 z" />
      <path
         id="path1636"
         style="font-style:normal;font-variant:normal;font-weight:normal;font-stretch:normal;line-height:100%;font-family:'Nimbus Sans';-inkscape-font-specification:'Nimbus Sans';text-align:center;text-anchor:middle"
         d="m 270.14387,180.10164 v 12.576 h 2.016 v -6.936 c 0,-2.568 1.344,-4.248 3.408,-4.248 1.584,0 2.592,0.96 2.592,2.472 v 8.712 h 1.992 v -9.504 c 0,-2.088 -1.56,-3.432 -3.984,-3.432 -1.872,0 -3.072,0.72 -4.176,2.472 v -2.112 z" />
      <path
         id="path1638"
         style="font-style:normal;font-variant:normal;font-weight:normal;font-stretch:normal;line-height:100%;font-family:'Nimbus Sans';-inkscape-font-specification:'Nimbus Sans';text-align:center;text-anchor:middle"
         d="m 300.35949,175.18164 h -1.992 v 6.504 c -0.84,-1.272 -2.184,-1.944 -3.864,-1.944 -3.264,0 -5.4,2.616 -5.4,6.624 0,4.248 2.064,6.864 5.472,6.864 1.728,0 2.928,-0.648 4.008,-2.208 v 1.656 h 1.776 z m -5.52,6.432 c 2.16,0 3.528,1.896 3.528,4.92 0,2.904 -1.392,4.824 -3.504,4.824 -2.208,0 -3.672,-1.944 -3.672,-4.872 0,-2.928 1.464,-4.872 3.648,-4.872 z" />
      <path
         id="path1640"
         style="font-style:normal;font-variant:normal;font-weight:normal;font-stretch:normal;line-height:100%;font-family:'Nimbus Sans';-inkscape-font-specification:'Nimbus Sans';text-align:center;text-anchor:middle"
         d="m 314.58512,191.50164 c -0.216,0.048 -0.312,0.048 -0.432,0.048 -0.696,0 -1.08,-0.36 -1.08,-0.984 v -7.392 c 0,-2.232 -1.632,-3.432 -4.728,-3.432 -1.848,0 -3.312,0.528 -4.176,1.464 -0.576,0.648 -0.816,1.368 -0.864,2.616 h 2.016 c 0.168,-1.536 1.08,-2.232 2.952,-2.232 1.824,0 2.808,0.672 2.808,1.872 v 0.528 c -0.024,0.864 -0.456,1.176 -2.088,1.392 -2.832,0.36 -3.264,0.456 -4.032,0.768 -1.464,0.624 -2.208,1.728 -2.208,3.36 0,2.28 1.584,3.72 4.128,3.72 1.584,0 2.856,-0.552 4.272,-1.848 0.144,1.296 0.768,1.848 2.064,1.848 0.432,0 0.696,-0.048 1.368,-0.216 z m -3.504,-2.784 c 0,0.672 -0.192,1.08 -0.792,1.632 -0.816,0.744 -1.8,1.128 -2.976,1.128 -1.56,0 -2.472,-0.744 -2.472,-2.016 0,-1.32 0.864,-1.992 3.024,-2.304 2.136,-0.288 2.544,-0.384 3.216,-0.696 z" />
      <path
         id="path1642"
         style="font-style:normal;font-variant:normal;font-weight:normal;font-stretch:normal;line-height:100%;font-family:'Nimbus Sans';-inkscape-font-specification:'Nimbus Sans';text-align:center;text-anchor:middle"
         d="m 326.06462,180.10164 h -9.384 v 1.752 h 7.008 l -7.512,9.024 v 1.8 h 10.224 v -1.752 h -7.8 l 7.464,-9.048 z" />
      <path
         id="path1644"
         style="font-style:normal;font-variant:normal;font-weight:normal;font-stretch:normal;line-height:100%;font-family:'Nimbus Sans';-inkscape-font-specification:'Nimbus Sans';text-align:center;text-anchor:middle"
         d="m 338.62562,192.67764 v -12.576 h -1.992 v 7.128 c 0,2.568 -1.344,4.248 -3.432,4.248 -1.584,0 -2.592,-0.96 -2.592,-2.472 v -8.904 h -1.992 v 9.696 c 0,2.088 1.56,3.432 4.008,3.432 1.848,0 3.024,-0.648 4.2,-2.304 v 1.752 z" />
      <path
         id="path1646"
         style="font-style:normal;font-variant:normal;font-weight:normal;font-stretch:normal;line-height:100%;font-family:'Nimbus Sans';-inkscape-font-specification:'Nimbus Sans';text-align:center;text-anchor:middle"
         d="m 357.70524,180.10164 h -9.384 v 1.752 h 7.008 l -7.512,9.024 v 1.8 h 10.224 v -1.752 h -7.8 l 7.464,-9.048 z" />
      <path
         id="path1648"
         style="font-style:normal;font-variant:normal;font-weight:normal;font-stretch:normal;line-height:100%;font-family:'Nimbus Sans';-inkscape-font-specification:'Nimbus Sans';text-align:center;text-anchor:middle"
         d="m 372.36924,192.67764 3.696,-12.576 h -2.256 l -2.496,9.792 -2.472,-9.792 h -2.448 l -2.4,9.792 -2.568,-9.792 h -2.208 l 3.648,12.576 h 2.256 l 2.424,-9.864 2.544,9.864 z" />
      <path
         id="path1650"
         style="font-style:normal;font-variant:normal;font-weight:normal;font-stretch:normal;line-height:100%;font-family:'Nimbus Sans';-inkscape-font-specification:'Nimbus Sans';text-align:center;text-anchor:middle"
         d="m 380.01699,180.10164 h -1.992 v 12.576 h 1.992 z m 0,-4.92 h -2.016 v 2.52 h 2.016 z" />
      <path
         id="path1652"
         style="font-style:normal;font-variant:normal;font-weight:normal;font-stretch:normal;line-height:100%;font-family:'Nimbus Sans';-inkscape-font-specification:'Nimbus Sans';text-align:center;text-anchor:middle"
         d="m 383.44074,180.10164 v 12.576 h 2.016 v -6.936 c 0,-2.568 1.344,-4.248 3.408,-4.248 1.584,0 2.592,0.96 2.592,2.472 v 8.712 h 1.992 v -9.504 c 0,-2.088 -1.56,-3.432 -3.984,-3.432 -1.872,0 -3.072,0.72 -4.176,2.472 v -2.112 z" />
      <path
         id="path1654"
         style="font-style:normal;font-variant:normal;font-weight:normal;font-stretch:normal;line-height:100%;font-family:'Nimbus Sans';-inkscape-font-specification:'Nimbus Sans';text-align:center;text-anchor:middle"
         d="m 404.81612,180.10164 v 1.824 c -1.008,-1.512 -2.112,-2.184 -3.696,-2.184 -3.048,0 -5.16,2.832 -5.16,6.864 0,2.112 0.504,3.648 1.584,4.92 0.936,1.104 2.136,1.704 3.432,1.704 1.512,0 2.592,-0.672 3.648,-2.256 v 0.648 c 0,3.36 -0.936,4.608 -3.432,4.608 -1.704,0 -2.592,-0.672 -2.784,-2.112 h -2.04 c 0.192,2.328 2.04,3.792 4.776,3.792 1.848,0 3.384,-0.6 4.2,-1.608 0.96,-1.176 1.32,-2.736 1.32,-5.688 v -10.512 z m -3.504,1.488 c 2.112,0 3.312,1.776 3.312,4.968 0,3.048 -1.224,4.824 -3.312,4.824 -2.064,0 -3.264,-1.8 -3.264,-4.896 0,-3.072 1.2,-4.896 3.264,-4.896 z" />
      <path
         id="path1656"
         style="font-style:normal;font-variant:normal;font-weight:normal;font-stretch:normal;line-height:100%;font-family:'Nimbus Sans';-inkscape-font-specification:'Nimbus Sans';text-align:center;text-anchor:middle"
         d="m 420.65087,187.06164 c 0,-1.92 -0.144,-3.072 -0.504,-4.008 -0.816,-2.064 -2.736,-3.312 -5.088,-3.312 -3.504,0 -5.76,2.664 -5.76,6.816 0,4.152 2.16,6.672 5.712,6.672 2.88,0 4.872,-1.632 5.376,-4.368 h -2.016 c -0.552,1.656 -1.68,2.52 -3.288,2.52 -1.272,0 -2.352,-0.576 -3.024,-1.632 -0.48,-0.72 -0.648,-1.44 -0.672,-2.688 z m -9.216,-1.632 c 0.168,-2.328 1.584,-3.84 3.6,-3.84 2.04,0 3.456,1.584 3.456,3.84 z" />
      <path
         id="path1658"
         style="font-style:normal;font-variant:normal;font-weight:normal;font-stretch:normal;line-height:100%;font-family:'Nimbus Sans';-inkscape-font-specification:'Nimbus Sans';text-align:center;text-anchor:middle"
         d="m 423.37824,180.10164 v 12.576 h 2.016 v -6.936 c 0,-2.568 1.344,-4.248 3.408,-4.248 1.584,0 2.592,0.96 2.592,2.472 v 8.712 h 1.992 v -9.504 c 0,-2.088 -1.56,-3.432 -3.984,-3.432 -1.872,0 -3.072,0.72 -4.176,2.472 v -2.112 z" />
      <path
         id="path1660"
         style="font-style:normal;font-variant:normal;font-weight:normal;font-stretch:normal;line-height:100%;font-family:'Nimbus Sans';-inkscape-font-specification:'Nimbus Sans';text-align:center;text-anchor:middle"
         d="m 132.40787,199.18164 h -12.6 v 1.968 h 9.84 l -10.512,13.56 v 1.968 h 13.32 v -1.968 h -10.512 l 10.464,-13.512 z" />
      <path
         id="path1662"
         style="font-style:normal;font-variant:normal;font-weight:normal;font-stretch:normal;line-height:100%;font-family:'Nimbus Sans';-inkscape-font-specification:'Nimbus Sans';text-align:center;text-anchor:middle"
         d="m 145.11962,211.06164 c 0,-1.92 -0.144,-3.072 -0.504,-4.008 -0.816,-2.064 -2.736,-3.312 -5.088,-3.312 -3.504,0 -5.76,2.664 -5.76,6.816 0,4.152 2.16,6.672 5.712,6.672 2.88,0 4.872,-1.632 5.376,-4.368 h -2.016 c -0.552,1.656 -1.68,2.52 -3.288,2.52 -1.272,0 -2.352,-0.576 -3.024,-1.632 -0.48,-0.72 -0.648,-1.44 -0.672,-2.688 z m -9.216,-1.632 c 0.168,-2.328 1.584,-3.84 3.6,-3.84 2.04,0 3.456,1.584 3.456,3.84 z" />
      <path
         id="path1664"
         style="font-style:normal;font-variant:normal;font-weight:normal;font-stretch:normal;line-height:100%;font-family:'Nimbus Sans';-inkscape-font-specification:'Nimbus Sans';text-align:center;text-anchor:middle"
         d="m 147.84699,204.10164 v 12.576 h 2.016 v -6.936 c 0,-2.568 1.344,-4.248 3.408,-4.248 1.584,0 2.592,0.96 2.592,2.472 v 8.712 h 1.992 v -9.504 c 0,-2.088 -1.56,-3.432 -3.984,-3.432 -1.872,0 -3.072,0.72 -4.176,2.472 v -2.112 z" />
      <path
         id="path1666"
         style="font-style:normal;font-variant:normal;font-weight:normal;font-stretch:normal;line-height:100%;font-family:'Nimbus Sans';-inkscape-font-specification:'Nimbus Sans';text-align:center;text-anchor:middle"
         d="m 170.03837,207.60564 c -0.024,-2.472 -1.656,-3.864 -4.56,-3.864 -2.928,0 -4.824,1.512 -4.824,3.84 0,1.968 1.008,2.904 3.984,3.624 l 1.872,0.456 c 1.392,0.336 1.944,0.84 1.944,1.728 0,1.2 -1.176,1.992 -2.928,1.992 -1.08,0 -1.992,-0.312 -2.496,-0.84 -0.312,-0.36 -0.456,-0.72 -0.576,-1.608 h -2.112 c 0.096,2.904 1.728,4.296 5.016,4.296 3.168,0 5.184,-1.56 5.184,-3.984 0,-1.872 -1.056,-2.904 -3.552,-3.504 l -1.92,-0.456 c -1.632,-0.384 -2.328,-0.912 -2.328,-1.8 0,-1.176 1.032,-1.896 2.664,-1.896 1.608,0 2.472,0.696 2.52,2.016 z" />
      <path
         id="path1668"
         style="font-style:normal;font-variant:normal;font-weight:normal;font-stretch:normal;line-height:100%;font-family:'Nimbus Sans';-inkscape-font-specification:'Nimbus Sans';text-align:center;text-anchor:middle"
         d="m 183.09437,216.67764 v -12.576 h -1.992 v 7.128 c 0,2.568 -1.344,4.248 -3.432,4.248 -1.584,0 -2.592,-0.96 -2.592,-2.472 v -8.904 h -1.992 v 9.696 c 0,2.088 1.56,3.432 4.008,3.432 1.848,0 3.024,-0.648 4.2,-2.304 v 1.752 z" />
      <path
         id="path1670"
         style="font-style:normal;font-variant:normal;font-weight:normal;font-stretch:normal;line-height:100%;font-family:'Nimbus Sans';-inkscape-font-specification:'Nimbus Sans';text-align:center;text-anchor:middle"
         d="m 186.54174,204.10164 v 12.576 h 2.016 v -6.528 c 0.024,-3.024 1.272,-4.368 4.032,-4.296 v -2.04 c -0.336,-0.048 -0.528,-0.072 -0.768,-0.072 -1.296,0 -2.28,0.768 -3.432,2.64 v -2.28 z" />
      <path
         id="path1672"
         style="font-style:normal;font-variant:normal;font-weight:normal;font-stretch:normal;line-height:100%;font-family:'Nimbus Sans';-inkscape-font-specification:'Nimbus Sans';text-align:center;text-anchor:middle"
         d="m 198.94937,204.10164 h -2.088 v -1.968 c 0,-0.84 0.456,-1.272 1.392,-1.272 0.168,0 0.24,0 0.696,0.024 v -1.656 c -0.456,-0.096 -0.72,-0.12 -1.128,-0.12 -1.848,0 -2.952,1.056 -2.952,2.856 v 2.136 h -1.68 v 1.632 h 1.68 v 10.944 h 1.992 v -10.944 h 2.088 z m 4.416,0 h -1.992 v 12.576 h 1.992 z m 0,-4.92 h -1.992 v 2.52 h 1.992 z" />
      <path
         id="path1674"
         style="font-style:normal;font-variant:normal;font-weight:normal;font-stretch:normal;line-height:100%;font-family:'Nimbus Sans';-inkscape-font-specification:'Nimbus Sans';text-align:center;text-anchor:middle"
         d="m 208.54937,199.18164 h -2.016 v 17.496 h 2.016 z" />
      <path
         id="path1676"
         style="font-style:normal;font-variant:normal;font-weight:normal;font-stretch:normal;line-height:100%;font-family:'Nimbus Sans';-inkscape-font-specification:'Nimbus Sans';text-align:center;text-anchor:middle"
         d="m 216.34112,204.10164 h -2.064 v -3.456 h -1.992 v 3.456 h -1.704 v 1.632 h 1.704 v 9.504 c 0,1.296 0.864,1.992 2.424,1.992 0.528,0 0.96,-0.048 1.632,-0.168 v -1.68 c -0.288,0.072 -0.552,0.096 -0.96,0.096 -0.864,0 -1.104,-0.24 -1.104,-1.128 v -8.616 h 2.064 z" />
      <path
         id="path1678"
         style="font-style:normal;font-variant:normal;font-weight:normal;font-stretch:normal;line-height:100%;font-family:'Nimbus Sans';-inkscape-font-specification:'Nimbus Sans';text-align:center;text-anchor:middle"
         d="m 228.88524,211.06164 c 0,-1.92 -0.144,-3.072 -0.504,-4.008 -0.816,-2.064 -2.736,-3.312 -5.088,-3.312 -3.504,0 -5.76,2.664 -5.76,6.816 0,4.152 2.16,6.672 5.712,6.672 2.88,0 4.872,-1.632 5.376,-4.368 h -2.016 c -0.552,1.656 -1.68,2.52 -3.288,2.52 -1.272,0 -2.352,-0.576 -3.024,-1.632 -0.48,-0.72 -0.648,-1.44 -0.672,-2.688 z m -9.216,-1.632 c 0.168,-2.328 1.584,-3.84 3.6,-3.84 2.04,0 3.456,1.584 3.456,3.84 z" />
      <path
         id="path1680"
         style="font-style:normal;font-variant:normal;font-weight:normal;font-stretch:normal;line-height:100%;font-family:'Nimbus Sans';-inkscape-font-specification:'Nimbus Sans';text-align:center;text-anchor:middle"
         d="m 231.58862,204.10164 v 12.576 h 2.016 v -6.528 c 0.024,-3.024 1.272,-4.368 4.032,-4.296 v -2.04 c -0.336,-0.048 -0.528,-0.072 -0.768,-0.072 -1.296,0 -2.28,0.768 -3.432,2.64 v -2.28 z" />
      <path
         id="path1682"
         style="font-style:normal;font-variant:normal;font-weight:normal;font-stretch:normal;line-height:100%;font-family:'Nimbus Sans';-inkscape-font-specification:'Nimbus Sans';text-align:center;text-anchor:middle"
         d="m 255.23649,204.10164 h -9.384 v 1.752 h 7.008 l -7.512,9.024 v 1.8 h 10.224 v -1.752 h -7.8 l 7.464,-9.048 z" />
      <path
         id="path1684"
         style="font-style:normal;font-variant:normal;font-weight:normal;font-stretch:normal;line-height:100%;font-family:'Nimbus Sans';-inkscape-font-specification:'Nimbus Sans';text-align:center;text-anchor:middle"
         d="m 267.79749,216.67764 v -12.576 h -1.992 v 7.128 c 0,2.568 -1.344,4.248 -3.432,4.248 -1.584,0 -2.592,-0.96 -2.592,-2.472 v -8.904 h -1.992 v 9.696 c 0,2.088 1.56,3.432 4.008,3.432 1.848,0 3.024,-0.648 4.2,-2.304 v 1.752 z" />
      <path
         id="path1686"
         style="font-style:normal;font-variant:normal;font-weight:normal;font-stretch:normal;line-height:100%;font-family:'Nimbus Sans';-inkscape-font-specification:'Nimbus Sans';text-align:center;text-anchor:middle"
         d="m 279.84512,204.10164 h -1.992 v 12.576 h 1.992 z m 0,-4.92 h -2.016 v 2.52 h 2.016 z" />
      <path
         id="path1688"
         style="font-style:normal;font-variant:normal;font-weight:normal;font-stretch:normal;line-height:100%;font-family:'Nimbus Sans';-inkscape-font-specification:'Nimbus Sans';text-align:center;text-anchor:middle"
         d="m 283.26887,204.10164 v 12.576 h 2.016 v -6.936 c 0,-2.568 1.344,-4.248 3.408,-4.248 1.584,0 2.592,0.96 2.592,2.472 v 8.712 h 1.992 v -9.504 c 0,-2.088 -1.56,-3.432 -3.984,-3.432 -1.872,0 -3.072,0.72 -4.176,2.472 v -2.112 z" />
      <path
         id="path1690"
         style="font-style:normal;font-variant:normal;font-weight:normal;font-stretch:normal;line-height:100%;font-family:'Nimbus Sans';-inkscape-font-specification:'Nimbus Sans';text-align:center;text-anchor:middle"
         d="m 305.46024,207.60564 c -0.024,-2.472 -1.656,-3.864 -4.56,-3.864 -2.928,0 -4.824,1.512 -4.824,3.84 0,1.968 1.008,2.904 3.984,3.624 l 1.872,0.456 c 1.392,0.336 1.944,0.84 1.944,1.728 0,1.2 -1.176,1.992 -2.928,1.992 -1.08,0 -1.992,-0.312 -2.496,-0.84 -0.312,-0.36 -0.456,-0.72 -0.576,-1.608 h -2.112 c 0.096,2.904 1.728,4.296 5.016,4.296 3.168,0 5.184,-1.56 5.184,-3.984 0,-1.872 -1.056,-2.904 -3.552,-3.504 l -1.92,-0.456 c -1.632,-0.384 -2.328,-0.912 -2.328,-1.8 0,-1.176 1.032,-1.896 2.664,-1.896 1.608,0 2.472,0.696 2.52,2.016 z" />
      <path
         id="path1692"
         style="font-style:normal;font-variant:normal;font-weight:normal;font-stretch:normal;line-height:100%;font-family:'Nimbus Sans';-inkscape-font-specification:'Nimbus Sans';text-align:center;text-anchor:middle"
         d="m 312.95049,204.10164 h -2.064 v -3.456 h -1.992 v 3.456 h -1.704 v 1.632 h 1.704 v 9.504 c 0,1.296 0.864,1.992 2.424,1.992 0.528,0 0.96,-0.048 1.632,-0.168 v -1.68 c -0.288,0.072 -0.552,0.096 -0.96,0.096 -0.864,0 -1.104,-0.24 -1.104,-1.128 v -8.616 h 2.064 z" />
      <path
         id="path1694"
         style="font-style:normal;font-variant:normal;font-weight:normal;font-stretch:normal;line-height:100%;font-family:'Nimbus Sans';-inkscape-font-specification:'Nimbus Sans';text-align:center;text-anchor:middle"
         d="m 326.30387,215.50164 c -0.216,0.048 -0.312,0.048 -0.432,0.048 -0.696,0 -1.08,-0.36 -1.08,-0.984 v -7.392 c 0,-2.232 -1.632,-3.432 -4.728,-3.432 -1.848,0 -3.312,0.528 -4.176,1.464 -0.576,0.648 -0.816,1.368 -0.864,2.616 h 2.016 c 0.168,-1.536 1.08,-2.232 2.952,-2.232 1.824,0 2.808,0.672 2.808,1.872 v 0.528 c -0.024,0.864 -0.456,1.176 -2.088,1.392 -2.832,0.36 -3.264,0.456 -4.032,0.768 -1.464,0.624 -2.208,1.728 -2.208,3.36 0,2.28 1.584,3.72 4.128,3.72 1.584,0 2.856,-0.552 4.272,-1.848 0.144,1.296 0.768,1.848 2.064,1.848 0.432,0 0.696,-0.048 1.368,-0.216 z m -3.504,-2.784 c 0,0.672 -0.192,1.08 -0.792,1.632 -0.816,0.744 -1.8,1.128 -2.976,1.128 -1.56,0 -2.472,-0.744 -2.472,-2.016 0,-1.32 0.864,-1.992 3.024,-2.304 2.136,-0.288 2.544,-0.384 3.216,-0.696 z" />
      <path
         id="path1696"
         style="font-style:normal;font-variant:normal;font-weight:normal;font-stretch:normal;line-height:100%;font-family:'Nimbus Sans';-inkscape-font-specification:'Nimbus Sans';text-align:center;text-anchor:middle"
         d="m 330.47124,199.18164 h -2.016 v 17.496 h 2.016 z" />
      <path
         id="path1698"
         style="font-style:normal;font-variant:normal;font-weight:normal;font-stretch:normal;line-height:100%;font-family:'Nimbus Sans';-inkscape-font-specification:'Nimbus Sans';text-align:center;text-anchor:middle"
         d="m 335.81499,199.18164 h -2.016 v 17.496 h 2.016 z" />
      <path
         id="path1700"
         style="font-style:normal;font-variant:normal;font-weight:normal;font-stretch:normal;line-height:100%;font-family:'Nimbus Sans';-inkscape-font-specification:'Nimbus Sans';text-align:center;text-anchor:middle"
         d="m 341.11074,204.10164 h -1.992 v 12.576 h 1.992 z m 0,-4.92 h -2.016 v 2.52 h 2.016 z" />
      <path
         id="path1702"
         style="font-style:normal;font-variant:normal;font-weight:normal;font-stretch:normal;line-height:100%;font-family:'Nimbus Sans';-inkscape-font-specification:'Nimbus Sans';text-align:center;text-anchor:middle"
         d="m 355.16649,211.06164 c 0,-1.92 -0.144,-3.072 -0.504,-4.008 -0.816,-2.064 -2.736,-3.312 -5.088,-3.312 -3.504,0 -5.76,2.664 -5.76,6.816 0,4.152 2.16,6.672 5.712,6.672 2.88,0 4.872,-1.632 5.376,-4.368 h -2.016 c -0.552,1.656 -1.68,2.52 -3.288,2.52 -1.272,0 -2.352,-0.576 -3.024,-1.632 -0.48,-0.72 -0.648,-1.44 -0.672,-2.688 z m -9.216,-1.632 c 0.168,-2.328 1.584,-3.84 3.6,-3.84 2.04,0 3.456,1.584 3.456,3.84 z" />
      <path
         id="path1704"
         style="font-style:normal;font-variant:normal;font-weight:normal;font-stretch:normal;line-height:100%;font-family:'Nimbus Sans';-inkscape-font-specification:'Nimbus Sans';text-align:center;text-anchor:middle"
         d="m 357.86987,204.10164 v 12.576 h 2.016 v -6.528 c 0.024,-3.024 1.272,-4.368 4.032,-4.296 v -2.04 c -0.336,-0.048 -0.528,-0.072 -0.768,-0.072 -1.296,0 -2.28,0.768 -3.432,2.64 v -2.28 z" />
      <path
         id="path1706"
         style="font-style:normal;font-variant:normal;font-weight:normal;font-stretch:normal;line-height:100%;font-family:'Nimbus Sans';-inkscape-font-specification:'Nimbus Sans';text-align:center;text-anchor:middle"
         d="m 376.30712,211.06164 c 0,-1.92 -0.144,-3.072 -0.504,-4.008 -0.816,-2.064 -2.736,-3.312 -5.088,-3.312 -3.504,0 -5.76,2.664 -5.76,6.816 0,4.152 2.16,6.672 5.712,6.672 2.88,0 4.872,-1.632 5.376,-4.368 h -2.016 c -0.552,1.656 -1.68,2.52 -3.288,2.52 -1.272,0 -2.352,-0.576 -3.024,-1.632 -0.48,-0.72 -0.648,-1.44 -0.672,-2.688 z m -9.216,-1.632 c 0.168,-2.328 1.584,-3.84 3.6,-3.84 2.04,0 3.456,1.584 3.456,3.84 z" />
      <path
         id="path1708"
         style="font-style:normal;font-variant:normal;font-weight:normal;font-stretch:normal;line-height:100%;font-family:'Nimbus Sans';-inkscape-font-specification:'Nimbus Sans';text-align:center;text-anchor:middle"
         d="m 379.03449,204.10164 v 12.576 h 2.016 v -6.936 c 0,-2.568 1.344,-4.248 3.408,-4.248 1.584,0 2.592,0.96 2.592,2.472 v 8.712 h 1.992 v -9.504 c 0,-2.088 -1.56,-3.432 -3.984,-3.432 -1.872,0 -3.072,0.72 -4.176,2.472 v -2.112 z" />
      <path
         id="path1710"
         style="font-style:normal;font-variant:normal;font-weight:normal;font-stretch:normal;line-height:100%;font-family:'Nimbus Sans';-inkscape-font-specification:'Nimbus Sans';text-align:center;text-anchor:middle"
         d="m 395.29787,214.18164 h -2.496 v 2.496 h 2.496 z" />
    </g>
    <g
       id="flowRoot835"
       style="font-style:normal;font-variant:normal;font-weight:normal;font-stretch:normal;font-size:24px;line-height:0px;font-family:Montserrat;-inkscape-font-specification:'Montserrat, Normal';font-variant-ligatures:normal;font-variant-caps:normal;font-variant-numeric:normal;text-align:start;letter-spacing:0px;word-spacing:0px;writing-mode:lr-tb;text-anchor:start;fill:#ffffff;fill-opacity:1;stroke:none;stroke-width:1px;stroke-linecap:butt;stroke-linejoin:miter;stroke-opacity:1"
       transform="matrix(-0.13230138,0.13230327,-0.13230138,-0.13230327,119.59019,30.557465)"
       aria-label="JETZT DAGEGEN AUF DIE STRASSE GEHEN!">
      <path
         id="path1713"
         style="font-style:normal;font-variant:normal;font-weight:bold;font-stretch:normal;line-height:100%;font-family:'Nimbus Sans';-inkscape-font-specification:'Nimbus Sans Bold';text-align:center;text-anchor:middle;fill:#ffffff;fill-opacity:1"
         d="m 88.341344,272.125 v 12.936 c 0,1.32 -0.696,2.04 -1.944,2.04 -1.368,0 -1.944,-0.672 -1.944,-2.28 v -1.68 h -3.6 v 1.728 c 0,1.824 0.432,2.952 1.464,3.912 1.008,0.912 2.352,1.392 4.008,1.392 3.576,0 5.616,-1.848 5.616,-5.112 v -12.936 z" />
      <path
         id="path1715"
         style="font-style:normal;font-variant:normal;font-weight:bold;font-stretch:normal;line-height:100%;font-family:'Nimbus Sans';-inkscape-font-specification:'Nimbus Sans Bold';text-align:center;text-anchor:middle;fill:#ffffff;fill-opacity:1"
         d="m 99.132719,282.085 h 8.376001 v -3 h -8.376001 v -3.96 h 9.048001 v -3 H 95.532719 v 17.496 h 13.080001 v -3 h -9.480001 z" />
      <path
         id="path1717"
         style="font-style:normal;font-variant:normal;font-weight:bold;font-stretch:normal;line-height:100%;font-family:'Nimbus Sans';-inkscape-font-specification:'Nimbus Sans Bold';text-align:center;text-anchor:middle;fill:#ffffff;fill-opacity:1"
         d="m 118.90797,275.125 h 5.112 v -3 h -14.016 v 3 h 5.304 v 14.496 h 3.6 z" />
      <path
         id="path1719"
         style="font-style:normal;font-variant:normal;font-weight:bold;font-stretch:normal;line-height:100%;font-family:'Nimbus Sans';-inkscape-font-specification:'Nimbus Sans Bold';text-align:center;text-anchor:middle;fill:#ffffff;fill-opacity:1"
         d="m 138.58684,272.125 h -13.152 v 3 h 8.952 l -8.952,11.496 v 3 h 13.152 v -3 h -8.928 l 8.928,-11.496 z" />
      <path
         id="path1721"
         style="font-style:normal;font-variant:normal;font-weight:bold;font-stretch:normal;line-height:100%;font-family:'Nimbus Sans';-inkscape-font-specification:'Nimbus Sans Bold';text-align:center;text-anchor:middle;fill:#ffffff;fill-opacity:1"
         d="m 148.62672,275.125 h 5.112 v -3 h -14.016 v 3 h 5.304 v 14.496 h 3.6 z" />
      <path
         id="path1723"
         style="font-style:normal;font-variant:normal;font-weight:bold;font-stretch:normal;line-height:100%;font-family:'Nimbus Sans';-inkscape-font-specification:'Nimbus Sans Bold';text-align:center;text-anchor:middle;fill:#ffffff;fill-opacity:1"
         d="m 162.56284,289.621 h 6.84 c 2.664,0 4.344,-0.624 5.544,-2.04 1.368,-1.632 2.112,-3.984 2.112,-6.72 0,-2.712 -0.744,-5.064 -2.112,-6.72 -1.2,-1.416 -2.856,-2.016 -5.544,-2.016 h -6.84 z m 3.6,-3 v -11.496 h 3.24 c 2.712,0 4.056,1.896 4.056,5.76 0,3.84 -1.344,5.736 -4.056,5.736 z" />
      <path
         id="path1725"
         style="font-style:normal;font-variant:normal;font-weight:bold;font-stretch:normal;line-height:100%;font-family:'Nimbus Sans';-inkscape-font-specification:'Nimbus Sans Bold';text-align:center;text-anchor:middle;fill:#ffffff;fill-opacity:1"
         d="m 189.14509,286.093 1.152,3.528 h 3.696 l -6.048,-17.496 h -3.984 l -6.216,17.496 h 3.672 l 1.176,-3.528 z m -0.984,-3 h -4.56 l 2.28,-6.84 z" />
      <path
         id="path1727"
         style="font-style:normal;font-variant:normal;font-weight:bold;font-stretch:normal;line-height:100%;font-family:'Nimbus Sans';-inkscape-font-specification:'Nimbus Sans Bold';text-align:center;text-anchor:middle;fill:#ffffff;fill-opacity:1"
         d="m 210.59134,280.213 h -7.008 v 3 h 3.984 c -0.096,0.984 -0.336,1.584 -0.864,2.208 -0.864,1.056 -2.208,1.68 -3.576,1.68 -2.928,0 -4.992,-2.544 -4.992,-6.144 0,-3.768 1.824,-6.048 4.896,-6.048 1.248,0 2.304,0.36 3.096,1.056 0.504,0.432 0.768,0.84 1.08,1.752 h 3.384 c -0.432,-3.624 -3.36,-5.88 -7.584,-5.88 -5.04,0 -8.472,3.72 -8.472,9.168 0,5.304 3.456,9.168 8.184,9.168 2.352,0 3.936,-0.84 5.28,-2.808 l 0.432,2.304 h 2.16 z" />
      <path
         id="path1729"
         style="font-style:normal;font-variant:normal;font-weight:bold;font-stretch:normal;line-height:100%;font-family:'Nimbus Sans';-inkscape-font-specification:'Nimbus Sans Bold';text-align:center;text-anchor:middle;fill:#ffffff;fill-opacity:1"
         d="m 217.67959,282.085 h 8.376 v -3 h -8.376 v -3.96 h 9.048 v -3 h -12.648 v 17.496 h 13.08 v -3 h -9.48 z" />
      <path
         id="path1731"
         style="font-style:normal;font-variant:normal;font-weight:bold;font-stretch:normal;line-height:100%;font-family:'Nimbus Sans';-inkscape-font-specification:'Nimbus Sans Bold';text-align:center;text-anchor:middle;fill:#ffffff;fill-opacity:1"
         d="m 245.27884,280.213 h -7.008 v 3 h 3.984 c -0.096,0.984 -0.336,1.584 -0.864,2.208 -0.864,1.056 -2.208,1.68 -3.576,1.68 -2.928,0 -4.992,-2.544 -4.992,-6.144 0,-3.768 1.824,-6.048 4.896,-6.048 1.248,0 2.304,0.36 3.096,1.056 0.504,0.432 0.768,0.84 1.08,1.752 h 3.384 c -0.432,-3.624 -3.36,-5.88 -7.584,-5.88 -5.04,0 -8.472,3.72 -8.472,9.168 0,5.304 3.456,9.168 8.184,9.168 2.352,0 3.936,-0.84 5.28,-2.808 l 0.432,2.304 h 2.16 z" />
      <path
         id="path1733"
         style="font-style:normal;font-variant:normal;font-weight:bold;font-stretch:normal;line-height:100%;font-family:'Nimbus Sans';-inkscape-font-specification:'Nimbus Sans Bold';text-align:center;text-anchor:middle;fill:#ffffff;fill-opacity:1"
         d="m 252.36709,282.085 h 8.376 v -3 h -8.376 v -3.96 h 9.048 v -3 h -12.648 v 17.496 h 13.08 v -3 h -9.48 z" />
      <path
         id="path1735"
         style="font-style:normal;font-variant:normal;font-weight:bold;font-stretch:normal;line-height:100%;font-family:'Nimbus Sans';-inkscape-font-specification:'Nimbus Sans Bold';text-align:center;text-anchor:middle;fill:#ffffff;fill-opacity:1"
         d="m 275.16634,289.621 h 3.6 v -17.496 h -3.6 v 11.904 l -6.936,-11.904 h -3.696 v 17.496 h 3.6 v -12.096 z" />
      <path
         id="path1737"
         style="font-style:normal;font-variant:normal;font-weight:bold;font-stretch:normal;line-height:100%;font-family:'Nimbus Sans';-inkscape-font-specification:'Nimbus Sans Bold';text-align:center;text-anchor:middle;fill:#ffffff;fill-opacity:1"
         d="m 298.92634,286.093 1.152,3.528 h 3.696 l -6.048,-17.496 h -3.984 l -6.216,17.496 h 3.672 l 1.176,-3.528 z m -0.984,-3 h -4.56 l 2.28,-6.84 z" />
      <path
         id="path1739"
         style="font-style:normal;font-variant:normal;font-weight:bold;font-stretch:normal;line-height:100%;font-family:'Nimbus Sans';-inkscape-font-specification:'Nimbus Sans Bold';text-align:center;text-anchor:middle;fill:#ffffff;fill-opacity:1"
         d="m 315.54522,272.125 v 11.856 c 0,2.112 -1.08,3.12 -3.336,3.12 -2.256,0 -3.336,-1.008 -3.336,-3.12 v -11.856 h -3.6 v 11.856 c 0,1.968 0.528,3.36 1.704,4.416 1.272,1.152 3.12,1.776 5.232,1.776 2.112,0 3.96,-0.624 5.232,-1.776 1.176,-1.056 1.704,-2.448 1.704,-4.416 v -11.856 z" />
      <path
         id="path1741"
         style="font-style:normal;font-variant:normal;font-weight:bold;font-stretch:normal;line-height:100%;font-family:'Nimbus Sans';-inkscape-font-specification:'Nimbus Sans Bold';text-align:center;text-anchor:middle;fill:#ffffff;fill-opacity:1"
         d="m 326.16897,282.085 h 7.656 v -3 h -7.656 v -3.96 h 8.688 v -3 h -12.288 v 17.496 h 3.6 z" />
      <path
         id="path1743"
         style="font-style:normal;font-variant:normal;font-weight:bold;font-stretch:normal;line-height:100%;font-family:'Nimbus Sans';-inkscape-font-specification:'Nimbus Sans Bold';text-align:center;text-anchor:middle;fill:#ffffff;fill-opacity:1"
         d="m 343.96909,289.621 h 6.84 c 2.664,0 4.344,-0.624 5.544,-2.04 1.368,-1.632 2.112,-3.984 2.112,-6.72 0,-2.712 -0.744,-5.064 -2.112,-6.72 -1.2,-1.416 -2.856,-2.016 -5.544,-2.016 h -6.84 z m 3.6,-3 v -11.496 h 3.24 c 2.712,0 4.056,1.896 4.056,5.76 0,3.84 -1.344,5.736 -4.056,5.736 z" />
      <path
         id="path1745"
         style="font-style:normal;font-variant:normal;font-weight:bold;font-stretch:normal;line-height:100%;font-family:'Nimbus Sans';-inkscape-font-specification:'Nimbus Sans Bold';text-align:center;text-anchor:middle;fill:#ffffff;fill-opacity:1"
         d="m 364.57684,272.125 h -3.6 v 17.496 h 3.6 z" />
      <path
         id="path1747"
         style="font-style:normal;font-variant:normal;font-weight:bold;font-stretch:normal;line-height:100%;font-family:'Nimbus Sans';-inkscape-font-specification:'Nimbus Sans Bold';text-align:center;text-anchor:middle;fill:#ffffff;fill-opacity:1"
         d="m 371.61709,282.085 h 8.376 v -3 h -8.376 v -3.96 h 9.048 v -3 h -12.648 v 17.496 h 13.08 v -3 h -9.48 z" />
      <path
         id="path1749"
         style="font-style:normal;font-variant:normal;font-weight:bold;font-stretch:normal;line-height:100%;font-family:'Nimbus Sans';-inkscape-font-specification:'Nimbus Sans Bold';text-align:center;text-anchor:middle;fill:#ffffff;fill-opacity:1"
         d="m 403.37659,277.453 c -0.024,-3.624 -2.448,-5.616 -6.864,-5.616 -4.2,0 -6.624,1.968 -6.624,5.376 0,2.712 1.368,4.032 4.92,4.704 l 2.448,0.48 c 2.4,0.456 3.288,1.128 3.288,2.544 0,1.464 -1.344,2.352 -3.528,2.352 -2.448,0 -3.816,-1.032 -3.936,-2.904 h -3.504 c 0.216,3.744 2.784,5.784 7.248,5.784 4.512,0 7.176,-2.088 7.176,-5.664 0,-2.76 -1.392,-4.2 -4.632,-4.824 l -2.736,-0.528 c -2.568,-0.504 -3.312,-1.008 -3.312,-2.28 0,-1.32 1.152,-2.16 3.024,-2.16 2.28,0 3.552,0.96 3.672,2.736 z" />
      <path
         id="path1751"
         style="font-style:normal;font-variant:normal;font-weight:bold;font-stretch:normal;line-height:100%;font-family:'Nimbus Sans';-inkscape-font-specification:'Nimbus Sans Bold';text-align:center;text-anchor:middle;fill:#ffffff;fill-opacity:1"
         d="m 413.89234,275.125 h 5.112 v -3 h -14.016 v 3 h 5.304 v 14.496 h 3.6 z" />
      <path
         id="path1753"
         style="font-style:normal;font-variant:normal;font-weight:bold;font-stretch:normal;line-height:100%;font-family:'Nimbus Sans';-inkscape-font-specification:'Nimbus Sans Bold';text-align:center;text-anchor:middle;fill:#ffffff;fill-opacity:1"
         d="m 424.60984,282.685 h 4.128 c 1.56,0 2.232,0.624 2.232,2.064 v 0.72 c -0.024,0.456 -0.024,0.888 -0.024,1.152 0,1.656 0.096,2.16 0.528,3 h 3.864 v -0.648 c -0.552,-0.312 -0.768,-0.672 -0.768,-1.44 -0.096,-5.16 -0.192,-5.4 -2.424,-6.36 1.968,-0.768 2.952,-2.184 2.952,-4.32 0,-1.392 -0.48,-2.664 -1.32,-3.528 -0.792,-0.816 -1.896,-1.2 -3.384,-1.2 h -9.384 v 17.496 h 3.6 z m 0,-3 v -4.56 h 4.344 c 1.032,0 1.44,0.096 1.896,0.456 0.432,0.36 0.648,0.96 0.648,1.776 0,0.84 -0.216,1.512 -0.648,1.872 -0.408,0.336 -0.864,0.456 -1.896,0.456 z" />
      <path
         id="path1755"
         style="font-style:normal;font-variant:normal;font-weight:bold;font-stretch:normal;line-height:100%;font-family:'Nimbus Sans';-inkscape-font-specification:'Nimbus Sans Bold';text-align:center;text-anchor:middle;fill:#ffffff;fill-opacity:1"
         d="m 448.50447,286.093 1.152,3.528 h 3.696 l -6.048,-17.496 h -3.984 l -6.216,17.496 h 3.672 l 1.176,-3.528 z m -0.984,-3 h -4.56 l 2.28,-6.84 z" />
      <path
         id="path1757"
         style="font-style:normal;font-variant:normal;font-weight:bold;font-stretch:normal;line-height:100%;font-family:'Nimbus Sans';-inkscape-font-specification:'Nimbus Sans Bold';text-align:center;text-anchor:middle;fill:#ffffff;fill-opacity:1"
         d="m 467.97034,277.453 c -0.024,-3.624 -2.448,-5.616 -6.864,-5.616 -4.2,0 -6.624,1.968 -6.624,5.376 0,2.712 1.368,4.032 4.92,4.704 l 2.448,0.48 c 2.4,0.456 3.288,1.128 3.288,2.544 0,1.464 -1.344,2.352 -3.528,2.352 -2.448,0 -3.816,-1.032 -3.936,-2.904 h -3.504 c 0.216,3.744 2.784,5.784 7.248,5.784 4.512,0 7.176,-2.088 7.176,-5.664 0,-2.76 -1.392,-4.2 -4.632,-4.824 l -2.736,-0.528 c -2.568,-0.504 -3.312,-1.008 -3.312,-2.28 0,-1.32 1.152,-2.16 3.024,-2.16 2.28,0 3.552,0.96 3.672,2.736 z" />
      <path
         id="path1759"
         style="font-style:normal;font-variant:normal;font-weight:bold;font-stretch:normal;line-height:100%;font-family:'Nimbus Sans';-inkscape-font-specification:'Nimbus Sans Bold';text-align:center;text-anchor:middle;fill:#ffffff;fill-opacity:1"
         d="m 484.09534,277.453 c -0.024,-3.624 -2.448,-5.616 -6.864,-5.616 -4.2,0 -6.624,1.968 -6.624,5.376 0,2.712 1.368,4.032 4.92,4.704 l 2.448,0.48 c 2.4,0.456 3.288,1.128 3.288,2.544 0,1.464 -1.344,2.352 -3.528,2.352 -2.448,0 -3.816,-1.032 -3.936,-2.904 h -3.504 c 0.216,3.744 2.784,5.784 7.248,5.784 4.512,0 7.176,-2.088 7.176,-5.664 0,-2.76 -1.392,-4.2 -4.632,-4.824 l -2.736,-0.528 c -2.568,-0.504 -3.312,-1.008 -3.312,-2.28 0,-1.32 1.152,-2.16 3.024,-2.16 2.28,0 3.552,0.96 3.672,2.736 z" />
      <path
         id="path1761"
         style="font-style:normal;font-variant:normal;font-weight:bold;font-stretch:normal;line-height:100%;font-family:'Nimbus Sans';-inkscape-font-specification:'Nimbus Sans Bold';text-align:center;text-anchor:middle;fill:#ffffff;fill-opacity:1"
         d="m 491.05459,282.085 h 8.376 v -3 h -8.376 v -3.96 h 9.048 v -3 h -12.648 v 17.496 h 13.08 v -3 h -9.48 z" />
      <path
         id="path1763"
         style="font-style:normal;font-variant:normal;font-weight:bold;font-stretch:normal;line-height:100%;font-family:'Nimbus Sans';-inkscape-font-specification:'Nimbus Sans Bold';text-align:center;text-anchor:middle;fill:#ffffff;fill-opacity:1"
         d="m 525.31009,280.213 h -7.008 v 3 h 3.984 c -0.096,0.984 -0.336,1.584 -0.864,2.208 -0.864,1.056 -2.208,1.68 -3.576,1.68 -2.928,0 -4.992,-2.544 -4.992,-6.144 0,-3.768 1.824,-6.048 4.896,-6.048 1.248,0 2.304,0.36 3.096,1.056 0.504,0.432 0.768,0.84 1.08,1.752 h 3.384 c -0.432,-3.624 -3.36,-5.88 -7.584,-5.88 -5.04,0 -8.472,3.72 -8.472,9.168 0,5.304 3.456,9.168 8.184,9.168 2.352,0 3.936,-0.84 5.28,-2.808 l 0.432,2.304 h 2.16 z" />
      <path
         id="path1765"
         style="font-style:normal;font-variant:normal;font-weight:bold;font-stretch:normal;line-height:100%;font-family:'Nimbus Sans';-inkscape-font-specification:'Nimbus Sans Bold';text-align:center;text-anchor:middle;fill:#ffffff;fill-opacity:1"
         d="m 532.39834,282.085 h 8.376 v -3 h -8.376 v -3.96 h 9.048 v -3 h -12.648 v 17.496 h 13.08 v -3 h -9.48 z" />
      <path
         id="path1767"
         style="font-style:normal;font-variant:normal;font-weight:bold;font-stretch:normal;line-height:100%;font-family:'Nimbus Sans';-inkscape-font-specification:'Nimbus Sans Bold';text-align:center;text-anchor:middle;fill:#ffffff;fill-opacity:1"
         d="m 555.10159,281.677 v 7.944 h 3.6 v -17.496 h -3.624 v 6.552 h -6.912 v -6.552 h -3.6 v 17.496 h 3.6 v -7.944 z" />
      <path
         id="path1769"
         style="font-style:normal;font-variant:normal;font-weight:bold;font-stretch:normal;line-height:100%;font-family:'Nimbus Sans';-inkscape-font-specification:'Nimbus Sans Bold';text-align:center;text-anchor:middle;fill:#ffffff;fill-opacity:1"
         d="m 565.77334,282.085 h 8.376 v -3 h -8.376 v -3.96 h 9.048 v -3 h -12.648 v 17.496 h 13.08 v -3 h -9.48 z" />
      <path
         id="path1771"
         style="font-style:normal;font-variant:normal;font-weight:bold;font-stretch:normal;line-height:100%;font-family:'Nimbus Sans';-inkscape-font-specification:'Nimbus Sans Bold';text-align:center;text-anchor:middle;fill:#ffffff;fill-opacity:1"
         d="m 588.57259,289.621 h 3.6 v -17.496 h -3.6 v 11.904 l -6.936,-11.904 h -3.696 v 17.496 h 3.6 v -12.096 z" />
      <path
         id="path1773"
         style="font-style:normal;font-variant:normal;font-weight:bold;font-stretch:normal;line-height:100%;font-family:'Nimbus Sans';-inkscape-font-specification:'Nimbus Sans Bold';text-align:center;text-anchor:middle;fill:#ffffff;fill-opacity:1"
         d="m 599.94034,272.197 h -3.6 v 5.04 l 0.984,7.416 h 1.608 l 1.008,-7.416 z m 0,13.92 h -3.6 v 3.504 h 3.6 z" />
    </g>
    <path
       id="path4658"
       d="M 29.707107,2.3928955 1.7071068,30.392895"
       style="fill:none;fill-rule:evenodd;stroke:#ff0dbf;stroke-width:2;stroke-linecap:butt;stroke-linejoin:miter;stroke-miterlimit:4;stroke-dasharray:none;stroke-opacity:1" />
  </g>
</svg>
