<?xml version="1.0" encoding="UTF-8" standalone="no"?>
<svg
   xmlns:dc="http://purl.org/dc/elements/1.1/"
   xmlns:cc="http://creativecommons.org/ns#"
   xmlns:rdf="http://www.w3.org/1999/02/22-rdf-syntax-ns#"
   xmlns:svg="http://www.w3.org/2000/svg"
   xmlns="http://www.w3.org/2000/svg"
   xmlns:sodipodi="http://sodipodi.sourceforge.net/DTD/sodipodi-0.dtd"
   xmlns:inkscape="http://www.inkscape.org/namespaces/inkscape"
   id="svg8"
   version="1.1"
   viewBox="0 0 100 100"
   height="100mm"
   width="100mm"
   sodipodi:docname="bg_de.svg"
   inkscape:version="0.92.2 2405546, 2018-03-11">
  <sodipodi:namedview
     pagecolor="#ffffff"
     bordercolor="#666666"
     borderopacity="1"
     objecttolerance="10"
     gridtolerance="10"
     guidetolerance="10"
     inkscape:pageopacity="0"
     inkscape:pageshadow="2"
     inkscape:window-width="1366"
     inkscape:window-height="704"
     id="namedview950"
     showgrid="true"
     inkscape:zoom="1.4142136"
     inkscape:cx="125.67967"
     inkscape:cy="220.54982"
     inkscape:window-x="0"
     inkscape:window-y="27"
     inkscape:window-maximized="1"
     inkscape:current-layer="layer3">
    <inkscape:grid
       type="axonomgrid"
       id="grid952"
       units="mm"
       empspacing="5"
       gridanglex="45"
       gridanglez="45"
       spacingy="0.099999999" />
  </sodipodi:namedview>
  <defs
     id="defs2" />
  <metadata
     id="metadata5">
    <rdf:RDF>
      <cc:Work
         rdf:about="">
        <dc:format>image/svg+xml</dc:format>
        <dc:type
           rdf:resource="http://purl.org/dc/dcmitype/StillImage" />
        <dc:title></dc:title>
      </cc:Work>
    </rdf:RDF>
  </metadata>
  <g
     inkscape:groupmode="layer"
     id="layer2"
     inkscape:label="background">
    <path
       style="fill:none;fill-rule:evenodd;stroke:#ff0dbf;stroke-width:6.22525024;stroke-linecap:butt;stroke-linejoin:miter;stroke-miterlimit:4;stroke-dasharray:none;stroke-opacity:1"
       d="M 6.5001163,70.398199 70.716883,6.2305411"
       id="path4797-3"
       inkscape:connector-curvature="0" />
    <path
       inkscape:connector-curvature="0"
       id="path5675"
       style="font-style:normal;font-variant:normal;font-weight:normal;font-stretch:normal;font-size:medium;line-height:100%;font-family:'Nimbus Sans';-inkscape-font-specification:'Nimbus Sans';font-variant-ligatures:normal;font-variant-caps:normal;font-variant-numeric:normal;text-align:center;letter-spacing:0px;word-spacing:0px;writing-mode:lr-tb;text-anchor:middle;fill:#000000;fill-opacity:1;stroke:none;stroke-width:0.14589423px;stroke-linecap:butt;stroke-linejoin:miter;stroke-opacity:1"
       d="m 51.999999,8.5000002 0.257495,0.2575 0.148554,-0.14856 0.04457,0.0446 c 0.170837,0.17084 0.188169,0.25254 0.07675,0.37386 l 0.09408,0.0941 c 0.168362,-0.15846 0.146079,-0.37387 -0.06437,-0.58432 l -0.297109,-0.29711 z" />
  </g>
  <g
     inkscape:groupmode="layer"
     id="layer3"
     inkscape:label="foreground">
    <g
       aria-label="ZENSUR?"
       transform="matrix(0.23310363,-0.23310363,0.23310363,0.23310363,-20.311973,13.09306)"
       style="font-style:normal;font-variant:normal;font-weight:normal;font-stretch:normal;font-size:24px;line-height:0px;font-family:Montserrat;-inkscape-font-specification:'Montserrat, Normal';font-variant-ligatures:normal;font-variant-caps:normal;font-variant-numeric:normal;text-align:start;letter-spacing:0px;word-spacing:0px;writing-mode:lr-tb;text-anchor:start;fill:#000000;fill-opacity:1;stroke:none;stroke-width:1px;stroke-linecap:butt;stroke-linejoin:miter;stroke-opacity:1"
       id="flowRoot819">
      <path
         inkscape:connector-curvature="0"
         d="M 28.989187,75.589844 H 15.837188 v 3 h 8.951999 l -8.951999,11.496 v 3 h 13.151999 v -3 h -8.927999 l 8.927999,-11.496 z"
         style="font-style:normal;font-variant:normal;font-weight:bold;font-stretch:normal;line-height:100%;font-family:'nimbus sans';-inkscape-font-specification:'nimbus sans Bold'"
         id="path1517" />
      <path
         inkscape:connector-curvature="0"
         d="m 35.097563,85.549844 h 8.375999 v -3 h -8.375999 v -3.96 h 9.047999 v -3 h -12.648 v 17.496 h 13.08 v -3 h -9.479999 z"
         style="font-style:normal;font-variant:normal;font-weight:bold;font-stretch:normal;line-height:100%;font-family:'nimbus sans';-inkscape-font-specification:'nimbus sans Bold'"
         id="path1519" />
      <path
         inkscape:connector-curvature="0"
         d="m 57.896812,93.085844 h 3.600001 v -17.496 h -3.600001 v 11.904 l -6.935999,-11.904 h -3.696001 v 17.496 h 3.6 v -12.096 z"
         style="font-style:normal;font-variant:normal;font-weight:bold;font-stretch:normal;line-height:100%;font-family:'nimbus sans';-inkscape-font-specification:'nimbus sans Bold'"
         id="path1521" />
      <path
         inkscape:connector-curvature="0"
         d="m 77.544562,80.917844 c -0.024,-3.624 -2.447999,-5.616 -6.863999,-5.616 -4.2,0 -6.624001,1.968 -6.624001,5.376 0,2.712 1.368001,4.032 4.92,4.704 l 2.448001,0.48 c 2.399999,0.456 3.288,1.128 3.288,2.544 0,1.464 -1.344001,2.352 -3.528001,2.352 -2.447999,0 -3.816,-1.032 -3.935999,-2.904 h -3.504001 c 0.216001,3.744 2.784,5.784 7.248001,5.784 4.512,0 7.176,-2.088 7.176,-5.664 0,-2.76 -1.392001,-4.2 -4.632,-4.824 l -2.736001,-0.528 c -2.568,-0.504 -3.312,-1.008 -3.312,-2.28 0,-1.32 1.152001,-2.16 3.024001,-2.16 2.28,0 3.551999,0.96 3.671999,2.736 z"
         style="font-style:normal;font-variant:normal;font-weight:bold;font-stretch:normal;line-height:100%;font-family:'nimbus sans';-inkscape-font-specification:'nimbus sans Bold'"
         id="path1523" />
      <path
         inkscape:connector-curvature="0"
         d="m 91.103813,75.589844 v 11.856 c 0,2.112 -1.08,3.12 -3.336,3.12 -2.256,0 -3.336,-1.008 -3.336,-3.12 v -11.856 h -3.600001 v 11.856 c 0,1.968 0.528001,3.36 1.704001,4.416 1.271999,1.152 3.119999,1.776 5.232,1.776 2.111999,0 3.959999,-0.624 5.232,-1.776 1.176,-1.056 1.703999,-2.448 1.703999,-4.416 v -11.856 z"
         style="font-style:normal;font-variant:normal;font-weight:bold;font-stretch:normal;line-height:100%;font-family:'nimbus sans';-inkscape-font-specification:'nimbus sans Bold'"
         id="path1525" />
      <path
         inkscape:connector-curvature="0"
         d="m 101.87156,86.149844 h 4.128 c 1.56,0 2.232,0.624 2.232,2.064 v 0.72 c -0.024,0.456 -0.024,0.888 -0.024,1.152 0,1.656 0.096,2.16 0.528,3 h 3.864 v -0.648 c -0.552,-0.312 -0.768,-0.672 -0.768,-1.44 -0.096,-5.16 -0.192,-5.4 -2.424,-6.36 1.968,-0.768 2.952,-2.184 2.952,-4.32 0,-1.392 -0.48,-2.664 -1.32,-3.528 -0.792,-0.816 -1.896,-1.2 -3.384,-1.2 h -9.383997 v 17.496 h 3.599997 z m 0,-3 v -4.56 h 4.344 c 1.032,0 1.44,0.096 1.896,0.456 0.432,0.36 0.648,0.96 0.648,1.776 0,0.84 -0.216,1.512 -0.648,1.872 -0.408,0.336 -0.864,0.456 -1.896,0.456 z"
         style="font-style:normal;font-variant:normal;font-weight:bold;font-stretch:normal;line-height:100%;font-family:'nimbus sans';-inkscape-font-specification:'nimbus sans Bold'"
         id="path1527" />
      <path
         inkscape:connector-curvature="0"
         d="m 122.55131,88.261844 c 0,-1.584 0.168,-1.848 1.608,-2.856 2.232,-1.584 2.88,-2.64 2.88,-4.656 0,-3.264 -2.448,-5.52 -5.976,-5.52 -2.064,0 -3.672,0.72 -4.704,2.136 -0.792,1.056 -1.104,2.208 -1.128,4.176 h 3.264 c 0,-2.16 1.008,-3.48 2.664,-3.48 1.416,0 2.496,1.176 2.496,2.76 0,1.08 -0.288,1.536 -1.68,2.688 -1.92,1.632 -2.472,2.712 -2.4,4.752 z m 0.384,1.32 h -3.6 v 3.504 h 3.6 z"
         style="font-style:normal;font-variant:normal;font-weight:bold;font-stretch:normal;line-height:100%;font-family:'nimbus sans';-inkscape-font-specification:'nimbus sans Bold'"
         id="path1529" />
    </g>
    <g
       aria-label="Die EU-Urheberrechtsreform würde alle Internetplattformen dazu zwingen Zensurfilter zu installieren."
       transform="matrix(0.12022463,-0.12022538,0.12022463,0.12022538,-23.142637,38.071586)"
       style="font-style:normal;font-variant:normal;font-weight:normal;font-stretch:normal;font-size:24px;line-height:0px;font-family:Montserrat;-inkscape-font-specification:'Montserrat, Normal';font-variant-ligatures:normal;font-variant-caps:normal;font-variant-numeric:normal;text-align:center;letter-spacing:0px;word-spacing:0px;writing-mode:lr-tb;text-anchor:middle;fill:#000000;fill-opacity:1;stroke:none;stroke-width:1px;stroke-linecap:butt;stroke-linejoin:miter;stroke-opacity:1"
       id="flowRoot827">
      <path
         inkscape:connector-curvature="0"
         d="m 49.631117,168.67764 h 6.744 c 4.416,0 7.128,-3.312 7.128,-8.76 0,-5.424 -2.688,-8.736 -7.128,-8.736 h -6.744 z m 2.232,-1.968 v -13.56 h 4.128 c 3.456,0 5.28,2.328 5.28,6.792 0,4.44 -1.824,6.768 -5.28,6.768 z"
         style="font-style:normal;font-variant:normal;font-weight:normal;font-stretch:normal;line-height:100%;font-family:'Nimbus Sans';-inkscape-font-specification:'Nimbus Sans';text-align:center;text-anchor:middle"
         id="path1532" />
      <path
         inkscape:connector-curvature="0"
         d="m 68.438867,156.10164 h -1.992 v 12.576 h 1.992 z m 0,-4.92 h -2.016 v 2.52 h 2.016 z"
         style="font-style:normal;font-variant:normal;font-weight:normal;font-stretch:normal;line-height:100%;font-family:'Nimbus Sans';-inkscape-font-specification:'Nimbus Sans';text-align:center;text-anchor:middle"
         id="path1534" />
      <path
         inkscape:connector-curvature="0"
         d="m 82.494617,163.06164 c 0,-1.92 -0.144,-3.072 -0.504,-4.008 -0.816,-2.064 -2.736,-3.312 -5.088,-3.312 -3.504,0 -5.76,2.664 -5.76,6.816 0,4.152 2.16,6.672 5.712,6.672 2.88,0 4.872,-1.632 5.376,-4.368 h -2.016 c -0.552,1.656 -1.68,2.52 -3.288,2.52 -1.272,0 -2.352,-0.576 -3.024,-1.632 -0.48,-0.72 -0.648,-1.44 -0.672,-2.688 z m -9.216,-1.632 c 0.168,-2.328 1.584,-3.84 3.6,-3.84 2.04,0 3.456,1.584 3.456,3.84 z"
         style="font-style:normal;font-variant:normal;font-weight:normal;font-stretch:normal;line-height:100%;font-family:'Nimbus Sans';-inkscape-font-specification:'Nimbus Sans';text-align:center;text-anchor:middle"
         id="path1536" />
      <path
         inkscape:connector-curvature="0"
         d="m 94.590242,160.70964 h 9.527998 v -1.968 h -9.527998 v -5.592 h 9.887998 v -1.968 H 92.358242 v 17.496 h 12.551998 v -1.968 H 94.590242 Z"
         style="font-style:normal;font-variant:normal;font-weight:normal;font-stretch:normal;line-height:100%;font-family:'Nimbus Sans';-inkscape-font-specification:'Nimbus Sans';text-align:center;text-anchor:middle"
         id="path1538" />
      <path
         inkscape:connector-curvature="0"
         d="m 119.47749,151.18164 v 12.288 c 0,2.352 -1.704,3.792 -4.512,3.792 -1.296,0 -2.352,-0.312 -3.192,-0.912 -0.864,-0.672 -1.272,-1.56 -1.272,-2.88 v -12.288 h -2.232 v 12.288 c 0,3.552 2.544,5.76 6.696,5.76 4.104,0 6.744,-2.256 6.744,-5.76 v -12.288 z"
         style="font-style:normal;font-variant:normal;font-weight:normal;font-stretch:normal;line-height:100%;font-family:'Nimbus Sans';-inkscape-font-specification:'Nimbus Sans';text-align:center;text-anchor:middle"
         id="path1540" />
      <path
         inkscape:connector-curvature="0"
         d="m 130.38924,161.18964 h -5.712 v 1.728 h 5.712 z"
         style="font-style:normal;font-variant:normal;font-weight:normal;font-stretch:normal;line-height:100%;font-family:'Nimbus Sans';-inkscape-font-specification:'Nimbus Sans';text-align:center;text-anchor:middle"
         id="path1542" />
      <path
         inkscape:connector-curvature="0"
         d="m 144.83687,151.18164 v 12.288 c 0,2.352 -1.704,3.792 -4.512,3.792 -1.296,0 -2.352,-0.312 -3.192,-0.912 -0.864,-0.672 -1.272,-1.56 -1.272,-2.88 v -12.288 h -2.232 v 12.288 c 0,3.552 2.544,5.76 6.696,5.76 4.104,0 6.744,-2.256 6.744,-5.76 v -12.288 z"
         style="font-style:normal;font-variant:normal;font-weight:normal;font-stretch:normal;line-height:100%;font-family:'Nimbus Sans';-inkscape-font-specification:'Nimbus Sans';text-align:center;text-anchor:middle"
         id="path1544" />
      <path
         inkscape:connector-curvature="0"
         d="m 150.44799,156.10164 v 12.576 h 2.016 v -6.528 c 0.024,-3.024 1.272,-4.368 4.032,-4.296 v -2.04 c -0.336,-0.048 -0.528,-0.072 -0.768,-0.072 -1.296,0 -2.28,0.768 -3.432,2.64 v -2.28 z"
         style="font-style:normal;font-variant:normal;font-weight:normal;font-stretch:normal;line-height:100%;font-family:'Nimbus Sans';-inkscape-font-specification:'Nimbus Sans';text-align:center;text-anchor:middle"
         id="path1546" />
      <path
         inkscape:connector-curvature="0"
         d="m 158.48762,151.18164 v 17.496 h 1.992 v -6.936 c 0,-2.568 1.344,-4.248 3.408,-4.248 0.672,0 1.296,0.192 1.776,0.552 0.576,0.432 0.816,1.032 0.816,1.92 v 8.712 h 1.992 v -9.504 c 0,-2.112 -1.512,-3.432 -3.96,-3.432 -1.776,0 -2.856,0.552 -4.032,2.088 v -6.648 z"
         style="font-style:normal;font-variant:normal;font-weight:normal;font-stretch:normal;line-height:100%;font-family:'Nimbus Sans';-inkscape-font-specification:'Nimbus Sans';text-align:center;text-anchor:middle"
         id="path1548" />
      <path
         inkscape:connector-curvature="0"
         d="m 182.47899,163.06164 c 0,-1.92 -0.144,-3.072 -0.504,-4.008 -0.816,-2.064 -2.736,-3.312 -5.088,-3.312 -3.504,0 -5.76,2.664 -5.76,6.816 0,4.152 2.16,6.672 5.712,6.672 2.88,0 4.872,-1.632 5.376,-4.368 h -2.016 c -0.552,1.656 -1.68,2.52 -3.288,2.52 -1.272,0 -2.352,-0.576 -3.024,-1.632 -0.48,-0.72 -0.648,-1.44 -0.672,-2.688 z m -9.216,-1.632 c 0.168,-2.328 1.584,-3.84 3.6,-3.84 2.04,0 3.456,1.584 3.456,3.84 z"
         style="font-style:normal;font-variant:normal;font-weight:normal;font-stretch:normal;line-height:100%;font-family:'Nimbus Sans';-inkscape-font-specification:'Nimbus Sans';text-align:center;text-anchor:middle"
         id="path1550" />
      <path
         inkscape:connector-curvature="0"
         d="m 184.86924,151.18164 v 17.496 h 1.8 v -1.608 c 0.96,1.464 2.232,2.16 3.984,2.16 3.312,0 5.472,-2.712 5.472,-6.888 0,-4.08 -2.04,-6.6 -5.376,-6.6 -1.728,0 -2.952,0.648 -3.888,2.064 v -6.624 z m 5.496,6.432 c 2.232,0 3.672,1.944 3.672,4.944 0,2.856 -1.488,4.8 -3.672,4.8 -2.136,0 -3.504,-1.92 -3.504,-4.872 0,-2.952 1.368,-4.872 3.504,-4.872 z"
         style="font-style:normal;font-variant:normal;font-weight:normal;font-stretch:normal;line-height:100%;font-family:'Nimbus Sans';-inkscape-font-specification:'Nimbus Sans';text-align:center;text-anchor:middle"
         id="path1552" />
      <path
         inkscape:connector-curvature="0"
         d="m 209.24462,163.06164 c 0,-1.92 -0.144,-3.072 -0.504,-4.008 -0.816,-2.064 -2.736,-3.312 -5.088,-3.312 -3.504,0 -5.76,2.664 -5.76,6.816 0,4.152 2.16,6.672 5.712,6.672 2.88,0 4.872,-1.632 5.376,-4.368 h -2.016 c -0.552,1.656 -1.68,2.52 -3.288,2.52 -1.272,0 -2.352,-0.576 -3.024,-1.632 -0.48,-0.72 -0.648,-1.44 -0.672,-2.688 z m -9.216,-1.632 c 0.168,-2.328 1.584,-3.84 3.6,-3.84 2.04,0 3.456,1.584 3.456,3.84 z"
         style="font-style:normal;font-variant:normal;font-weight:normal;font-stretch:normal;line-height:100%;font-family:'Nimbus Sans';-inkscape-font-specification:'Nimbus Sans';text-align:center;text-anchor:middle"
         id="path1554" />
      <path
         inkscape:connector-curvature="0"
         d="m 211.94799,156.10164 v 12.576 h 2.016 v -6.528 c 0.024,-3.024 1.272,-4.368 4.032,-4.296 v -2.04 c -0.336,-0.048 -0.528,-0.072 -0.768,-0.072 -1.296,0 -2.28,0.768 -3.432,2.64 v -2.28 z"
         style="font-style:normal;font-variant:normal;font-weight:normal;font-stretch:normal;line-height:100%;font-family:'Nimbus Sans';-inkscape-font-specification:'Nimbus Sans';text-align:center;text-anchor:middle"
         id="path1556" />
      <path
         inkscape:connector-curvature="0"
         d="m 219.96362,156.10164 v 12.576 h 2.016 v -6.528 c 0.024,-3.024 1.272,-4.368 4.032,-4.296 v -2.04 c -0.336,-0.048 -0.528,-0.072 -0.768,-0.072 -1.296,0 -2.28,0.768 -3.432,2.64 v -2.28 z"
         style="font-style:normal;font-variant:normal;font-weight:normal;font-stretch:normal;line-height:100%;font-family:'Nimbus Sans';-inkscape-font-specification:'Nimbus Sans';text-align:center;text-anchor:middle"
         id="path1558" />
      <path
         inkscape:connector-curvature="0"
         d="m 238.40087,163.06164 c 0,-1.92 -0.144,-3.072 -0.504,-4.008 -0.816,-2.064 -2.736,-3.312 -5.088,-3.312 -3.504,0 -5.76,2.664 -5.76,6.816 0,4.152 2.16,6.672 5.712,6.672 2.88,0 4.872,-1.632 5.376,-4.368 h -2.016 c -0.552,1.656 -1.68,2.52 -3.288,2.52 -1.272,0 -2.352,-0.576 -3.024,-1.632 -0.48,-0.72 -0.648,-1.44 -0.672,-2.688 z m -9.216,-1.632 c 0.168,-2.328 1.584,-3.84 3.6,-3.84 2.04,0 3.456,1.584 3.456,3.84 z"
         style="font-style:normal;font-variant:normal;font-weight:normal;font-stretch:normal;line-height:100%;font-family:'Nimbus Sans';-inkscape-font-specification:'Nimbus Sans';text-align:center;text-anchor:middle"
         id="path1560" />
      <path
         inkscape:connector-curvature="0"
         d="m 250.75224,160.32564 c -0.096,-1.224 -0.36,-2.016 -0.84,-2.712 -0.864,-1.176 -2.376,-1.872 -4.128,-1.872 -3.408,0 -5.592,2.688 -5.592,6.864 0,4.056 2.16,6.624 5.568,6.624 3,0 4.896,-1.8 5.136,-4.872 h -2.016 c -0.336,2.016 -1.368,3.024 -3.072,3.024 -2.208,0 -3.528,-1.8 -3.528,-4.776 0,-3.144 1.296,-5.016 3.48,-5.016 1.68,0 2.736,0.984 2.976,2.736 z"
         style="font-style:normal;font-variant:normal;font-weight:normal;font-stretch:normal;line-height:100%;font-family:'Nimbus Sans';-inkscape-font-specification:'Nimbus Sans';text-align:center;text-anchor:middle"
         id="path1562" />
      <path
         inkscape:connector-curvature="0"
         d="m 253.12824,151.18164 v 17.496 h 1.992 v -6.936 c 0,-2.568 1.344,-4.248 3.408,-4.248 0.672,0 1.296,0.192 1.776,0.552 0.576,0.432 0.816,1.032 0.816,1.92 v 8.712 h 1.992 v -9.504 c 0,-2.112 -1.512,-3.432 -3.96,-3.432 -1.776,0 -2.856,0.552 -4.032,2.088 v -6.648 z"
         style="font-style:normal;font-variant:normal;font-weight:normal;font-stretch:normal;line-height:100%;font-family:'Nimbus Sans';-inkscape-font-specification:'Nimbus Sans';text-align:center;text-anchor:middle"
         id="path1564" />
      <path
         inkscape:connector-curvature="0"
         d="m 270.90362,156.10164 h -2.064 v -3.456 h -1.992 v 3.456 h -1.704 v 1.632 h 1.704 v 9.504 c 0,1.296 0.864,1.992 2.424,1.992 0.528,0 0.96,-0.048 1.632,-0.168 v -1.68 c -0.288,0.072 -0.552,0.096 -0.96,0.096 -0.864,0 -1.104,-0.24 -1.104,-1.128 v -8.616 h 2.064 z"
         style="font-style:normal;font-variant:normal;font-weight:normal;font-stretch:normal;line-height:100%;font-family:'Nimbus Sans';-inkscape-font-specification:'Nimbus Sans';text-align:center;text-anchor:middle"
         id="path1566" />
      <path
         inkscape:connector-curvature="0"
         d="m 281.97587,159.60564 c -0.024,-2.472 -1.656,-3.864 -4.56,-3.864 -2.928,0 -4.824,1.512 -4.824,3.84 0,1.968 1.008,2.904 3.984,3.624 l 1.872,0.456 c 1.392,0.336 1.944,0.84 1.944,1.728 0,1.2 -1.176,1.992 -2.928,1.992 -1.08,0 -1.992,-0.312 -2.496,-0.84 -0.312,-0.36 -0.456,-0.72 -0.576,-1.608 h -2.112 c 0.096,2.904 1.728,4.296 5.016,4.296 3.168,0 5.184,-1.56 5.184,-3.984 0,-1.872 -1.056,-2.904 -3.552,-3.504 l -1.92,-0.456 c -1.632,-0.384 -2.328,-0.912 -2.328,-1.8 0,-1.176 1.032,-1.896 2.664,-1.896 1.608,0 2.472,0.696 2.52,2.016 z"
         style="font-style:normal;font-variant:normal;font-weight:normal;font-stretch:normal;line-height:100%;font-family:'Nimbus Sans';-inkscape-font-specification:'Nimbus Sans';text-align:center;text-anchor:middle"
         id="path1568" />
      <path
         inkscape:connector-curvature="0"
         d="m 285.11987,156.10164 v 12.576 h 2.016 v -6.528 c 0.024,-3.024 1.272,-4.368 4.032,-4.296 v -2.04 c -0.336,-0.048 -0.528,-0.072 -0.768,-0.072 -1.296,0 -2.28,0.768 -3.432,2.64 v -2.28 z"
         style="font-style:normal;font-variant:normal;font-weight:normal;font-stretch:normal;line-height:100%;font-family:'Nimbus Sans';-inkscape-font-specification:'Nimbus Sans';text-align:center;text-anchor:middle"
         id="path1570" />
      <path
         inkscape:connector-curvature="0"
         d="m 303.55712,163.06164 c 0,-1.92 -0.144,-3.072 -0.504,-4.008 -0.816,-2.064 -2.736,-3.312 -5.088,-3.312 -3.504,0 -5.76,2.664 -5.76,6.816 0,4.152 2.16,6.672 5.712,6.672 2.88,0 4.872,-1.632 5.376,-4.368 h -2.016 c -0.552,1.656 -1.68,2.52 -3.288,2.52 -1.272,0 -2.352,-0.576 -3.024,-1.632 -0.48,-0.72 -0.648,-1.44 -0.672,-2.688 z m -9.216,-1.632 c 0.168,-2.328 1.584,-3.84 3.6,-3.84 2.04,0 3.456,1.584 3.456,3.84 z"
         style="font-style:normal;font-variant:normal;font-weight:normal;font-stretch:normal;line-height:100%;font-family:'Nimbus Sans';-inkscape-font-specification:'Nimbus Sans';text-align:center;text-anchor:middle"
         id="path1572" />
      <path
         inkscape:connector-curvature="0"
         d="m 310.56212,156.10164 h -2.088 v -1.968 c 0,-0.84 0.456,-1.272 1.392,-1.272 0.168,0 0.24,0 0.696,0.024 v -1.656 c -0.456,-0.096 -0.72,-0.12 -1.128,-0.12 -1.848,0 -2.952,1.056 -2.952,2.856 v 2.136 h -1.68 v 1.632 h 1.68 v 10.944 h 1.992 v -10.944 h 2.088 z"
         style="font-style:normal;font-variant:normal;font-weight:normal;font-stretch:normal;line-height:100%;font-family:'Nimbus Sans';-inkscape-font-specification:'Nimbus Sans';text-align:center;text-anchor:middle"
         id="path1574" />
      <path
         inkscape:connector-curvature="0"
         d="m 317.31999,155.74164 c -3.552,0 -5.664,2.52 -5.664,6.744 0,4.248 2.112,6.744 5.688,6.744 3.552,0 5.688,-2.52 5.688,-6.648 0,-4.368 -2.064,-6.84 -5.712,-6.84 z m 0.024,1.848 c 2.256,0 3.6,1.848 3.6,4.968 0,2.976 -1.392,4.824 -3.6,4.824 -2.232,0 -3.6,-1.848 -3.6,-4.896 0,-3.048 1.368,-4.896 3.6,-4.896 z"
         style="font-style:normal;font-variant:normal;font-weight:normal;font-stretch:normal;line-height:100%;font-family:'Nimbus Sans';-inkscape-font-specification:'Nimbus Sans';text-align:center;text-anchor:middle"
         id="path1576" />
      <path
         inkscape:connector-curvature="0"
         d="m 325.80737,156.10164 v 12.576 h 2.016 v -6.528 c 0.024,-3.024 1.272,-4.368 4.032,-4.296 v -2.04 c -0.336,-0.048 -0.528,-0.072 -0.768,-0.072 -1.296,0 -2.28,0.768 -3.432,2.64 v -2.28 z"
         style="font-style:normal;font-variant:normal;font-weight:normal;font-stretch:normal;line-height:100%;font-family:'Nimbus Sans';-inkscape-font-specification:'Nimbus Sans';text-align:center;text-anchor:middle"
         id="path1578" />
      <path
         inkscape:connector-curvature="0"
         d="m 333.84699,156.10164 v 12.576 h 2.016 v -7.896 c 0,-1.824 1.32,-3.288 2.952,-3.288 1.488,0 2.328,0.912 2.328,2.52 v 8.664 h 2.016 v -7.896 c 0,-1.824 1.32,-3.288 2.952,-3.288 1.464,0 2.328,0.936 2.328,2.52 v 8.664 h 2.016 v -9.432 c 0,-2.256 -1.296,-3.504 -3.648,-3.504 -1.68,0 -2.688,0.504 -3.864,1.92 -0.744,-1.344 -1.752,-1.92 -3.384,-1.92 -1.68,0 -2.808,0.624 -3.864,2.136 v -1.776 z"
         style="font-style:normal;font-variant:normal;font-weight:normal;font-stretch:normal;line-height:100%;font-family:'Nimbus Sans';-inkscape-font-specification:'Nimbus Sans';text-align:center;text-anchor:middle"
         id="path1580" />
      <path
         inkscape:connector-curvature="0"
         d="m 372.13487,168.67764 3.696,-12.576 h -2.256 l -2.496,9.792 -2.472,-9.792 h -2.448 l -2.4,9.792 -2.568,-9.792 h -2.208 l 3.648,12.576 h 2.256 l 2.424,-9.864 2.544,9.864 z"
         style="font-style:normal;font-variant:normal;font-weight:normal;font-stretch:normal;line-height:100%;font-family:'Nimbus Sans';-inkscape-font-specification:'Nimbus Sans';text-align:center;text-anchor:middle"
         id="path1582" />
      <path
         inkscape:connector-curvature="0"
         d="m 387.79749,168.67764 v -12.576 h -1.992 v 7.128 c 0,2.568 -1.344,4.248 -3.432,4.248 -1.584,0 -2.592,-0.96 -2.592,-2.472 v -8.904 h -1.992 v 9.696 c 0,2.088 1.56,3.432 4.008,3.432 1.848,0 3.024,-0.648 4.2,-2.304 v 1.752 z m -5.688,-17.16 h -2.496 v 2.472 h 2.496 z m 3.888,0 h -2.496 v 2.472 h 2.496 z"
         style="font-style:normal;font-variant:normal;font-weight:normal;font-stretch:normal;line-height:100%;font-family:'Nimbus Sans';-inkscape-font-specification:'Nimbus Sans';text-align:center;text-anchor:middle"
         id="path1584" />
      <path
         inkscape:connector-curvature="0"
         d="m 391.24487,156.10164 v 12.576 h 2.016 v -6.528 c 0.024,-3.024 1.272,-4.368 4.032,-4.296 v -2.04 c -0.336,-0.048 -0.528,-0.072 -0.768,-0.072 -1.296,0 -2.28,0.768 -3.432,2.64 v -2.28 z"
         style="font-style:normal;font-variant:normal;font-weight:normal;font-stretch:normal;line-height:100%;font-family:'Nimbus Sans';-inkscape-font-specification:'Nimbus Sans';text-align:center;text-anchor:middle"
         id="path1586" />
      <path
         inkscape:connector-curvature="0"
         d="m 409.43762,151.18164 h -1.992 v 6.504 c -0.84,-1.272 -2.184,-1.944 -3.864,-1.944 -3.264,0 -5.4,2.616 -5.4,6.624 0,4.248 2.064,6.864 5.472,6.864 1.728,0 2.928,-0.648 4.008,-2.208 v 1.656 h 1.776 z m -5.52,6.432 c 2.16,0 3.528,1.896 3.528,4.92 0,2.904 -1.392,4.824 -3.504,4.824 -2.208,0 -3.672,-1.944 -3.672,-4.872 0,-2.928 1.464,-4.872 3.648,-4.872 z"
         style="font-style:normal;font-variant:normal;font-weight:normal;font-stretch:normal;line-height:100%;font-family:'Nimbus Sans';-inkscape-font-specification:'Nimbus Sans';text-align:center;text-anchor:middle"
         id="path1588" />
      <path
         inkscape:connector-curvature="0"
         d="m 423.22899,163.06164 c 0,-1.92 -0.144,-3.072 -0.504,-4.008 -0.816,-2.064 -2.736,-3.312 -5.088,-3.312 -3.504,0 -5.76,2.664 -5.76,6.816 0,4.152 2.16,6.672 5.712,6.672 2.88,0 4.872,-1.632 5.376,-4.368 h -2.016 c -0.552,1.656 -1.68,2.52 -3.288,2.52 -1.272,0 -2.352,-0.576 -3.024,-1.632 -0.48,-0.72 -0.648,-1.44 -0.672,-2.688 z m -9.216,-1.632 c 0.168,-2.328 1.584,-3.84 3.6,-3.84 2.04,0 3.456,1.584 3.456,3.84 z"
         style="font-style:normal;font-variant:normal;font-weight:normal;font-stretch:normal;line-height:100%;font-family:'Nimbus Sans';-inkscape-font-specification:'Nimbus Sans';text-align:center;text-anchor:middle"
         id="path1590" />
      <path
         inkscape:connector-curvature="0"
         d="m 443.77262,167.50164 c -0.216,0.048 -0.312,0.048 -0.432,0.048 -0.696,0 -1.08,-0.36 -1.08,-0.984 v -7.392 c 0,-2.232 -1.632,-3.432 -4.728,-3.432 -1.848,0 -3.312,0.528 -4.176,1.464 -0.576,0.648 -0.816,1.368 -0.864,2.616 h 2.016 c 0.168,-1.536 1.08,-2.232 2.952,-2.232 1.824,0 2.808,0.672 2.808,1.872 v 0.528 c -0.024,0.864 -0.456,1.176 -2.088,1.392 -2.832,0.36 -3.264,0.456 -4.032,0.768 -1.464,0.624 -2.208,1.728 -2.208,3.36 0,2.28 1.584,3.72 4.128,3.72 1.584,0 2.856,-0.552 4.272,-1.848 0.144,1.296 0.768,1.848 2.064,1.848 0.432,0 0.696,-0.048 1.368,-0.216 z m -3.504,-2.784 c 0,0.672 -0.192,1.08 -0.792,1.632 -0.816,0.744 -1.8,1.128 -2.976,1.128 -1.56,0 -2.472,-0.744 -2.472,-2.016 0,-1.32 0.864,-1.992 3.024,-2.304 2.136,-0.288 2.544,-0.384 3.216,-0.696 z"
         style="font-style:normal;font-variant:normal;font-weight:normal;font-stretch:normal;line-height:100%;font-family:'Nimbus Sans';-inkscape-font-specification:'Nimbus Sans';text-align:center;text-anchor:middle"
         id="path1592" />
      <path
         inkscape:connector-curvature="0"
         d="m 447.93999,151.18164 h -2.016 v 17.496 h 2.016 z"
         style="font-style:normal;font-variant:normal;font-weight:normal;font-stretch:normal;line-height:100%;font-family:'Nimbus Sans';-inkscape-font-specification:'Nimbus Sans';text-align:center;text-anchor:middle"
         id="path1594" />
      <path
         inkscape:connector-curvature="0"
         d="m 453.28374,151.18164 h -2.016 v 17.496 h 2.016 z"
         style="font-style:normal;font-variant:normal;font-weight:normal;font-stretch:normal;line-height:100%;font-family:'Nimbus Sans';-inkscape-font-specification:'Nimbus Sans';text-align:center;text-anchor:middle"
         id="path1596" />
      <path
         inkscape:connector-curvature="0"
         d="m 467.29149,163.06164 c 0,-1.92 -0.144,-3.072 -0.504,-4.008 -0.816,-2.064 -2.736,-3.312 -5.088,-3.312 -3.504,0 -5.76,2.664 -5.76,6.816 0,4.152 2.16,6.672 5.712,6.672 2.88,0 4.872,-1.632 5.376,-4.368 h -2.016 c -0.552,1.656 -1.68,2.52 -3.288,2.52 -1.272,0 -2.352,-0.576 -3.024,-1.632 -0.48,-0.72 -0.648,-1.44 -0.672,-2.688 z m -9.216,-1.632 c 0.168,-2.328 1.584,-3.84 3.6,-3.84 2.04,0 3.456,1.584 3.456,3.84 z"
         style="font-style:normal;font-variant:normal;font-weight:normal;font-stretch:normal;line-height:100%;font-family:'Nimbus Sans';-inkscape-font-specification:'Nimbus Sans';text-align:center;text-anchor:middle"
         id="path1598" />
      <path
         inkscape:connector-curvature="0"
         d="m 85.432367,175.18164 h -2.256 v 17.496 h 2.256 z"
         style="font-style:normal;font-variant:normal;font-weight:normal;font-stretch:normal;line-height:100%;font-family:'Nimbus Sans';-inkscape-font-specification:'Nimbus Sans';text-align:center;text-anchor:middle"
         id="path1600" />
      <path
         inkscape:connector-curvature="0"
         d="m 89.112617,180.10164 v 12.576 h 2.016 v -6.936 c 0,-2.568 1.344,-4.248 3.408,-4.248 1.584,0 2.592,0.96 2.592,2.472 v 8.712 h 1.992 v -9.504 c 0,-2.088 -1.56,-3.432 -3.984,-3.432 -1.872,0 -3.072,0.72 -4.176,2.472 v -2.112 z"
         style="font-style:normal;font-variant:normal;font-weight:normal;font-stretch:normal;line-height:100%;font-family:'Nimbus Sans';-inkscape-font-specification:'Nimbus Sans';text-align:center;text-anchor:middle"
         id="path1602" />
      <path
         inkscape:connector-curvature="0"
         d="m 106.88799,180.10164 h -2.064 v -3.456 h -1.992 v 3.456 h -1.704 v 1.632 h 1.704 v 9.504 c 0,1.296 0.864,1.992 2.424,1.992 0.528,0 0.96,-0.048 1.632,-0.168 v -1.68 c -0.288,0.072 -0.552,0.096 -0.96,0.096 -0.864,0 -1.104,-0.24 -1.104,-1.128 v -8.616 h 2.064 z"
         style="font-style:normal;font-variant:normal;font-weight:normal;font-stretch:normal;line-height:100%;font-family:'Nimbus Sans';-inkscape-font-specification:'Nimbus Sans';text-align:center;text-anchor:middle"
         id="path1604" />
      <path
         inkscape:connector-curvature="0"
         d="m 119.43212,187.06164 c 0,-1.92 -0.144,-3.072 -0.504,-4.008 -0.816,-2.064 -2.736,-3.312 -5.088,-3.312 -3.504,0 -5.76,2.664 -5.76,6.816 0,4.152 2.16,6.672 5.712,6.672 2.88,0 4.872,-1.632 5.376,-4.368 h -2.016 c -0.552,1.656 -1.68,2.52 -3.288,2.52 -1.272,0 -2.352,-0.576 -3.024,-1.632 -0.48,-0.72 -0.648,-1.44 -0.672,-2.688 z m -9.216,-1.632 c 0.168,-2.328 1.584,-3.84 3.6,-3.84 2.04,0 3.456,1.584 3.456,3.84 z"
         style="font-style:normal;font-variant:normal;font-weight:normal;font-stretch:normal;line-height:100%;font-family:'Nimbus Sans';-inkscape-font-specification:'Nimbus Sans';text-align:center;text-anchor:middle"
         id="path1606" />
      <path
         inkscape:connector-curvature="0"
         d="m 122.13549,180.10164 v 12.576 h 2.016 v -6.528 c 0.024,-3.024 1.272,-4.368 4.032,-4.296 v -2.04 c -0.336,-0.048 -0.528,-0.072 -0.768,-0.072 -1.296,0 -2.28,0.768 -3.432,2.64 v -2.28 z"
         style="font-style:normal;font-variant:normal;font-weight:normal;font-stretch:normal;line-height:100%;font-family:'Nimbus Sans';-inkscape-font-specification:'Nimbus Sans';text-align:center;text-anchor:middle"
         id="path1608" />
      <path
         inkscape:connector-curvature="0"
         d="m 130.17512,180.10164 v 12.576 h 2.016 v -6.936 c 0,-2.568 1.344,-4.248 3.408,-4.248 1.584,0 2.592,0.96 2.592,2.472 v 8.712 h 1.992 v -9.504 c 0,-2.088 -1.56,-3.432 -3.984,-3.432 -1.872,0 -3.072,0.72 -4.176,2.472 v -2.112 z"
         style="font-style:normal;font-variant:normal;font-weight:normal;font-stretch:normal;line-height:100%;font-family:'Nimbus Sans';-inkscape-font-specification:'Nimbus Sans';text-align:center;text-anchor:middle"
         id="path1610" />
      <path
         inkscape:connector-curvature="0"
         d="m 154.16649,187.06164 c 0,-1.92 -0.144,-3.072 -0.504,-4.008 -0.816,-2.064 -2.736,-3.312 -5.088,-3.312 -3.504,0 -5.76,2.664 -5.76,6.816 0,4.152 2.16,6.672 5.712,6.672 2.88,0 4.872,-1.632 5.376,-4.368 h -2.016 c -0.552,1.656 -1.68,2.52 -3.288,2.52 -1.272,0 -2.352,-0.576 -3.024,-1.632 -0.48,-0.72 -0.648,-1.44 -0.672,-2.688 z m -9.216,-1.632 c 0.168,-2.328 1.584,-3.84 3.6,-3.84 2.04,0 3.456,1.584 3.456,3.84 z"
         style="font-style:normal;font-variant:normal;font-weight:normal;font-stretch:normal;line-height:100%;font-family:'Nimbus Sans';-inkscape-font-specification:'Nimbus Sans';text-align:center;text-anchor:middle"
         id="path1612" />
      <path
         inkscape:connector-curvature="0"
         d="m 161.07549,180.10164 h -2.064 v -3.456 h -1.992 v 3.456 h -1.704 v 1.632 h 1.704 v 9.504 c 0,1.296 0.864,1.992 2.424,1.992 0.528,0 0.96,-0.048 1.632,-0.168 v -1.68 c -0.288,0.072 -0.552,0.096 -0.96,0.096 -0.864,0 -1.104,-0.24 -1.104,-1.128 v -8.616 h 2.064 z"
         style="font-style:normal;font-variant:normal;font-weight:normal;font-stretch:normal;line-height:100%;font-family:'Nimbus Sans';-inkscape-font-specification:'Nimbus Sans';text-align:center;text-anchor:middle"
         id="path1614" />
      <path
         inkscape:connector-curvature="0"
         d="m 162.97862,197.90964 h 2.016 v -6.552 c 1.056,1.296 2.232,1.872 3.864,1.872 3.264,0 5.376,-2.616 5.376,-6.624 0,-4.224 -2.064,-6.864 -5.4,-6.864 -1.704,0 -3.072,0.768 -4.008,2.256 v -1.896 h -1.848 z m 5.52,-16.296 c 2.208,0 3.648,1.944 3.648,4.944 0,2.856 -1.464,4.8 -3.648,4.8 -2.136,0 -3.504,-1.92 -3.504,-4.872 0,-2.952 1.368,-4.872 3.504,-4.872 z"
         style="font-style:normal;font-variant:normal;font-weight:normal;font-stretch:normal;line-height:100%;font-family:'Nimbus Sans';-inkscape-font-specification:'Nimbus Sans';text-align:center;text-anchor:middle"
         id="path1616" />
      <path
         inkscape:connector-curvature="0"
         d="m 178.68999,175.18164 h -2.016 v 17.496 h 2.016 z"
         style="font-style:normal;font-variant:normal;font-weight:normal;font-stretch:normal;line-height:100%;font-family:'Nimbus Sans';-inkscape-font-specification:'Nimbus Sans';text-align:center;text-anchor:middle"
         id="path1618" />
      <path
         inkscape:connector-curvature="0"
         d="m 193.22574,191.50164 c -0.216,0.048 -0.312,0.048 -0.432,0.048 -0.696,0 -1.08,-0.36 -1.08,-0.984 v -7.392 c 0,-2.232 -1.632,-3.432 -4.728,-3.432 -1.848,0 -3.312,0.528 -4.176,1.464 -0.576,0.648 -0.816,1.368 -0.864,2.616 h 2.016 c 0.168,-1.536 1.08,-2.232 2.952,-2.232 1.824,0 2.808,0.672 2.808,1.872 v 0.528 c -0.024,0.864 -0.456,1.176 -2.088,1.392 -2.832,0.36 -3.264,0.456 -4.032,0.768 -1.464,0.624 -2.208,1.728 -2.208,3.36 0,2.28 1.584,3.72 4.128,3.72 1.584,0 2.856,-0.552 4.272,-1.848 0.144,1.296 0.768,1.848 2.064,1.848 0.432,0 0.696,-0.048 1.368,-0.216 z m -3.504,-2.784 c 0,0.672 -0.192,1.08 -0.792,1.632 -0.816,0.744 -1.8,1.128 -2.976,1.128 -1.56,0 -2.472,-0.744 -2.472,-2.016 0,-1.32 0.864,-1.992 3.024,-2.304 2.136,-0.288 2.544,-0.384 3.216,-0.696 z"
         style="font-style:normal;font-variant:normal;font-weight:normal;font-stretch:normal;line-height:100%;font-family:'Nimbus Sans';-inkscape-font-specification:'Nimbus Sans';text-align:center;text-anchor:middle"
         id="path1620" />
      <path
         inkscape:connector-curvature="0"
         d="m 199.55987,180.10164 h -2.064 v -3.456 h -1.992 v 3.456 h -1.704 v 1.632 h 1.704 v 9.504 c 0,1.296 0.864,1.992 2.424,1.992 0.528,0 0.96,-0.048 1.632,-0.168 v -1.68 c -0.288,0.072 -0.552,0.096 -0.96,0.096 -0.864,0 -1.104,-0.24 -1.104,-1.128 v -8.616 h 2.064 z"
         style="font-style:normal;font-variant:normal;font-weight:normal;font-stretch:normal;line-height:100%;font-family:'Nimbus Sans';-inkscape-font-specification:'Nimbus Sans';text-align:center;text-anchor:middle"
         id="path1622" />
      <path
         inkscape:connector-curvature="0"
         d="m 206.73174,180.10164 h -2.064 v -3.456 h -1.992 v 3.456 h -1.704 v 1.632 h 1.704 v 9.504 c 0,1.296 0.864,1.992 2.424,1.992 0.528,0 0.96,-0.048 1.632,-0.168 v -1.68 c -0.288,0.072 -0.552,0.096 -0.96,0.096 -0.864,0 -1.104,-0.24 -1.104,-1.128 v -8.616 h 2.064 z"
         style="font-style:normal;font-variant:normal;font-weight:normal;font-stretch:normal;line-height:100%;font-family:'Nimbus Sans';-inkscape-font-specification:'Nimbus Sans';text-align:center;text-anchor:middle"
         id="path1624" />
      <path
         inkscape:connector-curvature="0"
         d="m 213.48399,180.10164 h -2.088 v -1.968 c 0,-0.84 0.456,-1.272 1.392,-1.272 0.168,0 0.24,0 0.696,0.024 v -1.656 c -0.456,-0.096 -0.72,-0.12 -1.128,-0.12 -1.848,0 -2.952,1.056 -2.952,2.856 v 2.136 h -1.68 v 1.632 h 1.68 v 10.944 h 1.992 v -10.944 h 2.088 z"
         style="font-style:normal;font-variant:normal;font-weight:normal;font-stretch:normal;line-height:100%;font-family:'Nimbus Sans';-inkscape-font-specification:'Nimbus Sans';text-align:center;text-anchor:middle"
         id="path1626" />
      <path
         inkscape:connector-curvature="0"
         d="m 220.24187,179.74164 c -3.552,0 -5.664,2.52 -5.664,6.744 0,4.248 2.112,6.744 5.688,6.744 3.552,0 5.688,-2.52 5.688,-6.648 0,-4.368 -2.064,-6.84 -5.712,-6.84 z m 0.024,1.848 c 2.256,0 3.6,1.848 3.6,4.968 0,2.976 -1.392,4.824 -3.6,4.824 -2.232,0 -3.6,-1.848 -3.6,-4.896 0,-3.048 1.368,-4.896 3.6,-4.896 z"
         style="font-style:normal;font-variant:normal;font-weight:normal;font-stretch:normal;line-height:100%;font-family:'Nimbus Sans';-inkscape-font-specification:'Nimbus Sans';text-align:center;text-anchor:middle"
         id="path1628" />
      <path
         inkscape:connector-curvature="0"
         d="m 228.72924,180.10164 v 12.576 h 2.016 v -6.528 c 0.024,-3.024 1.272,-4.368 4.032,-4.296 v -2.04 c -0.336,-0.048 -0.528,-0.072 -0.768,-0.072 -1.296,0 -2.28,0.768 -3.432,2.64 v -2.28 z"
         style="font-style:normal;font-variant:normal;font-weight:normal;font-stretch:normal;line-height:100%;font-family:'Nimbus Sans';-inkscape-font-specification:'Nimbus Sans';text-align:center;text-anchor:middle"
         id="path1630" />
      <path
         inkscape:connector-curvature="0"
         d="m 236.76887,180.10164 v 12.576 h 2.016 v -7.896 c 0,-1.824 1.32,-3.288 2.952,-3.288 1.488,0 2.328,0.912 2.328,2.52 v 8.664 h 2.016 v -7.896 c 0,-1.824 1.32,-3.288 2.952,-3.288 1.464,0 2.328,0.936 2.328,2.52 v 8.664 h 2.016 v -9.432 c 0,-2.256 -1.296,-3.504 -3.648,-3.504 -1.68,0 -2.688,0.504 -3.864,1.92 -0.744,-1.344 -1.752,-1.92 -3.384,-1.92 -1.68,0 -2.808,0.624 -3.864,2.136 v -1.776 z"
         style="font-style:normal;font-variant:normal;font-weight:normal;font-stretch:normal;line-height:100%;font-family:'Nimbus Sans';-inkscape-font-specification:'Nimbus Sans';text-align:center;text-anchor:middle"
         id="path1632" />
      <path
         inkscape:connector-curvature="0"
         d="m 267.41649,187.06164 c 0,-1.92 -0.144,-3.072 -0.504,-4.008 -0.816,-2.064 -2.736,-3.312 -5.088,-3.312 -3.504,0 -5.76,2.664 -5.76,6.816 0,4.152 2.16,6.672 5.712,6.672 2.88,0 4.872,-1.632 5.376,-4.368 h -2.016 c -0.552,1.656 -1.68,2.52 -3.288,2.52 -1.272,0 -2.352,-0.576 -3.024,-1.632 -0.48,-0.72 -0.648,-1.44 -0.672,-2.688 z m -9.216,-1.632 c 0.168,-2.328 1.584,-3.84 3.6,-3.84 2.04,0 3.456,1.584 3.456,3.84 z"
         style="font-style:normal;font-variant:normal;font-weight:normal;font-stretch:normal;line-height:100%;font-family:'Nimbus Sans';-inkscape-font-specification:'Nimbus Sans';text-align:center;text-anchor:middle"
         id="path1634" />
      <path
         inkscape:connector-curvature="0"
         d="m 270.14387,180.10164 v 12.576 h 2.016 v -6.936 c 0,-2.568 1.344,-4.248 3.408,-4.248 1.584,0 2.592,0.96 2.592,2.472 v 8.712 h 1.992 v -9.504 c 0,-2.088 -1.56,-3.432 -3.984,-3.432 -1.872,0 -3.072,0.72 -4.176,2.472 v -2.112 z"
         style="font-style:normal;font-variant:normal;font-weight:normal;font-stretch:normal;line-height:100%;font-family:'Nimbus Sans';-inkscape-font-specification:'Nimbus Sans';text-align:center;text-anchor:middle"
         id="path1636" />
      <path
         inkscape:connector-curvature="0"
         d="m 300.35949,175.18164 h -1.992 v 6.504 c -0.84,-1.272 -2.184,-1.944 -3.864,-1.944 -3.264,0 -5.4,2.616 -5.4,6.624 0,4.248 2.064,6.864 5.472,6.864 1.728,0 2.928,-0.648 4.008,-2.208 v 1.656 h 1.776 z m -5.52,6.432 c 2.16,0 3.528,1.896 3.528,4.92 0,2.904 -1.392,4.824 -3.504,4.824 -2.208,0 -3.672,-1.944 -3.672,-4.872 0,-2.928 1.464,-4.872 3.648,-4.872 z"
         style="font-style:normal;font-variant:normal;font-weight:normal;font-stretch:normal;line-height:100%;font-family:'Nimbus Sans';-inkscape-font-specification:'Nimbus Sans';text-align:center;text-anchor:middle"
         id="path1638" />
      <path
         inkscape:connector-curvature="0"
         d="m 314.58512,191.50164 c -0.216,0.048 -0.312,0.048 -0.432,0.048 -0.696,0 -1.08,-0.36 -1.08,-0.984 v -7.392 c 0,-2.232 -1.632,-3.432 -4.728,-3.432 -1.848,0 -3.312,0.528 -4.176,1.464 -0.576,0.648 -0.816,1.368 -0.864,2.616 h 2.016 c 0.168,-1.536 1.08,-2.232 2.952,-2.232 1.824,0 2.808,0.672 2.808,1.872 v 0.528 c -0.024,0.864 -0.456,1.176 -2.088,1.392 -2.832,0.36 -3.264,0.456 -4.032,0.768 -1.464,0.624 -2.208,1.728 -2.208,3.36 0,2.28 1.584,3.72 4.128,3.72 1.584,0 2.856,-0.552 4.272,-1.848 0.144,1.296 0.768,1.848 2.064,1.848 0.432,0 0.696,-0.048 1.368,-0.216 z m -3.504,-2.784 c 0,0.672 -0.192,1.08 -0.792,1.632 -0.816,0.744 -1.8,1.128 -2.976,1.128 -1.56,0 -2.472,-0.744 -2.472,-2.016 0,-1.32 0.864,-1.992 3.024,-2.304 2.136,-0.288 2.544,-0.384 3.216,-0.696 z"
         style="font-style:normal;font-variant:normal;font-weight:normal;font-stretch:normal;line-height:100%;font-family:'Nimbus Sans';-inkscape-font-specification:'Nimbus Sans';text-align:center;text-anchor:middle"
         id="path1640" />
      <path
         inkscape:connector-curvature="0"
         d="m 326.06462,180.10164 h -9.384 v 1.752 h 7.008 l -7.512,9.024 v 1.8 h 10.224 v -1.752 h -7.8 l 7.464,-9.048 z"
         style="font-style:normal;font-variant:normal;font-weight:normal;font-stretch:normal;line-height:100%;font-family:'Nimbus Sans';-inkscape-font-specification:'Nimbus Sans';text-align:center;text-anchor:middle"
         id="path1642" />
      <path
         inkscape:connector-curvature="0"
         d="m 338.62562,192.67764 v -12.576 h -1.992 v 7.128 c 0,2.568 -1.344,4.248 -3.432,4.248 -1.584,0 -2.592,-0.96 -2.592,-2.472 v -8.904 h -1.992 v 9.696 c 0,2.088 1.56,3.432 4.008,3.432 1.848,0 3.024,-0.648 4.2,-2.304 v 1.752 z"
         style="font-style:normal;font-variant:normal;font-weight:normal;font-stretch:normal;line-height:100%;font-family:'Nimbus Sans';-inkscape-font-specification:'Nimbus Sans';text-align:center;text-anchor:middle"
         id="path1644" />
      <path
         inkscape:connector-curvature="0"
         d="m 357.70524,180.10164 h -9.384 v 1.752 h 7.008 l -7.512,9.024 v 1.8 h 10.224 v -1.752 h -7.8 l 7.464,-9.048 z"
         style="font-style:normal;font-variant:normal;font-weight:normal;font-stretch:normal;line-height:100%;font-family:'Nimbus Sans';-inkscape-font-specification:'Nimbus Sans';text-align:center;text-anchor:middle"
         id="path1646" />
      <path
         inkscape:connector-curvature="0"
         d="m 372.36924,192.67764 3.696,-12.576 h -2.256 l -2.496,9.792 -2.472,-9.792 h -2.448 l -2.4,9.792 -2.568,-9.792 h -2.208 l 3.648,12.576 h 2.256 l 2.424,-9.864 2.544,9.864 z"
         style="font-style:normal;font-variant:normal;font-weight:normal;font-stretch:normal;line-height:100%;font-family:'Nimbus Sans';-inkscape-font-specification:'Nimbus Sans';text-align:center;text-anchor:middle"
         id="path1648" />
      <path
         inkscape:connector-curvature="0"
         d="m 380.01699,180.10164 h -1.992 v 12.576 h 1.992 z m 0,-4.92 h -2.016 v 2.52 h 2.016 z"
         style="font-style:normal;font-variant:normal;font-weight:normal;font-stretch:normal;line-height:100%;font-family:'Nimbus Sans';-inkscape-font-specification:'Nimbus Sans';text-align:center;text-anchor:middle"
         id="path1650" />
      <path
         inkscape:connector-curvature="0"
         d="m 383.44074,180.10164 v 12.576 h 2.016 v -6.936 c 0,-2.568 1.344,-4.248 3.408,-4.248 1.584,0 2.592,0.96 2.592,2.472 v 8.712 h 1.992 v -9.504 c 0,-2.088 -1.56,-3.432 -3.984,-3.432 -1.872,0 -3.072,0.72 -4.176,2.472 v -2.112 z"
         style="font-style:normal;font-variant:normal;font-weight:normal;font-stretch:normal;line-height:100%;font-family:'Nimbus Sans';-inkscape-font-specification:'Nimbus Sans';text-align:center;text-anchor:middle"
         id="path1652" />
      <path
         inkscape:connector-curvature="0"
         d="m 404.81612,180.10164 v 1.824 c -1.008,-1.512 -2.112,-2.184 -3.696,-2.184 -3.048,0 -5.16,2.832 -5.16,6.864 0,2.112 0.504,3.648 1.584,4.92 0.936,1.104 2.136,1.704 3.432,1.704 1.512,0 2.592,-0.672 3.648,-2.256 v 0.648 c 0,3.36 -0.936,4.608 -3.432,4.608 -1.704,0 -2.592,-0.672 -2.784,-2.112 h -2.04 c 0.192,2.328 2.04,3.792 4.776,3.792 1.848,0 3.384,-0.6 4.2,-1.608 0.96,-1.176 1.32,-2.736 1.32,-5.688 v -10.512 z m -3.504,1.488 c 2.112,0 3.312,1.776 3.312,4.968 0,3.048 -1.224,4.824 -3.312,4.824 -2.064,0 -3.264,-1.8 -3.264,-4.896 0,-3.072 1.2,-4.896 3.264,-4.896 z"
         style="font-style:normal;font-variant:normal;font-weight:normal;font-stretch:normal;line-height:100%;font-family:'Nimbus Sans';-inkscape-font-specification:'Nimbus Sans';text-align:center;text-anchor:middle"
         id="path1654" />
      <path
         inkscape:connector-curvature="0"
         d="m 420.65087,187.06164 c 0,-1.92 -0.144,-3.072 -0.504,-4.008 -0.816,-2.064 -2.736,-3.312 -5.088,-3.312 -3.504,0 -5.76,2.664 -5.76,6.816 0,4.152 2.16,6.672 5.712,6.672 2.88,0 4.872,-1.632 5.376,-4.368 h -2.016 c -0.552,1.656 -1.68,2.52 -3.288,2.52 -1.272,0 -2.352,-0.576 -3.024,-1.632 -0.48,-0.72 -0.648,-1.44 -0.672,-2.688 z m -9.216,-1.632 c 0.168,-2.328 1.584,-3.84 3.6,-3.84 2.04,0 3.456,1.584 3.456,3.84 z"
         style="font-style:normal;font-variant:normal;font-weight:normal;font-stretch:normal;line-height:100%;font-family:'Nimbus Sans';-inkscape-font-specification:'Nimbus Sans';text-align:center;text-anchor:middle"
         id="path1656" />
      <path
         inkscape:connector-curvature="0"
         d="m 423.37824,180.10164 v 12.576 h 2.016 v -6.936 c 0,-2.568 1.344,-4.248 3.408,-4.248 1.584,0 2.592,0.96 2.592,2.472 v 8.712 h 1.992 v -9.504 c 0,-2.088 -1.56,-3.432 -3.984,-3.432 -1.872,0 -3.072,0.72 -4.176,2.472 v -2.112 z"
         style="font-style:normal;font-variant:normal;font-weight:normal;font-stretch:normal;line-height:100%;font-family:'Nimbus Sans';-inkscape-font-specification:'Nimbus Sans';text-align:center;text-anchor:middle"
         id="path1658" />
      <path
         inkscape:connector-curvature="0"
         d="m 132.40787,199.18164 h -12.6 v 1.968 h 9.84 l -10.512,13.56 v 1.968 h 13.32 v -1.968 h -10.512 l 10.464,-13.512 z"
         style="font-style:normal;font-variant:normal;font-weight:normal;font-stretch:normal;line-height:100%;font-family:'Nimbus Sans';-inkscape-font-specification:'Nimbus Sans';text-align:center;text-anchor:middle"
         id="path1660" />
      <path
         inkscape:connector-curvature="0"
         d="m 145.11962,211.06164 c 0,-1.92 -0.144,-3.072 -0.504,-4.008 -0.816,-2.064 -2.736,-3.312 -5.088,-3.312 -3.504,0 -5.76,2.664 -5.76,6.816 0,4.152 2.16,6.672 5.712,6.672 2.88,0 4.872,-1.632 5.376,-4.368 h -2.016 c -0.552,1.656 -1.68,2.52 -3.288,2.52 -1.272,0 -2.352,-0.576 -3.024,-1.632 -0.48,-0.72 -0.648,-1.44 -0.672,-2.688 z m -9.216,-1.632 c 0.168,-2.328 1.584,-3.84 3.6,-3.84 2.04,0 3.456,1.584 3.456,3.84 z"
         style="font-style:normal;font-variant:normal;font-weight:normal;font-stretch:normal;line-height:100%;font-family:'Nimbus Sans';-inkscape-font-specification:'Nimbus Sans';text-align:center;text-anchor:middle"
         id="path1662" />
      <path
         inkscape:connector-curvature="0"
         d="m 147.84699,204.10164 v 12.576 h 2.016 v -6.936 c 0,-2.568 1.344,-4.248 3.408,-4.248 1.584,0 2.592,0.96 2.592,2.472 v 8.712 h 1.992 v -9.504 c 0,-2.088 -1.56,-3.432 -3.984,-3.432 -1.872,0 -3.072,0.72 -4.176,2.472 v -2.112 z"
         style="font-style:normal;font-variant:normal;font-weight:normal;font-stretch:normal;line-height:100%;font-family:'Nimbus Sans';-inkscape-font-specification:'Nimbus Sans';text-align:center;text-anchor:middle"
         id="path1664" />
      <path
         inkscape:connector-curvature="0"
         d="m 170.03837,207.60564 c -0.024,-2.472 -1.656,-3.864 -4.56,-3.864 -2.928,0 -4.824,1.512 -4.824,3.84 0,1.968 1.008,2.904 3.984,3.624 l 1.872,0.456 c 1.392,0.336 1.944,0.84 1.944,1.728 0,1.2 -1.176,1.992 -2.928,1.992 -1.08,0 -1.992,-0.312 -2.496,-0.84 -0.312,-0.36 -0.456,-0.72 -0.576,-1.608 h -2.112 c 0.096,2.904 1.728,4.296 5.016,4.296 3.168,0 5.184,-1.56 5.184,-3.984 0,-1.872 -1.056,-2.904 -3.552,-3.504 l -1.92,-0.456 c -1.632,-0.384 -2.328,-0.912 -2.328,-1.8 0,-1.176 1.032,-1.896 2.664,-1.896 1.608,0 2.472,0.696 2.52,2.016 z"
         style="font-style:normal;font-variant:normal;font-weight:normal;font-stretch:normal;line-height:100%;font-family:'Nimbus Sans';-inkscape-font-specification:'Nimbus Sans';text-align:center;text-anchor:middle"
         id="path1666" />
      <path
         inkscape:connector-curvature="0"
         d="m 183.09437,216.67764 v -12.576 h -1.992 v 7.128 c 0,2.568 -1.344,4.248 -3.432,4.248 -1.584,0 -2.592,-0.96 -2.592,-2.472 v -8.904 h -1.992 v 9.696 c 0,2.088 1.56,3.432 4.008,3.432 1.848,0 3.024,-0.648 4.2,-2.304 v 1.752 z"
         style="font-style:normal;font-variant:normal;font-weight:normal;font-stretch:normal;line-height:100%;font-family:'Nimbus Sans';-inkscape-font-specification:'Nimbus Sans';text-align:center;text-anchor:middle"
         id="path1668" />
      <path
         inkscape:connector-curvature="0"
         d="m 186.54174,204.10164 v 12.576 h 2.016 v -6.528 c 0.024,-3.024 1.272,-4.368 4.032,-4.296 v -2.04 c -0.336,-0.048 -0.528,-0.072 -0.768,-0.072 -1.296,0 -2.28,0.768 -3.432,2.64 v -2.28 z"
         style="font-style:normal;font-variant:normal;font-weight:normal;font-stretch:normal;line-height:100%;font-family:'Nimbus Sans';-inkscape-font-specification:'Nimbus Sans';text-align:center;text-anchor:middle"
         id="path1670" />
      <path
         inkscape:connector-curvature="0"
         d="m 198.94937,204.10164 h -2.088 v -1.968 c 0,-0.84 0.456,-1.272 1.392,-1.272 0.168,0 0.24,0 0.696,0.024 v -1.656 c -0.456,-0.096 -0.72,-0.12 -1.128,-0.12 -1.848,0 -2.952,1.056 -2.952,2.856 v 2.136 h -1.68 v 1.632 h 1.68 v 10.944 h 1.992 v -10.944 h 2.088 z m 4.416,0 h -1.992 v 12.576 h 1.992 z m 0,-4.92 h -1.992 v 2.52 h 1.992 z"
         style="font-style:normal;font-variant:normal;font-weight:normal;font-stretch:normal;line-height:100%;font-family:'Nimbus Sans';-inkscape-font-specification:'Nimbus Sans';text-align:center;text-anchor:middle"
         id="path1672" />
      <path
         inkscape:connector-curvature="0"
         d="m 208.54937,199.18164 h -2.016 v 17.496 h 2.016 z"
         style="font-style:normal;font-variant:normal;font-weight:normal;font-stretch:normal;line-height:100%;font-family:'Nimbus Sans';-inkscape-font-specification:'Nimbus Sans';text-align:center;text-anchor:middle"
         id="path1674" />
      <path
         inkscape:connector-curvature="0"
         d="m 216.34112,204.10164 h -2.064 v -3.456 h -1.992 v 3.456 h -1.704 v 1.632 h 1.704 v 9.504 c 0,1.296 0.864,1.992 2.424,1.992 0.528,0 0.96,-0.048 1.632,-0.168 v -1.68 c -0.288,0.072 -0.552,0.096 -0.96,0.096 -0.864,0 -1.104,-0.24 -1.104,-1.128 v -8.616 h 2.064 z"
         style="font-style:normal;font-variant:normal;font-weight:normal;font-stretch:normal;line-height:100%;font-family:'Nimbus Sans';-inkscape-font-specification:'Nimbus Sans';text-align:center;text-anchor:middle"
         id="path1676" />
      <path
         inkscape:connector-curvature="0"
         d="m 228.88524,211.06164 c 0,-1.92 -0.144,-3.072 -0.504,-4.008 -0.816,-2.064 -2.736,-3.312 -5.088,-3.312 -3.504,0 -5.76,2.664 -5.76,6.816 0,4.152 2.16,6.672 5.712,6.672 2.88,0 4.872,-1.632 5.376,-4.368 h -2.016 c -0.552,1.656 -1.68,2.52 -3.288,2.52 -1.272,0 -2.352,-0.576 -3.024,-1.632 -0.48,-0.72 -0.648,-1.44 -0.672,-2.688 z m -9.216,-1.632 c 0.168,-2.328 1.584,-3.84 3.6,-3.84 2.04,0 3.456,1.584 3.456,3.84 z"
         style="font-style:normal;font-variant:normal;font-weight:normal;font-stretch:normal;line-height:100%;font-family:'Nimbus Sans';-inkscape-font-specification:'Nimbus Sans';text-align:center;text-anchor:middle"
         id="path1678" />
      <path
         inkscape:connector-curvature="0"
         d="m 231.58862,204.10164 v 12.576 h 2.016 v -6.528 c 0.024,-3.024 1.272,-4.368 4.032,-4.296 v -2.04 c -0.336,-0.048 -0.528,-0.072 -0.768,-0.072 -1.296,0 -2.28,0.768 -3.432,2.64 v -2.28 z"
         style="font-style:normal;font-variant:normal;font-weight:normal;font-stretch:normal;line-height:100%;font-family:'Nimbus Sans';-inkscape-font-specification:'Nimbus Sans';text-align:center;text-anchor:middle"
         id="path1680" />
      <path
         inkscape:connector-curvature="0"
         d="m 255.23649,204.10164 h -9.384 v 1.752 h 7.008 l -7.512,9.024 v 1.8 h 10.224 v -1.752 h -7.8 l 7.464,-9.048 z"
         style="font-style:normal;font-variant:normal;font-weight:normal;font-stretch:normal;line-height:100%;font-family:'Nimbus Sans';-inkscape-font-specification:'Nimbus Sans';text-align:center;text-anchor:middle"
         id="path1682" />
      <path
         inkscape:connector-curvature="0"
         d="m 267.79749,216.67764 v -12.576 h -1.992 v 7.128 c 0,2.568 -1.344,4.248 -3.432,4.248 -1.584,0 -2.592,-0.96 -2.592,-2.472 v -8.904 h -1.992 v 9.696 c 0,2.088 1.56,3.432 4.008,3.432 1.848,0 3.024,-0.648 4.2,-2.304 v 1.752 z"
         style="font-style:normal;font-variant:normal;font-weight:normal;font-stretch:normal;line-height:100%;font-family:'Nimbus Sans';-inkscape-font-specification:'Nimbus Sans';text-align:center;text-anchor:middle"
         id="path1684" />
      <path
         inkscape:connector-curvature="0"
         d="m 279.84512,204.10164 h -1.992 v 12.576 h 1.992 z m 0,-4.92 h -2.016 v 2.52 h 2.016 z"
         style="font-style:normal;font-variant:normal;font-weight:normal;font-stretch:normal;line-height:100%;font-family:'Nimbus Sans';-inkscape-font-specification:'Nimbus Sans';text-align:center;text-anchor:middle"
         id="path1686" />
      <path
         inkscape:connector-curvature="0"
         d="m 283.26887,204.10164 v 12.576 h 2.016 v -6.936 c 0,-2.568 1.344,-4.248 3.408,-4.248 1.584,0 2.592,0.96 2.592,2.472 v 8.712 h 1.992 v -9.504 c 0,-2.088 -1.56,-3.432 -3.984,-3.432 -1.872,0 -3.072,0.72 -4.176,2.472 v -2.112 z"
         style="font-style:normal;font-variant:normal;font-weight:normal;font-stretch:normal;line-height:100%;font-family:'Nimbus Sans';-inkscape-font-specification:'Nimbus Sans';text-align:center;text-anchor:middle"
         id="path1688" />
      <path
         inkscape:connector-curvature="0"
         d="m 305.46024,207.60564 c -0.024,-2.472 -1.656,-3.864 -4.56,-3.864 -2.928,0 -4.824,1.512 -4.824,3.84 0,1.968 1.008,2.904 3.984,3.624 l 1.872,0.456 c 1.392,0.336 1.944,0.84 1.944,1.728 0,1.2 -1.176,1.992 -2.928,1.992 -1.08,0 -1.992,-0.312 -2.496,-0.84 -0.312,-0.36 -0.456,-0.72 -0.576,-1.608 h -2.112 c 0.096,2.904 1.728,4.296 5.016,4.296 3.168,0 5.184,-1.56 5.184,-3.984 0,-1.872 -1.056,-2.904 -3.552,-3.504 l -1.92,-0.456 c -1.632,-0.384 -2.328,-0.912 -2.328,-1.8 0,-1.176 1.032,-1.896 2.664,-1.896 1.608,0 2.472,0.696 2.52,2.016 z"
         style="font-style:normal;font-variant:normal;font-weight:normal;font-stretch:normal;line-height:100%;font-family:'Nimbus Sans';-inkscape-font-specification:'Nimbus Sans';text-align:center;text-anchor:middle"
         id="path1690" />
      <path
         inkscape:connector-curvature="0"
         d="m 312.95049,204.10164 h -2.064 v -3.456 h -1.992 v 3.456 h -1.704 v 1.632 h 1.704 v 9.504 c 0,1.296 0.864,1.992 2.424,1.992 0.528,0 0.96,-0.048 1.632,-0.168 v -1.68 c -0.288,0.072 -0.552,0.096 -0.96,0.096 -0.864,0 -1.104,-0.24 -1.104,-1.128 v -8.616 h 2.064 z"
         style="font-style:normal;font-variant:normal;font-weight:normal;font-stretch:normal;line-height:100%;font-family:'Nimbus Sans';-inkscape-font-specification:'Nimbus Sans';text-align:center;text-anchor:middle"
         id="path1692" />
      <path
         inkscape:connector-curvature="0"
         d="m 326.30387,215.50164 c -0.216,0.048 -0.312,0.048 -0.432,0.048 -0.696,0 -1.08,-0.36 -1.08,-0.984 v -7.392 c 0,-2.232 -1.632,-3.432 -4.728,-3.432 -1.848,0 -3.312,0.528 -4.176,1.464 -0.576,0.648 -0.816,1.368 -0.864,2.616 h 2.016 c 0.168,-1.536 1.08,-2.232 2.952,-2.232 1.824,0 2.808,0.672 2.808,1.872 v 0.528 c -0.024,0.864 -0.456,1.176 -2.088,1.392 -2.832,0.36 -3.264,0.456 -4.032,0.768 -1.464,0.624 -2.208,1.728 -2.208,3.36 0,2.28 1.584,3.72 4.128,3.72 1.584,0 2.856,-0.552 4.272,-1.848 0.144,1.296 0.768,1.848 2.064,1.848 0.432,0 0.696,-0.048 1.368,-0.216 z m -3.504,-2.784 c 0,0.672 -0.192,1.08 -0.792,1.632 -0.816,0.744 -1.8,1.128 -2.976,1.128 -1.56,0 -2.472,-0.744 -2.472,-2.016 0,-1.32 0.864,-1.992 3.024,-2.304 2.136,-0.288 2.544,-0.384 3.216,-0.696 z"
         style="font-style:normal;font-variant:normal;font-weight:normal;font-stretch:normal;line-height:100%;font-family:'Nimbus Sans';-inkscape-font-specification:'Nimbus Sans';text-align:center;text-anchor:middle"
         id="path1694" />
      <path
         inkscape:connector-curvature="0"
         d="m 330.47124,199.18164 h -2.016 v 17.496 h 2.016 z"
         style="font-style:normal;font-variant:normal;font-weight:normal;font-stretch:normal;line-height:100%;font-family:'Nimbus Sans';-inkscape-font-specification:'Nimbus Sans';text-align:center;text-anchor:middle"
         id="path1696" />
      <path
         inkscape:connector-curvature="0"
         d="m 335.81499,199.18164 h -2.016 v 17.496 h 2.016 z"
         style="font-style:normal;font-variant:normal;font-weight:normal;font-stretch:normal;line-height:100%;font-family:'Nimbus Sans';-inkscape-font-specification:'Nimbus Sans';text-align:center;text-anchor:middle"
         id="path1698" />
      <path
         inkscape:connector-curvature="0"
         d="m 341.11074,204.10164 h -1.992 v 12.576 h 1.992 z m 0,-4.92 h -2.016 v 2.52 h 2.016 z"
         style="font-style:normal;font-variant:normal;font-weight:normal;font-stretch:normal;line-height:100%;font-family:'Nimbus Sans';-inkscape-font-specification:'Nimbus Sans';text-align:center;text-anchor:middle"
         id="path1700" />
      <path
         inkscape:connector-curvature="0"
         d="m 355.16649,211.06164 c 0,-1.92 -0.144,-3.072 -0.504,-4.008 -0.816,-2.064 -2.736,-3.312 -5.088,-3.312 -3.504,0 -5.76,2.664 -5.76,6.816 0,4.152 2.16,6.672 5.712,6.672 2.88,0 4.872,-1.632 5.376,-4.368 h -2.016 c -0.552,1.656 -1.68,2.52 -3.288,2.52 -1.272,0 -2.352,-0.576 -3.024,-1.632 -0.48,-0.72 -0.648,-1.44 -0.672,-2.688 z m -9.216,-1.632 c 0.168,-2.328 1.584,-3.84 3.6,-3.84 2.04,0 3.456,1.584 3.456,3.84 z"
         style="font-style:normal;font-variant:normal;font-weight:normal;font-stretch:normal;line-height:100%;font-family:'Nimbus Sans';-inkscape-font-specification:'Nimbus Sans';text-align:center;text-anchor:middle"
         id="path1702" />
      <path
         inkscape:connector-curvature="0"
         d="m 357.86987,204.10164 v 12.576 h 2.016 v -6.528 c 0.024,-3.024 1.272,-4.368 4.032,-4.296 v -2.04 c -0.336,-0.048 -0.528,-0.072 -0.768,-0.072 -1.296,0 -2.28,0.768 -3.432,2.64 v -2.28 z"
         style="font-style:normal;font-variant:normal;font-weight:normal;font-stretch:normal;line-height:100%;font-family:'Nimbus Sans';-inkscape-font-specification:'Nimbus Sans';text-align:center;text-anchor:middle"
         id="path1704" />
      <path
         inkscape:connector-curvature="0"
         d="m 376.30712,211.06164 c 0,-1.92 -0.144,-3.072 -0.504,-4.008 -0.816,-2.064 -2.736,-3.312 -5.088,-3.312 -3.504,0 -5.76,2.664 -5.76,6.816 0,4.152 2.16,6.672 5.712,6.672 2.88,0 4.872,-1.632 5.376,-4.368 h -2.016 c -0.552,1.656 -1.68,2.52 -3.288,2.52 -1.272,0 -2.352,-0.576 -3.024,-1.632 -0.48,-0.72 -0.648,-1.44 -0.672,-2.688 z m -9.216,-1.632 c 0.168,-2.328 1.584,-3.84 3.6,-3.84 2.04,0 3.456,1.584 3.456,3.84 z"
         style="font-style:normal;font-variant:normal;font-weight:normal;font-stretch:normal;line-height:100%;font-family:'Nimbus Sans';-inkscape-font-specification:'Nimbus Sans';text-align:center;text-anchor:middle"
         id="path1706" />
      <path
         inkscape:connector-curvature="0"
         d="m 379.03449,204.10164 v 12.576 h 2.016 v -6.936 c 0,-2.568 1.344,-4.248 3.408,-4.248 1.584,0 2.592,0.96 2.592,2.472 v 8.712 h 1.992 v -9.504 c 0,-2.088 -1.56,-3.432 -3.984,-3.432 -1.872,0 -3.072,0.72 -4.176,2.472 v -2.112 z"
         style="font-style:normal;font-variant:normal;font-weight:normal;font-stretch:normal;line-height:100%;font-family:'Nimbus Sans';-inkscape-font-specification:'Nimbus Sans';text-align:center;text-anchor:middle"
         id="path1708" />
      <path
         inkscape:connector-curvature="0"
         d="m 395.29787,214.18164 h -2.496 v 2.496 h 2.496 z"
         style="font-style:normal;font-variant:normal;font-weight:normal;font-stretch:normal;line-height:100%;font-family:'Nimbus Sans';-inkscape-font-specification:'Nimbus Sans';text-align:center;text-anchor:middle"
         id="path1710" />
    </g>
    <path
       style="fill:none;fill-rule:evenodd;stroke:#ff0dbf;stroke-width:1.99999999;stroke-linecap:butt;stroke-linejoin:miter;stroke-opacity:1;stroke-miterlimit:4;stroke-dasharray:none"
       d="M 2,30 30,2.0000002"
       id="path4658"
       inkscape:connector-curvature="0" />
    <g
       aria-label="JETZT DAGEGEN AUFSTEHEN!"
       transform="matrix(0.70710747,-0.70710609,0.70710747,0.70710609,0,0)"
       style="font-style:normal;font-variant:normal;font-weight:normal;font-stretch:normal;font-size:5.87790871px;line-height:0px;font-family:Montserrat;-inkscape-font-specification:'Montserrat, Normal';font-variant-ligatures:normal;font-variant-caps:normal;font-variant-numeric:normal;text-align:start;letter-spacing:0px;word-spacing:0px;writing-mode:lr-tb;text-anchor:start;fill:#ffffff;fill-opacity:1;stroke:none;stroke-width:0.24491286px;stroke-linecap:butt;stroke-linejoin:miter;stroke-opacity:1"
       id="text950">
      <path
         d="m -41.976683,52.295861 v 3.168193 c 0,0.323285 -0.170459,0.499622 -0.47611,0.499622 -0.335041,0 -0.476111,-0.164582 -0.476111,-0.558401 v -0.411454 h -0.881686 v 0.423209 c 0,0.446721 0.105802,0.722983 0.358552,0.9581 0.246872,0.22336 0.576035,0.340918 0.981611,0.340918 0.875808,0 1.37543,-0.452599 1.37543,-1.251994 v -3.168193 z"
         style="font-style:normal;font-variant:normal;font-weight:bold;font-stretch:normal;font-family:'nimbus sans';-inkscape-font-specification:'nimbus sans Bold';fill:#ffffff;fill-opacity:1;stroke-width:0.24491286px"
         id="path952" />
      <path
         d="m -39.333736,54.735193 h 2.05139 v -0.734739 h -2.05139 v -0.969855 h 2.215971 v -0.734738 h -3.097658 v 4.284995 h 3.203461 v -0.734738 h -2.321774 z"
         style="font-style:normal;font-variant:normal;font-weight:bold;font-stretch:normal;font-family:'nimbus sans';-inkscape-font-specification:'nimbus sans Bold';fill:#ffffff;fill-opacity:1;stroke-width:0.24491286px"
         id="path954" />
      <path
         d="m -34.490523,53.030599 h 1.251994 v -0.734738 h -3.432698 v 0.734738 h 1.299017 v 3.550257 h 0.881687 z"
         style="font-style:normal;font-variant:normal;font-weight:bold;font-stretch:normal;font-family:'nimbus sans';-inkscape-font-specification:'nimbus sans Bold';fill:#ffffff;fill-opacity:1;stroke-width:0.24491286px"
         id="path956" />
      <path
         d="m -29.670914,52.295861 h -3.221094 v 0.734738 h 2.19246 l -2.19246,2.815519 v 0.734738 h 3.221094 v -0.734738 h -2.186582 l 2.186582,-2.815519 z"
         style="font-style:normal;font-variant:normal;font-weight:bold;font-stretch:normal;font-family:'nimbus sans';-inkscape-font-specification:'nimbus sans Bold';fill:#ffffff;fill-opacity:1;stroke-width:0.24491286px"
         id="path958" />
      <path
         d="m -27.212019,53.030599 h 1.251995 v -0.734738 h -3.432699 v 0.734738 h 1.299018 v 3.550257 h 0.881686 z"
         style="font-style:normal;font-variant:normal;font-weight:bold;font-stretch:normal;font-family:'nimbus sans';-inkscape-font-specification:'nimbus sans Bold';fill:#ffffff;fill-opacity:1;stroke-width:0.24491286px"
         id="path960" />
      <path
         d="m -23.798883,56.580856 h 1.675204 c 0.652448,0 1.063901,-0.152825 1.357797,-0.499622 0.335041,-0.399698 0.517256,-0.975733 0.517256,-1.645814 0,-0.664204 -0.182215,-1.240239 -0.517256,-1.645815 -0.293896,-0.346796 -0.699471,-0.493744 -1.357797,-0.493744 h -1.675204 z m 0.881686,-0.734738 v -2.815519 h 0.793518 c 0.664204,0 0.993367,0.464355 0.993367,1.410699 0,0.940465 -0.329163,1.40482 -0.993367,1.40482 z"
         style="font-style:normal;font-variant:normal;font-weight:bold;font-stretch:normal;font-family:'nimbus sans';-inkscape-font-specification:'nimbus sans Bold';fill:#ffffff;fill-opacity:1;stroke-width:0.24491286px"
         id="path962" />
      <path
         d="m -17.288547,55.716804 0.28214,0.864052 h 0.905197 l -1.481233,-4.284995 h -0.975732 l -1.522379,4.284995 h 0.89932 l 0.288018,-0.864052 z m -0.240994,-0.734739 h -1.116803 l 0.558401,-1.675204 z"
         style="font-style:normal;font-variant:normal;font-weight:bold;font-stretch:normal;font-family:'nimbus sans';-inkscape-font-specification:'nimbus sans Bold';fill:#ffffff;fill-opacity:1;stroke-width:0.24491286px"
         id="path964" />
      <path
         d="m -12.036086,54.276716 h -1.716349 v 0.734739 h 0.975733 c -0.02351,0.240994 -0.08229,0.387942 -0.211605,0.540767 -0.211604,0.258628 -0.540767,0.411454 -0.875808,0.411454 -0.717105,0 -1.222605,-0.623058 -1.222605,-1.504745 0,-0.922831 0.446721,-1.481233 1.199093,-1.481233 0.305651,0 0.564279,0.08817 0.75825,0.258628 0.123437,0.105803 0.188094,0.205727 0.264506,0.429088 h 0.828785 c -0.105802,-0.887565 -0.822907,-1.440088 -1.857419,-1.440088 -1.234361,0 -2.074901,0.911076 -2.074901,2.245361 0,1.299018 0.846418,2.245361 2.004366,2.245361 0.576035,0 0.963977,-0.205727 1.29314,-0.687715 l 0.105803,0.564279 h 0.529011 z"
         style="font-style:normal;font-variant:normal;font-weight:bold;font-stretch:normal;font-family:'nimbus sans';-inkscape-font-specification:'nimbus sans Bold';fill:#ffffff;fill-opacity:1;stroke-width:0.24491286px"
         id="path966" />
      <path
         d="m -10.300081,54.735193 h 2.0513903 v -0.734739 h -2.0513903 v -0.969855 h 2.2159717 v -0.734738 h -3.0976577 v 4.284995 h 3.2034601 v -0.734738 h -2.3217741 z"
         style="font-style:normal;font-variant:normal;font-weight:bold;font-stretch:normal;font-family:'nimbus sans';-inkscape-font-specification:'nimbus sans Bold';fill:#ffffff;fill-opacity:1;stroke-width:0.24491286px"
         id="path968" />
      <path
         d="m -3.5406708,54.276716 h -1.7163493 v 0.734739 h 0.9757328 c -0.023512,0.240994 -0.082291,0.387942 -0.2116047,0.540767 -0.2116047,0.258628 -0.5407676,0.411454 -0.8758084,0.411454 -0.7171049,0 -1.222605,-0.623058 -1.222605,-1.504745 0,-0.922831 0.446721,-1.481233 1.1990934,-1.481233 0.3056512,0 0.5642792,0.08817 0.7582502,0.258628 0.1234361,0.105803 0.1880931,0.205727 0.2645059,0.429088 h 0.8287851 C -3.6464732,52.777849 -4.363578,52.225326 -5.39809,52.225326 c -1.2343608,0 -2.0749017,0.911076 -2.0749017,2.245361 0,1.299018 0.8464188,2.245361 2.0043668,2.245361 0.5760351,0 0.9639771,-0.205727 1.29314,-0.687715 l 0.1058023,0.564279 h 0.5290118 z"
         style="font-style:normal;font-variant:normal;font-weight:bold;font-stretch:normal;font-family:'nimbus sans';-inkscape-font-specification:'nimbus sans Bold';fill:#ffffff;fill-opacity:1;stroke-width:0.24491286px"
         id="path970" />
      <path
         d="M -1.8046662,54.735193 H 0.24672399 V 54.000454 H -1.8046662 V 53.030599 H 0.41130543 V 52.295861 H -2.6863525 v 4.284995 H 0.51710779 V 55.846118 H -1.8046662 Z"
         style="font-style:normal;font-variant:normal;font-weight:bold;font-stretch:normal;font-family:'nimbus sans';-inkscape-font-specification:'nimbus sans Bold';fill:#ffffff;fill-opacity:1;stroke-width:0.24491286px"
         id="path972" />
      <path
         d="M 3.7791622,56.580856 H 4.6608485 V 52.295861 H 3.7791622 v 2.915443 L 2.0804466,52.295861 h -0.905198 v 4.284995 H 2.0569349 V 53.61839 Z"
         style="font-style:normal;font-variant:normal;font-weight:bold;font-stretch:normal;font-family:'nimbus sans';-inkscape-font-specification:'nimbus sans Bold';fill:#ffffff;fill-opacity:1;stroke-width:0.24491286px"
         id="path974" />
      <path
         d="m 9.5982937,55.716804 0.2821396,0.864052 H 10.785631 L 9.3043983,52.295861 H 8.3286654 l -1.5223783,4.284995 h 0.89932 L 7.9936246,55.716804 Z M 9.3572995,54.982065 H 8.2404968 l 0.5584013,-1.675204 z"
         style="font-style:normal;font-variant:normal;font-weight:bold;font-stretch:normal;font-family:'nimbus sans';-inkscape-font-specification:'nimbus sans Bold';fill:#ffffff;fill-opacity:1;stroke-width:0.24491286px"
         id="path976" />
      <path
         d="m 13.668467,52.295861 v 2.903687 c 0,0.517256 -0.264506,0.764128 -0.817029,0.764128 -0.552523,0 -0.817029,-0.246872 -0.817029,-0.764128 v -2.903687 h -0.881687 v 2.903687 c 0,0.481988 0.129314,0.822907 0.417332,1.081535 0.311529,0.28214 0.764128,0.434965 1.281384,0.434965 0.517256,0 0.969855,-0.152825 1.281384,-0.434965 0.288018,-0.258628 0.417332,-0.599547 0.417332,-1.081535 v -2.903687 z"
         style="font-style:normal;font-variant:normal;font-weight:bold;font-stretch:normal;font-family:'nimbus sans';-inkscape-font-specification:'nimbus sans Bold';fill:#ffffff;fill-opacity:1;stroke-width:0.24491286px"
         id="path978" />
      <path
         d="m 16.27036,54.735193 h 1.875053 V 54.000454 H 16.27036 v -0.969855 h 2.127803 v -0.734738 h -3.009489 v 4.284995 h 0.881686 z"
         style="font-style:normal;font-variant:normal;font-weight:bold;font-stretch:normal;font-family:'nimbus sans';-inkscape-font-specification:'nimbus sans Bold';fill:#ffffff;fill-opacity:1;stroke-width:0.24491286px"
         id="path980" />
      <path
         d="m 22.080491,53.600757 c -0.0059,-0.887565 -0.599547,-1.375431 -1.681082,-1.375431 -1.028634,0 -1.622303,0.481988 -1.622303,1.316652 0,0.664203 0.335041,0.987488 1.204971,1.15207 l 0.599547,0.117558 c 0.587791,0.11168 0.805273,0.276262 0.805273,0.623058 0,0.358553 -0.329163,0.576035 -0.864052,0.576035 -0.599547,0 -0.934588,-0.25275 -0.963977,-0.711227 h -0.858175 c 0.0529,0.916954 0.681837,1.416576 1.775128,1.416576 1.105047,0 1.757495,-0.511378 1.757495,-1.387186 0,-0.67596 -0.340919,-1.028634 -1.134436,-1.18146 l -0.670082,-0.129314 c -0.628936,-0.123436 -0.811151,-0.246872 -0.811151,-0.558401 0,-0.323285 0.282139,-0.529012 0.740616,-0.529012 0.558402,0 0.869931,0.235116 0.89932,0.670082 z"
         style="font-style:normal;font-variant:normal;font-weight:bold;font-stretch:normal;font-family:'nimbus sans';-inkscape-font-specification:'nimbus sans Bold';fill:#ffffff;fill-opacity:1;stroke-width:0.24491286px"
         id="path982" />
      <path
         d="m 24.655932,53.030599 h 1.251994 v -0.734738 h -3.432699 v 0.734738 h 1.299018 v 3.550257 h 0.881687 z"
         style="font-style:normal;font-variant:normal;font-weight:bold;font-stretch:normal;font-family:'nimbus sans';-inkscape-font-specification:'nimbus sans Bold';fill:#ffffff;fill-opacity:1;stroke-width:0.24491286px"
         id="path984" />
      <path
         d="m 27.286387,54.735193 h 2.05139 v -0.734739 h -2.05139 v -0.969855 h 2.215971 v -0.734738 h -3.097657 v 4.284995 h 3.20346 v -0.734738 h -2.321774 z"
         style="font-style:normal;font-variant:normal;font-weight:bold;font-stretch:normal;font-family:'nimbus sans';-inkscape-font-specification:'nimbus sans Bold';fill:#ffffff;fill-opacity:1;stroke-width:0.24491286px"
         id="path986" />
      <path
         d="m 32.846707,54.635269 v 1.945587 h 0.881687 v -4.284995 h -0.887565 v 1.604669 h -1.692837 v -1.604669 h -0.881687 v 4.284995 h 0.881687 v -1.945587 z"
         style="font-style:normal;font-variant:normal;font-weight:bold;font-stretch:normal;font-family:'nimbus sans';-inkscape-font-specification:'nimbus sans Bold';fill:#ffffff;fill-opacity:1;stroke-width:0.24491286px"
         id="path988" />
      <path
         d="m 35.460352,54.735193 h 2.05139 v -0.734739 h -2.05139 v -0.969855 h 2.215972 v -0.734738 h -3.097658 v 4.284995 h 3.20346 v -0.734738 h -2.321774 z"
         style="font-style:normal;font-variant:normal;font-weight:bold;font-stretch:normal;font-family:'nimbus sans';-inkscape-font-specification:'nimbus sans Bold';fill:#ffffff;fill-opacity:1;stroke-width:0.24491286px"
         id="path990" />
      <path
         d="m 41.044184,56.580856 h 0.881687 v -4.284995 h -0.881687 v 2.915443 l -1.698715,-2.915443 h -0.905198 v 4.284995 h 0.881686 V 53.61839 Z"
         style="font-style:normal;font-variant:normal;font-weight:bold;font-stretch:normal;font-family:'nimbus sans';-inkscape-font-specification:'nimbus sans Bold';fill:#ffffff;fill-opacity:1;stroke-width:0.24491286px"
         id="path992" />
      <path
         d="M 43.828296,52.313495 H 42.94661 v 1.23436 l 0.240994,1.816274 h 0.39382 l 0.246872,-1.816274 z m 0,3.409187 H 42.94661 v 0.858174 h 0.881686 z"
         style="font-style:normal;font-variant:normal;font-weight:bold;font-stretch:normal;font-family:'nimbus sans';-inkscape-font-specification:'nimbus sans Bold';fill:#ffffff;fill-opacity:1;stroke-width:0.24491286px"
         id="path994" />
    </g>
  </g>
</svg>
