<?xml version="1.0" encoding="UTF-8" standalone="no"?>
<!-- Created with Inkscape (http://www.inkscape.org/) -->

<svg
   xmlns:dc="http://purl.org/dc/elements/1.1/"
   xmlns:cc="http://creativecommons.org/ns#"
   xmlns:rdf="http://www.w3.org/1999/02/22-rdf-syntax-ns#"
   xmlns:svg="http://www.w3.org/2000/svg"
   xmlns="http://www.w3.org/2000/svg"
   xmlns:sodipodi="http://sodipodi.sourceforge.net/DTD/sodipodi-0.dtd"
   xmlns:inkscape="http://www.inkscape.org/namespaces/inkscape"
   width="100mm"
   height="100mm"
   viewBox="0 0 100 100"
   version="1.1"
   id="svg8"
   inkscape:version="0.92.2 2405546, 2018-03-11"
   sodipodi:docname="cenzura_paths.svg">
  <defs
     id="defs2" />
  <sodipodi:namedview
     id="base"
     pagecolor="#ffffff"
     bordercolor="#666666"
     borderopacity="1.0"
     inkscape:pageopacity="0.0"
     inkscape:pageshadow="2"
     inkscape:zoom="2.2595417"
     inkscape:cx="153.85575"
     inkscape:cy="213.42464"
     inkscape:document-units="mm"
     inkscape:current-layer="layer1"
     showgrid="true"
     inkscape:window-width="1366"
     inkscape:window-height="704"
     inkscape:window-x="0"
     inkscape:window-y="27"
     inkscape:window-maximized="1">
    <inkscape:grid
       type="xygrid"
       id="grid817"
       units="mm"
       spacingx="0.099999999"
       spacingy="0.099999999" />
  </sodipodi:namedview>
  <metadata
     id="metadata5">
    <rdf:RDF>
      <cc:Work
         rdf:about="">
        <dc:format>image/svg+xml</dc:format>
        <dc:type
           rdf:resource="http://purl.org/dc/dcmitype/StillImage" />
        <dc:title></dc:title>
      </cc:Work>
    </rdf:RDF>
  </metadata>
  <g
     inkscape:groupmode="layer"
     id="layer2"
     inkscape:label="background">
    <path
       style="fill:none;fill-rule:evenodd;stroke:#ff0dbf;stroke-width:5.97120905;stroke-linecap:butt;stroke-linejoin:miter;stroke-miterlimit:4;stroke-dasharray:none;stroke-opacity:1"
       d="M 15.411226,62.123172 62.17056,15.399604"
       id="path4797-3"
       inkscape:connector-curvature="0" />
  </g>
  <g
     inkscape:label="Layer 1"
     inkscape:groupmode="layer"
     id="layer1"
     transform="translate(0,-197)"
     style="opacity:0.97">
    <g
       aria-label="CENZURA?"
       transform="matrix(0.23841794,-0.23841794,0.23841794,0.23841794,-21.9066,213.96938)"
       style="font-style:normal;font-variant:normal;font-weight:normal;font-stretch:normal;font-size:24px;line-height:0px;font-family:Montserrat;-inkscape-font-specification:'Montserrat, Normal';font-variant-ligatures:normal;font-variant-caps:normal;font-variant-numeric:normal;text-align:start;letter-spacing:0px;word-spacing:0px;writing-mode:lr-tb;text-anchor:start;fill:#000000;fill-opacity:1;stroke:none;stroke-width:1px;stroke-linecap:butt;stroke-linejoin:miter;stroke-opacity:1"
       id="flowRoot819">
      <path
         d="m 31.485188,81.517844 c -0.120001,-1.512 -0.432001,-2.472 -1.176001,-3.456 -1.344,-1.776 -3.504,-2.76 -6.12,-2.76 -4.944,0 -8.016,3.528 -8.016,9.192 0,5.64 3.048,9.144 7.92,9.144 4.368,0 7.248,-2.52 7.464001,-6.528 h -3.504001 c -0.239999,2.232 -1.631999,3.504 -3.864,3.504 -2.784,0 -4.416,-2.256 -4.416,-6.072 0,-3.864 1.704,-6.168 4.536,-6.168 2.088,0 3.264,1.008 3.744,3.144 z"
         style="font-style:normal;font-variant:normal;font-weight:bold;font-stretch:normal;line-height:100%;font-family:'nimbus sans';-inkscape-font-specification:'nimbus sans Bold'"
         id="path830"
         inkscape:connector-curvature="0" />
      <path
         d="m 37.956938,85.549844 h 8.375999 v -3 h -8.375999 v -3.96 h 9.047999 v -3 h -12.648 v 17.496 h 13.08 v -3 h -9.479999 z"
         style="font-style:normal;font-variant:normal;font-weight:bold;font-stretch:normal;line-height:100%;font-family:'nimbus sans';-inkscape-font-specification:'nimbus sans Bold'"
         id="path832"
         inkscape:connector-curvature="0" />
      <path
         d="m 60.756187,93.085844 h 3.600001 v -17.496 h -3.600001 v 11.904 l -6.935999,-11.904 h -3.696001 v 17.496 h 3.6 v -12.096 z"
         style="font-style:normal;font-variant:normal;font-weight:bold;font-stretch:normal;line-height:100%;font-family:'nimbus sans';-inkscape-font-specification:'nimbus sans Bold'"
         id="path834"
         inkscape:connector-curvature="0" />
      <path
         d="m 79.661062,75.589844 h -13.152 v 3 h 8.952 l -8.952,11.496 v 3 h 13.152 v -3 h -8.927999 l 8.927999,-11.496 z"
         style="font-style:normal;font-variant:normal;font-weight:bold;font-stretch:normal;line-height:100%;font-family:'nimbus sans';-inkscape-font-specification:'nimbus sans Bold'"
         id="path836"
         inkscape:connector-curvature="0" />
      <path
         d="m 92.181938,75.589844 v 11.856 c 0,2.112 -1.08,3.12 -3.336,3.12 -2.256,0 -3.336,-1.008 -3.336,-3.12 v -11.856 h -3.600001 v 11.856 c 0,1.968 0.528001,3.36 1.704001,4.416 1.271999,1.152 3.119999,1.776 5.232,1.776 2.111999,0 3.959999,-0.624 5.232,-1.776 1.176,-1.056 1.703999,-2.448 1.703999,-4.416 v -11.856 z"
         style="font-style:normal;font-variant:normal;font-weight:bold;font-stretch:normal;line-height:100%;font-family:'nimbus sans';-inkscape-font-specification:'nimbus sans Bold'"
         id="path838"
         inkscape:connector-curvature="0" />
      <path
         d="m 102.94969,86.149844 h 4.128 c 1.56,0 2.232,0.624 2.232,2.064 v 0.72 c -0.024,0.456 -0.024,0.888 -0.024,1.152 0,1.656 0.096,2.16 0.528,3 h 3.864 v -0.648 c -0.552,-0.312 -0.768,-0.672 -0.768,-1.44 -0.096,-5.16 -0.192,-5.4 -2.424,-6.36 1.968,-0.768 2.952,-2.184 2.952,-4.32 0,-1.392 -0.48,-2.664 -1.32,-3.528 -0.792,-0.816 -1.896,-1.2 -3.384,-1.2 h -9.384002 v 17.496 h 3.600002 z m 0,-3 v -4.56 h 4.344 c 1.032,0 1.44,0.096 1.896,0.456 0.432,0.36 0.648,0.96 0.648,1.776 0,0.84 -0.216,1.512 -0.648,1.872 -0.408,0.336 -0.864,0.456 -1.896,0.456 z"
         style="font-style:normal;font-variant:normal;font-weight:bold;font-stretch:normal;line-height:100%;font-family:'nimbus sans';-inkscape-font-specification:'nimbus sans Bold'"
         id="path840"
         inkscape:connector-curvature="0" />
      <path
         d="m 126.84431,89.557844 1.152,3.528 h 3.696 l -6.048,-17.496 h -3.984 l -6.216,17.496 h 3.672 l 1.176,-3.528 z m -0.984,-3 h -4.56 l 2.28,-6.84 z"
         style="font-style:normal;font-variant:normal;font-weight:bold;font-stretch:normal;line-height:100%;font-family:'nimbus sans';-inkscape-font-specification:'nimbus sans Bold'"
         id="path842"
         inkscape:connector-curvature="0" />
      <path
         d="m 141.02006,88.261844 c 0,-1.584 0.168,-1.848 1.608,-2.856 2.232,-1.584 2.88,-2.64 2.88,-4.656 0,-3.264 -2.448,-5.52 -5.976,-5.52 -2.064,0 -3.672,0.72 -4.704,2.136 -0.792,1.056 -1.104,2.208 -1.128,4.176 h 3.264 c 0,-2.16 1.008,-3.48 2.664,-3.48 1.416,0 2.496,1.176 2.496,2.76 0,1.08 -0.288,1.536 -1.68,2.688 -1.92,1.632 -2.472,2.712 -2.4,4.752 z m 0.384,1.32 h -3.6 v 3.504 h 3.6 z"
         style="font-style:normal;font-variant:normal;font-weight:bold;font-stretch:normal;line-height:100%;font-family:'nimbus sans';-inkscape-font-specification:'nimbus sans Bold'"
         id="path844"
         inkscape:connector-curvature="0" />
    </g>
    <g
       aria-label="Direktiva EU bo prisilila internetne platforme k obvezni uporabi cenzurnih filtrov!"
       transform="matrix(0.12807066,-0.12807197,0.12807066,0.12807197,-21.85164,240.3577)"
       style="font-style:normal;font-variant:normal;font-weight:normal;font-stretch:normal;font-size:24px;line-height:0px;font-family:Montserrat;-inkscape-font-specification:'Montserrat, Normal';font-variant-ligatures:normal;font-variant-caps:normal;font-variant-numeric:normal;text-align:center;letter-spacing:0px;word-spacing:0px;writing-mode:lr-tb;text-anchor:middle;fill:#000000;fill-opacity:1;stroke:none;stroke-width:1px;stroke-linecap:butt;stroke-linejoin:miter;stroke-opacity:1"
       id="flowRoot827">
      <path
         d="m 27.248305,168.67764 h 6.744 c 4.416,0 7.128,-3.312 7.128,-8.76 0,-5.424 -2.688,-8.736 -7.128,-8.736 h -6.744 z m 2.232,-1.968 v -13.56 h 4.128 c 3.456,0 5.28,2.328 5.28,6.792 0,4.44 -1.824,6.768 -5.28,6.768 z"
         style="font-style:normal;font-variant:normal;font-weight:normal;font-stretch:normal;line-height:100%;font-family:'Nimbus Sans';-inkscape-font-specification:'Nimbus Sans';text-align:center;text-anchor:middle"
         id="path847"
         inkscape:connector-curvature="0" />
      <path
         d="m 46.056055,156.10164 h -1.992 v 12.576 h 1.992 z m 0,-4.92 h -2.016 v 2.52 h 2.016 z"
         style="font-style:normal;font-variant:normal;font-weight:normal;font-stretch:normal;line-height:100%;font-family:'Nimbus Sans';-inkscape-font-specification:'Nimbus Sans';text-align:center;text-anchor:middle"
         id="path849"
         inkscape:connector-curvature="0" />
      <path
         d="m 49.455805,156.10164 v 12.576 h 2.016 v -6.528 c 0.024,-3.024 1.272,-4.368 4.032,-4.296 v -2.04 c -0.336,-0.048 -0.528,-0.072 -0.768,-0.072 -1.296,0 -2.28,0.768 -3.432,2.64 v -2.28 z"
         style="font-style:normal;font-variant:normal;font-weight:normal;font-stretch:normal;line-height:100%;font-family:'Nimbus Sans';-inkscape-font-specification:'Nimbus Sans';text-align:center;text-anchor:middle"
         id="path851"
         inkscape:connector-curvature="0" />
      <path
         d="m 67.893055,163.06164 c 0,-1.92 -0.144,-3.072 -0.504,-4.008 -0.816,-2.064 -2.736,-3.312 -5.088,-3.312 -3.504,0 -5.76,2.664 -5.76,6.816 0,4.152 2.16,6.672 5.712,6.672 2.88,0 4.872,-1.632 5.376,-4.368 h -2.016 c -0.552,1.656 -1.68,2.52 -3.288,2.52 -1.272,0 -2.352,-0.576 -3.024,-1.632 -0.48,-0.72 -0.648,-1.44 -0.672,-2.688 z m -9.216,-1.632 c 0.168,-2.328 1.584,-3.84 3.6,-3.84 2.04,0 3.456,1.584 3.456,3.84 z"
         style="font-style:normal;font-variant:normal;font-weight:normal;font-stretch:normal;line-height:100%;font-family:'Nimbus Sans';-inkscape-font-specification:'Nimbus Sans';text-align:center;text-anchor:middle"
         id="path853"
         inkscape:connector-curvature="0" />
      <path
         d="m 72.32443,151.18164 h -1.992 v 17.496 h 1.992 v -4.896 l 1.944,-1.92 4.248,6.816 h 2.472 l -5.136,-8.232 4.368,-4.344 h -2.568 l -5.328,5.328 z"
         style="font-style:normal;font-variant:normal;font-weight:normal;font-stretch:normal;line-height:100%;font-family:'Nimbus Sans';-inkscape-font-specification:'Nimbus Sans';text-align:center;text-anchor:middle"
         id="path855"
         inkscape:connector-curvature="0" />
      <path
         d="m 87.458305,156.10164 h -2.064 v -3.456 h -1.992 v 3.456 h -1.704 v 1.632 h 1.704 v 9.504 c 0,1.296 0.864,1.992 2.424,1.992 0.528,0 0.96,-0.048 1.632,-0.168 v -1.68 c -0.288,0.072 -0.552,0.096 -0.96,0.096 -0.864,0 -1.104,-0.24 -1.104,-1.128 v -8.616 h 2.064 z"
         style="font-style:normal;font-variant:normal;font-weight:normal;font-stretch:normal;line-height:100%;font-family:'Nimbus Sans';-inkscape-font-specification:'Nimbus Sans';text-align:center;text-anchor:middle"
         id="path857"
         inkscape:connector-curvature="0" />
      <path
         d="m 91.47793,156.10164 h -1.992 v 12.576 h 1.992 z m 0,-4.92 h -2.016 v 2.52 h 2.016 z"
         style="font-style:normal;font-variant:normal;font-weight:normal;font-stretch:normal;line-height:100%;font-family:'Nimbus Sans';-inkscape-font-specification:'Nimbus Sans';text-align:center;text-anchor:middle"
         id="path859"
         inkscape:connector-curvature="0" />
      <path
         d="m 100.0148,168.67764 4.824,-12.576 h -2.256 l -3.551995,10.2 -3.36,-10.2 h -2.256 l 4.416,12.576 z"
         style="font-style:normal;font-variant:normal;font-weight:normal;font-stretch:normal;line-height:100%;font-family:'Nimbus Sans';-inkscape-font-specification:'Nimbus Sans';text-align:center;text-anchor:middle"
         id="path861"
         inkscape:connector-curvature="0" />
      <path
         d="m 117.59293,167.50164 c -0.216,0.048 -0.312,0.048 -0.432,0.048 -0.696,0 -1.08,-0.36 -1.08,-0.984 v -7.392 c 0,-2.232 -1.632,-3.432 -4.728,-3.432 -1.848,0 -3.312,0.528 -4.176,1.464 -0.576,0.648 -0.816,1.368 -0.864,2.616 h 2.016 c 0.168,-1.536 1.08,-2.232 2.952,-2.232 1.824,0 2.808,0.672 2.808,1.872 v 0.528 c -0.024,0.864 -0.456,1.176 -2.088,1.392 -2.832,0.36 -3.264,0.456 -4.032,0.768 -1.464,0.624 -2.208,1.728 -2.208,3.36 0,2.28 1.584,3.72 4.128,3.72 1.584,0 2.856,-0.552 4.272,-1.848 0.144,1.296 0.768,1.848 2.064,1.848 0.432,0 0.696,-0.048 1.368,-0.216 z m -3.504,-2.784 c 0,0.672 -0.192,1.08 -0.792,1.632 -0.816,0.744 -1.8,1.128 -2.976,1.128 -1.56,0 -2.472,-0.744 -2.472,-2.016 0,-1.32 0.864,-1.992 3.024,-2.304 2.136,-0.288 2.544,-0.384 3.216,-0.696 z"
         style="font-style:normal;font-variant:normal;font-weight:normal;font-stretch:normal;line-height:100%;font-family:'Nimbus Sans';-inkscape-font-specification:'Nimbus Sans';text-align:center;text-anchor:middle"
         id="path863"
         inkscape:connector-curvature="0" />
      <path
         d="m 129.16055,160.70964 h 9.528 v -1.968 h -9.528 v -5.592 h 9.888 v -1.968 h -12.12 v 17.496 h 12.552 v -1.968 h -10.32 z"
         style="font-style:normal;font-variant:normal;font-weight:normal;font-stretch:normal;line-height:100%;font-family:'Nimbus Sans';-inkscape-font-specification:'Nimbus Sans';text-align:center;text-anchor:middle"
         id="path865"
         inkscape:connector-curvature="0" />
      <path
         d="m 154.0478,151.18164 v 12.288 c 0,2.352 -1.704,3.792 -4.512,3.792 -1.296,0 -2.352,-0.312 -3.192,-0.912 -0.864,-0.672 -1.272,-1.56 -1.272,-2.88 v -12.288 h -2.232 v 12.288 c 0,3.552 2.544,5.76 6.696,5.76 4.104,0 6.744,-2.256 6.744,-5.76 v -12.288 z"
         style="font-style:normal;font-variant:normal;font-weight:normal;font-stretch:normal;line-height:100%;font-family:'Nimbus Sans';-inkscape-font-specification:'Nimbus Sans';text-align:center;text-anchor:middle"
         id="path867"
         inkscape:connector-curvature="0" />
      <path
         d="m 166.0958,151.18164 v 17.496 h 1.8 v -1.608 c 0.96,1.464 2.232,2.16 3.984,2.16 3.312,0 5.472,-2.712 5.472,-6.888 0,-4.08 -2.04,-6.6 -5.376,-6.6 -1.728,0 -2.952,0.648 -3.888,2.064 v -6.624 z m 5.496,6.432 c 2.232,0 3.672,1.944 3.672,4.944 0,2.856 -1.488,4.8 -3.672,4.8 -2.136,0 -3.504,-1.92 -3.504,-4.872 0,-2.952 1.368,-4.872 3.504,-4.872 z"
         style="font-style:normal;font-variant:normal;font-weight:normal;font-stretch:normal;line-height:100%;font-family:'Nimbus Sans';-inkscape-font-specification:'Nimbus Sans';text-align:center;text-anchor:middle"
         id="path869"
         inkscape:connector-curvature="0" />
      <path
         d="m 184.68718,155.74164 c -3.552,0 -5.664,2.52 -5.664,6.744 0,4.248 2.112,6.744 5.688,6.744 3.552,0 5.688,-2.52 5.688,-6.648 0,-4.368 -2.064,-6.84 -5.712,-6.84 z m 0.024,1.848 c 2.256,0 3.6,1.848 3.6,4.968 0,2.976 -1.392,4.824 -3.6,4.824 -2.232,0 -3.6,-1.848 -3.6,-4.896 0,-3.048 1.368,-4.896 3.6,-4.896 z"
         style="font-style:normal;font-variant:normal;font-weight:normal;font-stretch:normal;line-height:100%;font-family:'Nimbus Sans';-inkscape-font-specification:'Nimbus Sans';text-align:center;text-anchor:middle"
         id="path871"
         inkscape:connector-curvature="0" />
      <path
         d="m 199.4708,173.90964 h 2.016 v -6.552 c 1.056,1.296 2.232,1.872 3.864,1.872 3.264,0 5.376,-2.616 5.376,-6.624 0,-4.224 -2.064,-6.864 -5.4,-6.864 -1.704,0 -3.072,0.768 -4.008,2.256 v -1.896 h -1.848 z m 5.52,-16.296 c 2.208,0 3.648,1.944 3.648,4.944 0,2.856 -1.464,4.8 -3.648,4.8 -2.136,0 -3.504,-1.92 -3.504,-4.872 0,-2.952 1.368,-4.872 3.504,-4.872 z"
         style="font-style:normal;font-variant:normal;font-weight:normal;font-stretch:normal;line-height:100%;font-family:'Nimbus Sans';-inkscape-font-specification:'Nimbus Sans';text-align:center;text-anchor:middle"
         id="path873"
         inkscape:connector-curvature="0" />
      <path
         d="m 213.19018,156.10164 v 12.576 h 2.016 v -6.528 c 0.024,-3.024 1.272,-4.368 4.032,-4.296 v -2.04 c -0.336,-0.048 -0.528,-0.072 -0.768,-0.072 -1.296,0 -2.28,0.768 -3.432,2.64 v -2.28 z"
         style="font-style:normal;font-variant:normal;font-weight:normal;font-stretch:normal;line-height:100%;font-family:'Nimbus Sans';-inkscape-font-specification:'Nimbus Sans';text-align:center;text-anchor:middle"
         id="path875"
         inkscape:connector-curvature="0" />
      <path
         d="m 223.19668,156.10164 h -1.992 v 12.576 h 1.992 z m 0,-4.92 h -2.016 v 2.52 h 2.016 z"
         style="font-style:normal;font-variant:normal;font-weight:normal;font-stretch:normal;line-height:100%;font-family:'Nimbus Sans';-inkscape-font-specification:'Nimbus Sans';text-align:center;text-anchor:middle"
         id="path877"
         inkscape:connector-curvature="0" />
      <path
         d="m 235.45243,159.60564 c -0.024,-2.472 -1.656,-3.864 -4.56,-3.864 -2.928,0 -4.824,1.512 -4.824,3.84 0,1.968 1.008,2.904 3.984,3.624 l 1.872,0.456 c 1.392,0.336 1.944,0.84 1.944,1.728 0,1.2 -1.176,1.992 -2.928,1.992 -1.08,0 -1.992,-0.312 -2.496,-0.84 -0.312,-0.36 -0.456,-0.72 -0.576,-1.608 h -2.112 c 0.096,2.904 1.728,4.296 5.016,4.296 3.168,0 5.184,-1.56 5.184,-3.984 0,-1.872 -1.056,-2.904 -3.552,-3.504 l -1.92,-0.456 c -1.632,-0.384 -2.328,-0.912 -2.328,-1.8 0,-1.176 1.032,-1.896 2.664,-1.896 1.608,0 2.472,0.696 2.52,2.016 z"
         style="font-style:normal;font-variant:normal;font-weight:normal;font-stretch:normal;line-height:100%;font-family:'Nimbus Sans';-inkscape-font-specification:'Nimbus Sans';text-align:center;text-anchor:middle"
         id="path879"
         inkscape:connector-curvature="0" />
      <path
         d="m 240.54043,156.10164 h -1.992 v 12.576 h 1.992 z m 0,-4.92 h -2.016 v 2.52 h 2.016 z"
         style="font-style:normal;font-variant:normal;font-weight:normal;font-stretch:normal;line-height:100%;font-family:'Nimbus Sans';-inkscape-font-specification:'Nimbus Sans';text-align:center;text-anchor:middle"
         id="path881"
         inkscape:connector-curvature="0" />
      <path
         d="m 245.93218,151.18164 h -2.016 v 17.496 h 2.016 z"
         style="font-style:normal;font-variant:normal;font-weight:normal;font-stretch:normal;line-height:100%;font-family:'Nimbus Sans';-inkscape-font-specification:'Nimbus Sans';text-align:center;text-anchor:middle"
         id="path883"
         inkscape:connector-curvature="0" />
      <path
         d="m 251.22793,156.10164 h -1.992 v 12.576 h 1.992 z m 0,-4.92 h -2.016 v 2.52 h 2.016 z"
         style="font-style:normal;font-variant:normal;font-weight:normal;font-stretch:normal;line-height:100%;font-family:'Nimbus Sans';-inkscape-font-specification:'Nimbus Sans';text-align:center;text-anchor:middle"
         id="path885"
         inkscape:connector-curvature="0" />
      <path
         d="m 256.61968,151.18164 h -2.016 v 17.496 h 2.016 z"
         style="font-style:normal;font-variant:normal;font-weight:normal;font-stretch:normal;line-height:100%;font-family:'Nimbus Sans';-inkscape-font-specification:'Nimbus Sans';text-align:center;text-anchor:middle"
         id="path887"
         inkscape:connector-curvature="0" />
      <path
         d="m 271.15543,167.50164 c -0.216,0.048 -0.312,0.048 -0.432,0.048 -0.696,0 -1.08,-0.36 -1.08,-0.984 v -7.392 c 0,-2.232 -1.632,-3.432 -4.728,-3.432 -1.848,0 -3.312,0.528 -4.176,1.464 -0.576,0.648 -0.816,1.368 -0.864,2.616 h 2.016 c 0.168,-1.536 1.08,-2.232 2.952,-2.232 1.824,0 2.808,0.672 2.808,1.872 v 0.528 c -0.024,0.864 -0.456,1.176 -2.088,1.392 -2.832,0.36 -3.264,0.456 -4.032,0.768 -1.464,0.624 -2.208,1.728 -2.208,3.36 0,2.28 1.584,3.72 4.128,3.72 1.584,0 2.856,-0.552 4.272,-1.848 0.144,1.296 0.768,1.848 2.064,1.848 0.432,0 0.696,-0.048 1.368,-0.216 z m -3.504,-2.784 c 0,0.672 -0.192,1.08 -0.792,1.632 -0.816,0.744 -1.8,1.128 -2.976,1.128 -1.56,0 -2.472,-0.744 -2.472,-2.016 0,-1.32 0.864,-1.992 3.024,-2.304 2.136,-0.288 2.544,-0.384 3.216,-0.696 z"
         style="font-style:normal;font-variant:normal;font-weight:normal;font-stretch:normal;line-height:100%;font-family:'Nimbus Sans';-inkscape-font-specification:'Nimbus Sans';text-align:center;text-anchor:middle"
         id="path889"
         inkscape:connector-curvature="0" />
      <path
         d="m 281.93105,156.10164 h -1.992 v 12.576 h 1.992 z m 0,-4.92 h -2.016 v 2.52 h 2.016 z"
         style="font-style:normal;font-variant:normal;font-weight:normal;font-stretch:normal;line-height:100%;font-family:'Nimbus Sans';-inkscape-font-specification:'Nimbus Sans';text-align:center;text-anchor:middle"
         id="path891"
         inkscape:connector-curvature="0" />
      <path
         d="m 285.3548,156.10164 v 12.576 h 2.016 v -6.936 c 0,-2.568 1.344,-4.248 3.408,-4.248 1.584,0 2.592,0.96 2.592,2.472 v 8.712 h 1.992 v -9.504 c 0,-2.088 -1.56,-3.432 -3.984,-3.432 -1.872,0 -3.072,0.72 -4.176,2.472 v -2.112 z"
         style="font-style:normal;font-variant:normal;font-weight:normal;font-stretch:normal;line-height:100%;font-family:'Nimbus Sans';-inkscape-font-specification:'Nimbus Sans';text-align:center;text-anchor:middle"
         id="path893"
         inkscape:connector-curvature="0" />
      <path
         d="m 303.13018,156.10164 h -2.064 v -3.456 h -1.992 v 3.456 h -1.704 v 1.632 h 1.704 v 9.504 c 0,1.296 0.864,1.992 2.424,1.992 0.528,0 0.96,-0.048 1.632,-0.168 v -1.68 c -0.288,0.072 -0.552,0.096 -0.96,0.096 -0.864,0 -1.104,-0.24 -1.104,-1.128 v -8.616 h 2.064 z"
         style="font-style:normal;font-variant:normal;font-weight:normal;font-stretch:normal;line-height:100%;font-family:'Nimbus Sans';-inkscape-font-specification:'Nimbus Sans';text-align:center;text-anchor:middle"
         id="path895"
         inkscape:connector-curvature="0" />
      <path
         d="m 315.6743,163.06164 c 0,-1.92 -0.144,-3.072 -0.504,-4.008 -0.816,-2.064 -2.736,-3.312 -5.088,-3.312 -3.504,0 -5.76,2.664 -5.76,6.816 0,4.152 2.16,6.672 5.712,6.672 2.88,0 4.872,-1.632 5.376,-4.368 h -2.016 c -0.552,1.656 -1.68,2.52 -3.288,2.52 -1.272,0 -2.352,-0.576 -3.024,-1.632 -0.48,-0.72 -0.648,-1.44 -0.672,-2.688 z m -9.216,-1.632 c 0.168,-2.328 1.584,-3.84 3.6,-3.84 2.04,0 3.456,1.584 3.456,3.84 z"
         style="font-style:normal;font-variant:normal;font-weight:normal;font-stretch:normal;line-height:100%;font-family:'Nimbus Sans';-inkscape-font-specification:'Nimbus Sans';text-align:center;text-anchor:middle"
         id="path897"
         inkscape:connector-curvature="0" />
      <path
         d="m 318.37768,156.10164 v 12.576 h 2.016 v -6.528 c 0.024,-3.024 1.272,-4.368 4.032,-4.296 v -2.04 c -0.336,-0.048 -0.528,-0.072 -0.768,-0.072 -1.296,0 -2.28,0.768 -3.432,2.64 v -2.28 z"
         style="font-style:normal;font-variant:normal;font-weight:normal;font-stretch:normal;line-height:100%;font-family:'Nimbus Sans';-inkscape-font-specification:'Nimbus Sans';text-align:center;text-anchor:middle"
         id="path899"
         inkscape:connector-curvature="0" />
      <path
         d="m 326.4173,156.10164 v 12.576 h 2.016 v -6.936 c 0,-2.568 1.344,-4.248 3.408,-4.248 1.584,0 2.592,0.96 2.592,2.472 v 8.712 h 1.992 v -9.504 c 0,-2.088 -1.56,-3.432 -3.984,-3.432 -1.872,0 -3.072,0.72 -4.176,2.472 v -2.112 z"
         style="font-style:normal;font-variant:normal;font-weight:normal;font-stretch:normal;line-height:100%;font-family:'Nimbus Sans';-inkscape-font-specification:'Nimbus Sans';text-align:center;text-anchor:middle"
         id="path901"
         inkscape:connector-curvature="0" />
      <path
         d="m 350.40868,163.06164 c 0,-1.92 -0.144,-3.072 -0.504,-4.008 -0.816,-2.064 -2.736,-3.312 -5.088,-3.312 -3.504,0 -5.76,2.664 -5.76,6.816 0,4.152 2.16,6.672 5.712,6.672 2.88,0 4.872,-1.632 5.376,-4.368 h -2.016 c -0.552,1.656 -1.68,2.52 -3.288,2.52 -1.272,0 -2.352,-0.576 -3.024,-1.632 -0.48,-0.72 -0.648,-1.44 -0.672,-2.688 z m -9.216,-1.632 c 0.168,-2.328 1.584,-3.84 3.6,-3.84 2.04,0 3.456,1.584 3.456,3.84 z"
         style="font-style:normal;font-variant:normal;font-weight:normal;font-stretch:normal;line-height:100%;font-family:'Nimbus Sans';-inkscape-font-specification:'Nimbus Sans';text-align:center;text-anchor:middle"
         id="path903"
         inkscape:connector-curvature="0" />
      <path
         d="m 357.31768,156.10164 h -2.064 v -3.456 h -1.992 v 3.456 h -1.704 v 1.632 h 1.704 v 9.504 c 0,1.296 0.864,1.992 2.424,1.992 0.528,0 0.96,-0.048 1.632,-0.168 v -1.68 c -0.288,0.072 -0.552,0.096 -0.96,0.096 -0.864,0 -1.104,-0.24 -1.104,-1.128 v -8.616 h 2.064 z"
         style="font-style:normal;font-variant:normal;font-weight:normal;font-stretch:normal;line-height:100%;font-family:'Nimbus Sans';-inkscape-font-specification:'Nimbus Sans';text-align:center;text-anchor:middle"
         id="path905"
         inkscape:connector-curvature="0" />
      <path
         d="m 359.4173,156.10164 v 12.576 h 2.016 v -6.936 c 0,-2.568 1.344,-4.248 3.408,-4.248 1.584,0 2.592,0.96 2.592,2.472 v 8.712 h 1.992 v -9.504 c 0,-2.088 -1.56,-3.432 -3.984,-3.432 -1.872,0 -3.072,0.72 -4.176,2.472 v -2.112 z"
         style="font-style:normal;font-variant:normal;font-weight:normal;font-stretch:normal;line-height:100%;font-family:'Nimbus Sans';-inkscape-font-specification:'Nimbus Sans';text-align:center;text-anchor:middle"
         id="path907"
         inkscape:connector-curvature="0" />
      <path
         d="m 383.40868,163.06164 c 0,-1.92 -0.144,-3.072 -0.504,-4.008 -0.816,-2.064 -2.736,-3.312 -5.088,-3.312 -3.504,0 -5.76,2.664 -5.76,6.816 0,4.152 2.16,6.672 5.712,6.672 2.88,0 4.872,-1.632 5.376,-4.368 h -2.016 c -0.552,1.656 -1.68,2.52 -3.288,2.52 -1.272,0 -2.352,-0.576 -3.024,-1.632 -0.48,-0.72 -0.648,-1.44 -0.672,-2.688 z m -9.216,-1.632 c 0.168,-2.328 1.584,-3.84 3.6,-3.84 2.04,0 3.456,1.584 3.456,3.84 z"
         style="font-style:normal;font-variant:normal;font-weight:normal;font-stretch:normal;line-height:100%;font-family:'Nimbus Sans';-inkscape-font-specification:'Nimbus Sans';text-align:center;text-anchor:middle"
         id="path909"
         inkscape:connector-curvature="0" />
      <path
         d="m 392.4083,173.90964 h 2.016 v -6.552 c 1.056,1.296 2.232,1.872 3.864,1.872 3.264,0 5.376,-2.616 5.376,-6.624 0,-4.224 -2.064,-6.864 -5.4,-6.864 -1.704,0 -3.072,0.768 -4.008,2.256 v -1.896 h -1.848 z m 5.52,-16.296 c 2.208,0 3.648,1.944 3.648,4.944 0,2.856 -1.464,4.8 -3.648,4.8 -2.136,0 -3.504,-1.92 -3.504,-4.872 0,-2.952 1.368,-4.872 3.504,-4.872 z"
         style="font-style:normal;font-variant:normal;font-weight:normal;font-stretch:normal;line-height:100%;font-family:'Nimbus Sans';-inkscape-font-specification:'Nimbus Sans';text-align:center;text-anchor:middle"
         id="path911"
         inkscape:connector-curvature="0" />
      <path
         d="m 408.11968,151.18164 h -2.016 v 17.496 h 2.016 z"
         style="font-style:normal;font-variant:normal;font-weight:normal;font-stretch:normal;line-height:100%;font-family:'Nimbus Sans';-inkscape-font-specification:'Nimbus Sans';text-align:center;text-anchor:middle"
         id="path913"
         inkscape:connector-curvature="0" />
      <path
         d="m 422.65543,167.50164 c -0.216,0.048 -0.312,0.048 -0.432,0.048 -0.696,0 -1.08,-0.36 -1.08,-0.984 v -7.392 c 0,-2.232 -1.632,-3.432 -4.728,-3.432 -1.848,0 -3.312,0.528 -4.176,1.464 -0.576,0.648 -0.816,1.368 -0.864,2.616 h 2.016 c 0.168,-1.536 1.08,-2.232 2.952,-2.232 1.824,0 2.808,0.672 2.808,1.872 v 0.528 c -0.024,0.864 -0.456,1.176 -2.088,1.392 -2.832,0.36 -3.264,0.456 -4.032,0.768 -1.464,0.624 -2.208,1.728 -2.208,3.36 0,2.28 1.584,3.72 4.128,3.72 1.584,0 2.856,-0.552 4.272,-1.848 0.144,1.296 0.768,1.848 2.064,1.848 0.432,0 0.696,-0.048 1.368,-0.216 z m -3.504,-2.784 c 0,0.672 -0.192,1.08 -0.792,1.632 -0.816,0.744 -1.8,1.128 -2.976,1.128 -1.56,0 -2.472,-0.744 -2.472,-2.016 0,-1.32 0.864,-1.992 3.024,-2.304 2.136,-0.288 2.544,-0.384 3.216,-0.696 z"
         style="font-style:normal;font-variant:normal;font-weight:normal;font-stretch:normal;line-height:100%;font-family:'Nimbus Sans';-inkscape-font-specification:'Nimbus Sans';text-align:center;text-anchor:middle"
         id="path915"
         inkscape:connector-curvature="0" />
      <path
         d="m 428.98955,156.10164 h -2.064 v -3.456 h -1.992 v 3.456 h -1.704 v 1.632 h 1.704 v 9.504 c 0,1.296 0.864,1.992 2.424,1.992 0.528,0 0.96,-0.048 1.632,-0.168 v -1.68 c -0.288,0.072 -0.552,0.096 -0.96,0.096 -0.864,0 -1.104,-0.24 -1.104,-1.128 v -8.616 h 2.064 z"
         style="font-style:normal;font-variant:normal;font-weight:normal;font-stretch:normal;line-height:100%;font-family:'Nimbus Sans';-inkscape-font-specification:'Nimbus Sans';text-align:center;text-anchor:middle"
         id="path917"
         inkscape:connector-curvature="0" />
      <path
         d="m 435.7418,156.10164 h -2.088 v -1.968 c 0,-0.84 0.456,-1.272 1.392,-1.272 0.168,0 0.24,0 0.696,0.024 v -1.656 c -0.456,-0.096 -0.72,-0.12 -1.128,-0.12 -1.848,0 -2.952,1.056 -2.952,2.856 v 2.136 h -1.68 v 1.632 h 1.68 v 10.944 h 1.992 v -10.944 h 2.088 z"
         style="font-style:normal;font-variant:normal;font-weight:normal;font-stretch:normal;line-height:100%;font-family:'Nimbus Sans';-inkscape-font-specification:'Nimbus Sans';text-align:center;text-anchor:middle"
         id="path919"
         inkscape:connector-curvature="0" />
      <path
         d="m 442.49968,155.74164 c -3.552,0 -5.664,2.52 -5.664,6.744 0,4.248 2.112,6.744 5.688,6.744 3.552,0 5.688,-2.52 5.688,-6.648 0,-4.368 -2.064,-6.84 -5.712,-6.84 z m 0.024,1.848 c 2.256,0 3.6,1.848 3.6,4.968 0,2.976 -1.392,4.824 -3.6,4.824 -2.232,0 -3.6,-1.848 -3.6,-4.896 0,-3.048 1.368,-4.896 3.6,-4.896 z"
         style="font-style:normal;font-variant:normal;font-weight:normal;font-stretch:normal;line-height:100%;font-family:'Nimbus Sans';-inkscape-font-specification:'Nimbus Sans';text-align:center;text-anchor:middle"
         id="path921"
         inkscape:connector-curvature="0" />
      <path
         d="m 450.98705,156.10164 v 12.576 h 2.016 v -6.528 c 0.024,-3.024 1.272,-4.368 4.032,-4.296 v -2.04 c -0.336,-0.048 -0.528,-0.072 -0.768,-0.072 -1.296,0 -2.28,0.768 -3.432,2.64 v -2.28 z"
         style="font-style:normal;font-variant:normal;font-weight:normal;font-stretch:normal;line-height:100%;font-family:'Nimbus Sans';-inkscape-font-specification:'Nimbus Sans';text-align:center;text-anchor:middle"
         id="path923"
         inkscape:connector-curvature="0" />
      <path
         d="m 459.02668,156.10164 v 12.576 h 2.016 v -7.896 c 0,-1.824 1.32,-3.288 2.952,-3.288 1.488,0 2.328,0.912 2.328,2.52 v 8.664 h 2.016 v -7.896 c 0,-1.824 1.32,-3.288 2.952,-3.288 1.464,0 2.328,0.936 2.328,2.52 v 8.664 h 2.016 v -9.432 c 0,-2.256 -1.296,-3.504 -3.648,-3.504 -1.68,0 -2.688,0.504 -3.864,1.92 -0.744,-1.344 -1.752,-1.92 -3.384,-1.92 -1.68,0 -2.808,0.624 -3.864,2.136 v -1.776 z"
         style="font-style:normal;font-variant:normal;font-weight:normal;font-stretch:normal;line-height:100%;font-family:'Nimbus Sans';-inkscape-font-specification:'Nimbus Sans';text-align:center;text-anchor:middle"
         id="path925"
         inkscape:connector-curvature="0" />
      <path
         d="m 489.6743,163.06164 c 0,-1.92 -0.144,-3.072 -0.504,-4.008 -0.816,-2.064 -2.736,-3.312 -5.088,-3.312 -3.504,0 -5.76,2.664 -5.76,6.816 0,4.152 2.16,6.672 5.712,6.672 2.88,0 4.872,-1.632 5.376,-4.368 h -2.016 c -0.552,1.656 -1.68,2.52 -3.288,2.52 -1.272,0 -2.352,-0.576 -3.024,-1.632 -0.48,-0.72 -0.648,-1.44 -0.672,-2.688 z m -9.216,-1.632 c 0.168,-2.328 1.584,-3.84 3.6,-3.84 2.04,0 3.456,1.584 3.456,3.84 z"
         style="font-style:normal;font-variant:normal;font-weight:normal;font-stretch:normal;line-height:100%;font-family:'Nimbus Sans';-inkscape-font-specification:'Nimbus Sans';text-align:center;text-anchor:middle"
         id="path927"
         inkscape:connector-curvature="0" />
      <path
         d="m 77.621305,175.18164 h -1.992 v 17.496 h 1.992 v -4.896 l 1.944,-1.92 4.248,6.816 h 2.472 l -5.136,-8.232 4.368,-4.344 h -2.568 l -5.328,5.328 z"
         style="font-style:normal;font-variant:normal;font-weight:normal;font-stretch:normal;line-height:100%;font-family:'Nimbus Sans';-inkscape-font-specification:'Nimbus Sans';text-align:center;text-anchor:middle"
         id="path929"
         inkscape:connector-curvature="0" />
      <path
         d="m 99.421555,179.74164 c -3.552,0 -5.664,2.52 -5.664,6.744 0,4.248 2.112,6.744 5.688,6.744 3.551995,0 5.687995,-2.52 5.687995,-6.648 0,-4.368 -2.064,-6.84 -5.711995,-6.84 z m 0.024,1.848 c 2.255995,0 3.599995,1.848 3.599995,4.968 0,2.976 -1.392,4.824 -3.599995,4.824 -2.232,0 -3.6,-1.848 -3.6,-4.896 0,-3.048 1.368,-4.896 3.6,-4.896 z"
         style="font-style:normal;font-variant:normal;font-weight:normal;font-stretch:normal;line-height:100%;font-family:'Nimbus Sans';-inkscape-font-specification:'Nimbus Sans';text-align:center;text-anchor:middle"
         id="path931"
         inkscape:connector-curvature="0" />
      <path
         d="m 107.54893,175.18164 v 17.496 h 1.8 v -1.608 c 0.96,1.464 2.232,2.16 3.984,2.16 3.312,0 5.472,-2.712 5.472,-6.888 0,-4.08 -2.04,-6.6 -5.376,-6.6 -1.728,0 -2.952,0.648 -3.888,2.064 v -6.624 z m 5.496,6.432 c 2.232,0 3.672,1.944 3.672,4.944 0,2.856 -1.488,4.8 -3.672,4.8 -2.136,0 -3.504,-1.92 -3.504,-4.872 0,-2.952 1.368,-4.872 3.504,-4.872 z"
         style="font-style:normal;font-variant:normal;font-weight:normal;font-stretch:normal;line-height:100%;font-family:'Nimbus Sans';-inkscape-font-specification:'Nimbus Sans';text-align:center;text-anchor:middle"
         id="path933"
         inkscape:connector-curvature="0" />
      <path
         d="m 126.17105,192.67764 4.824,-12.576 h -2.256 l -3.552,10.2 -3.36,-10.2 h -2.256 l 4.416,12.576 z"
         style="font-style:normal;font-variant:normal;font-weight:normal;font-stretch:normal;line-height:100%;font-family:'Nimbus Sans';-inkscape-font-specification:'Nimbus Sans';text-align:center;text-anchor:middle"
         id="path935"
         inkscape:connector-curvature="0" />
      <path
         d="m 143.1743,187.06164 c 0,-1.92 -0.144,-3.072 -0.504,-4.008 -0.816,-2.064 -2.736,-3.312 -5.088,-3.312 -3.504,0 -5.76,2.664 -5.76,6.816 0,4.152 2.16,6.672 5.712,6.672 2.88,0 4.872,-1.632 5.376,-4.368 h -2.016 c -0.552,1.656 -1.68,2.52 -3.288,2.52 -1.272,0 -2.352,-0.576 -3.024,-1.632 -0.48,-0.72 -0.648,-1.44 -0.672,-2.688 z m -9.216,-1.632 c 0.168,-2.328 1.584,-3.84 3.6,-3.84 2.04,0 3.456,1.584 3.456,3.84 z"
         style="font-style:normal;font-variant:normal;font-weight:normal;font-stretch:normal;line-height:100%;font-family:'Nimbus Sans';-inkscape-font-specification:'Nimbus Sans';text-align:center;text-anchor:middle"
         id="path937"
         inkscape:connector-curvature="0" />
      <path
         d="m 154.47868,180.10164 h -9.384 v 1.752 h 7.008 l -7.512,9.024 v 1.8 h 10.224 v -1.752 h -7.8 l 7.464,-9.048 z"
         style="font-style:normal;font-variant:normal;font-weight:normal;font-stretch:normal;line-height:100%;font-family:'Nimbus Sans';-inkscape-font-specification:'Nimbus Sans';text-align:center;text-anchor:middle"
         id="path939"
         inkscape:connector-curvature="0" />
      <path
         d="m 157.52668,180.10164 v 12.576 h 2.016 v -6.936 c 0,-2.568 1.344,-4.248 3.408,-4.248 1.584,0 2.592,0.96 2.592,2.472 v 8.712 h 1.992 v -9.504 c 0,-2.088 -1.56,-3.432 -3.984,-3.432 -1.872,0 -3.072,0.72 -4.176,2.472 v -2.112 z"
         style="font-style:normal;font-variant:normal;font-weight:normal;font-stretch:normal;line-height:100%;font-family:'Nimbus Sans';-inkscape-font-specification:'Nimbus Sans';text-align:center;text-anchor:middle"
         id="path941"
         inkscape:connector-curvature="0" />
      <path
         d="m 172.80605,180.10164 h -1.992 v 12.576 h 1.992 z m 0,-4.92 h -2.016 v 2.52 h 2.016 z"
         style="font-style:normal;font-variant:normal;font-weight:normal;font-stretch:normal;line-height:100%;font-family:'Nimbus Sans';-inkscape-font-specification:'Nimbus Sans';text-align:center;text-anchor:middle"
         id="path943"
         inkscape:connector-curvature="0" />
      <path
         d="m 192.77405,192.67764 v -12.576 h -1.992 v 7.128 c 0,2.568 -1.344,4.248 -3.432,4.248 -1.584,0 -2.592,-0.96 -2.592,-2.472 v -8.904 h -1.992 v 9.696 c 0,2.088 1.56,3.432 4.008,3.432 1.848,0 3.024,-0.648 4.2,-2.304 v 1.752 z"
         style="font-style:normal;font-variant:normal;font-weight:normal;font-stretch:normal;line-height:100%;font-family:'Nimbus Sans';-inkscape-font-specification:'Nimbus Sans';text-align:center;text-anchor:middle"
         id="path945"
         inkscape:connector-curvature="0" />
      <path
         d="m 195.86143,197.90964 h 2.016 v -6.552 c 1.056,1.296 2.232,1.872 3.864,1.872 3.264,0 5.376,-2.616 5.376,-6.624 0,-4.224 -2.064,-6.864 -5.4,-6.864 -1.704,0 -3.072,0.768 -4.008,2.256 v -1.896 h -1.848 z m 5.52,-16.296 c 2.208,0 3.648,1.944 3.648,4.944 0,2.856 -1.464,4.8 -3.648,4.8 -2.136,0 -3.504,-1.92 -3.504,-4.872 0,-2.952 1.368,-4.872 3.504,-4.872 z"
         style="font-style:normal;font-variant:normal;font-weight:normal;font-stretch:normal;line-height:100%;font-family:'Nimbus Sans';-inkscape-font-specification:'Nimbus Sans';text-align:center;text-anchor:middle"
         id="path947"
         inkscape:connector-curvature="0" />
      <path
         d="m 214.4528,179.74164 c -3.552,0 -5.664,2.52 -5.664,6.744 0,4.248 2.112,6.744 5.688,6.744 3.552,0 5.688,-2.52 5.688,-6.648 0,-4.368 -2.064,-6.84 -5.712,-6.84 z m 0.024,1.848 c 2.256,0 3.6,1.848 3.6,4.968 0,2.976 -1.392,4.824 -3.6,4.824 -2.232,0 -3.6,-1.848 -3.6,-4.896 0,-3.048 1.368,-4.896 3.6,-4.896 z"
         style="font-style:normal;font-variant:normal;font-weight:normal;font-stretch:normal;line-height:100%;font-family:'Nimbus Sans';-inkscape-font-specification:'Nimbus Sans';text-align:center;text-anchor:middle"
         id="path949"
         inkscape:connector-curvature="0" />
      <path
         d="m 222.94018,180.10164 v 12.576 h 2.016 v -6.528 c 0.024,-3.024 1.272,-4.368 4.032,-4.296 v -2.04 c -0.336,-0.048 -0.528,-0.072 -0.768,-0.072 -1.296,0 -2.28,0.768 -3.432,2.64 v -2.28 z"
         style="font-style:normal;font-variant:normal;font-weight:normal;font-stretch:normal;line-height:100%;font-family:'Nimbus Sans';-inkscape-font-specification:'Nimbus Sans';text-align:center;text-anchor:middle"
         id="path951"
         inkscape:connector-curvature="0" />
      <path
         d="m 242.04605,191.50164 c -0.216,0.048 -0.312,0.048 -0.432,0.048 -0.696,0 -1.08,-0.36 -1.08,-0.984 v -7.392 c 0,-2.232 -1.632,-3.432 -4.728,-3.432 -1.848,0 -3.312,0.528 -4.176,1.464 -0.576,0.648 -0.816,1.368 -0.864,2.616 h 2.016 c 0.168,-1.536 1.08,-2.232 2.952,-2.232 1.824,0 2.808,0.672 2.808,1.872 v 0.528 c -0.024,0.864 -0.456,1.176 -2.088,1.392 -2.832,0.36 -3.264,0.456 -4.032,0.768 -1.464,0.624 -2.208,1.728 -2.208,3.36 0,2.28 1.584,3.72 4.128,3.72 1.584,0 2.856,-0.552 4.272,-1.848 0.144,1.296 0.768,1.848 2.064,1.848 0.432,0 0.696,-0.048 1.368,-0.216 z m -3.504,-2.784 c 0,0.672 -0.192,1.08 -0.792,1.632 -0.816,0.744 -1.8,1.128 -2.976,1.128 -1.56,0 -2.472,-0.744 -2.472,-2.016 0,-1.32 0.864,-1.992 3.024,-2.304 2.136,-0.288 2.544,-0.384 3.216,-0.696 z"
         style="font-style:normal;font-variant:normal;font-weight:normal;font-stretch:normal;line-height:100%;font-family:'Nimbus Sans';-inkscape-font-specification:'Nimbus Sans';text-align:center;text-anchor:middle"
         id="path953"
         inkscape:connector-curvature="0" />
      <path
         d="m 243.86143,175.18164 v 17.496 h 1.8 v -1.608 c 0.96,1.464 2.232,2.16 3.984,2.16 3.312,0 5.472,-2.712 5.472,-6.888 0,-4.08 -2.04,-6.6 -5.376,-6.6 -1.728,0 -2.952,0.648 -3.888,2.064 v -6.624 z m 5.496,6.432 c 2.232,0 3.672,1.944 3.672,4.944 0,2.856 -1.488,4.8 -3.672,4.8 -2.136,0 -3.504,-1.92 -3.504,-4.872 0,-2.952 1.368,-4.872 3.504,-4.872 z"
         style="font-style:normal;font-variant:normal;font-weight:normal;font-stretch:normal;line-height:100%;font-family:'Nimbus Sans';-inkscape-font-specification:'Nimbus Sans';text-align:center;text-anchor:middle"
         id="path955"
         inkscape:connector-curvature="0" />
      <path
         d="m 259.5248,180.10164 h -1.992 v 12.576 h 1.992 z m 0,-4.92 h -2.016 v 2.52 h 2.016 z"
         style="font-style:normal;font-variant:normal;font-weight:normal;font-stretch:normal;line-height:100%;font-family:'Nimbus Sans';-inkscape-font-specification:'Nimbus Sans';text-align:center;text-anchor:middle"
         id="path957"
         inkscape:connector-curvature="0" />
      <path
         d="m 279.2288,184.32564 c -0.096,-1.224 -0.36,-2.016 -0.84,-2.712 -0.864,-1.176 -2.376,-1.872 -4.128,-1.872 -3.408,0 -5.592,2.688 -5.592,6.864 0,4.056 2.16,6.624 5.568,6.624 3,0 4.896,-1.8 5.136,-4.872 h -2.016 c -0.336,2.016 -1.368,3.024 -3.072,3.024 -2.208,0 -3.528,-1.8 -3.528,-4.776 0,-3.144 1.296,-5.016 3.48,-5.016 1.68,0 2.736,0.984 2.976,2.736 z"
         style="font-style:normal;font-variant:normal;font-weight:normal;font-stretch:normal;line-height:100%;font-family:'Nimbus Sans';-inkscape-font-specification:'Nimbus Sans';text-align:center;text-anchor:middle"
         id="path959"
         inkscape:connector-curvature="0" />
      <path
         d="m 292.37743,187.06164 c 0,-1.92 -0.144,-3.072 -0.504,-4.008 -0.816,-2.064 -2.736,-3.312 -5.088,-3.312 -3.504,0 -5.76,2.664 -5.76,6.816 0,4.152 2.16,6.672 5.712,6.672 2.88,0 4.872,-1.632 5.376,-4.368 h -2.016 c -0.552,1.656 -1.68,2.52 -3.288,2.52 -1.272,0 -2.352,-0.576 -3.024,-1.632 -0.48,-0.72 -0.648,-1.44 -0.672,-2.688 z m -9.216,-1.632 c 0.168,-2.328 1.584,-3.84 3.6,-3.84 2.04,0 3.456,1.584 3.456,3.84 z"
         style="font-style:normal;font-variant:normal;font-weight:normal;font-stretch:normal;line-height:100%;font-family:'Nimbus Sans';-inkscape-font-specification:'Nimbus Sans';text-align:center;text-anchor:middle"
         id="path961"
         inkscape:connector-curvature="0" />
      <path
         d="m 295.1048,180.10164 v 12.576 h 2.016 v -6.936 c 0,-2.568 1.344,-4.248 3.408,-4.248 1.584,0 2.592,0.96 2.592,2.472 v 8.712 h 1.992 v -9.504 c 0,-2.088 -1.56,-3.432 -3.984,-3.432 -1.872,0 -3.072,0.72 -4.176,2.472 v -2.112 z"
         style="font-style:normal;font-variant:normal;font-weight:normal;font-stretch:normal;line-height:100%;font-family:'Nimbus Sans';-inkscape-font-specification:'Nimbus Sans';text-align:center;text-anchor:middle"
         id="path963"
         inkscape:connector-curvature="0" />
      <path
         d="m 317.1818,180.10164 h -9.384 v 1.752 h 7.008 l -7.512,9.024 v 1.8 h 10.224 v -1.752 h -7.8 l 7.464,-9.048 z"
         style="font-style:normal;font-variant:normal;font-weight:normal;font-stretch:normal;line-height:100%;font-family:'Nimbus Sans';-inkscape-font-specification:'Nimbus Sans';text-align:center;text-anchor:middle"
         id="path965"
         inkscape:connector-curvature="0" />
      <path
         d="m 329.7428,192.67764 v -12.576 h -1.992 v 7.128 c 0,2.568 -1.344,4.248 -3.432,4.248 -1.584,0 -2.592,-0.96 -2.592,-2.472 v -8.904 h -1.992 v 9.696 c 0,2.088 1.56,3.432 4.008,3.432 1.848,0 3.024,-0.648 4.2,-2.304 v 1.752 z"
         style="font-style:normal;font-variant:normal;font-weight:normal;font-stretch:normal;line-height:100%;font-family:'Nimbus Sans';-inkscape-font-specification:'Nimbus Sans';text-align:center;text-anchor:middle"
         id="path967"
         inkscape:connector-curvature="0" />
      <path
         d="m 333.19018,180.10164 v 12.576 h 2.016 v -6.528 c 0.024,-3.024 1.272,-4.368 4.032,-4.296 v -2.04 c -0.336,-0.048 -0.528,-0.072 -0.768,-0.072 -1.296,0 -2.28,0.768 -3.432,2.64 v -2.28 z"
         style="font-style:normal;font-variant:normal;font-weight:normal;font-stretch:normal;line-height:100%;font-family:'Nimbus Sans';-inkscape-font-specification:'Nimbus Sans';text-align:center;text-anchor:middle"
         id="path969"
         inkscape:connector-curvature="0" />
      <path
         d="m 341.2298,180.10164 v 12.576 h 2.016 v -6.936 c 0,-2.568 1.344,-4.248 3.408,-4.248 1.584,0 2.592,0.96 2.592,2.472 v 8.712 h 1.992 v -9.504 c 0,-2.088 -1.56,-3.432 -3.984,-3.432 -1.872,0 -3.072,0.72 -4.176,2.472 v -2.112 z"
         style="font-style:normal;font-variant:normal;font-weight:normal;font-stretch:normal;line-height:100%;font-family:'Nimbus Sans';-inkscape-font-specification:'Nimbus Sans';text-align:center;text-anchor:middle"
         id="path971"
         inkscape:connector-curvature="0" />
      <path
         d="m 356.50918,180.10164 h -1.992 v 12.576 h 1.992 z m 0,-4.92 h -2.016 v 2.52 h 2.016 z"
         style="font-style:normal;font-variant:normal;font-weight:normal;font-stretch:normal;line-height:100%;font-family:'Nimbus Sans';-inkscape-font-specification:'Nimbus Sans';text-align:center;text-anchor:middle"
         id="path973"
         inkscape:connector-curvature="0" />
      <path
         d="m 359.93293,175.18164 v 17.496 h 1.992 v -6.936 c 0,-2.568 1.344,-4.248 3.408,-4.248 0.672,0 1.296,0.192 1.776,0.552 0.576,0.432 0.816,1.032 0.816,1.92 v 8.712 h 1.992 v -9.504 c 0,-2.112 -1.512,-3.432 -3.96,-3.432 -1.776,0 -2.856,0.552 -4.032,2.088 v -6.648 z"
         style="font-style:normal;font-variant:normal;font-weight:normal;font-stretch:normal;line-height:100%;font-family:'Nimbus Sans';-inkscape-font-specification:'Nimbus Sans';text-align:center;text-anchor:middle"
         id="path975"
         inkscape:connector-curvature="0" />
      <path
         d="m 384.31655,180.10164 h -2.088 v -1.968 c 0,-0.84 0.456,-1.272 1.392,-1.272 0.168,0 0.24,0 0.696,0.024 v -1.656 c -0.456,-0.096 -0.72,-0.12 -1.128,-0.12 -1.848,0 -2.952,1.056 -2.952,2.856 v 2.136 h -1.68 v 1.632 h 1.68 v 10.944 h 1.992 v -10.944 h 2.088 z m 4.416,0 h -1.992 v 12.576 h 1.992 z m 0,-4.92 h -1.992 v 2.52 h 1.992 z"
         style="font-style:normal;font-variant:normal;font-weight:normal;font-stretch:normal;line-height:100%;font-family:'Nimbus Sans';-inkscape-font-specification:'Nimbus Sans';text-align:center;text-anchor:middle"
         id="path977"
         inkscape:connector-curvature="0" />
      <path
         d="m 393.91655,175.18164 h -2.016 v 17.496 h 2.016 z"
         style="font-style:normal;font-variant:normal;font-weight:normal;font-stretch:normal;line-height:100%;font-family:'Nimbus Sans';-inkscape-font-specification:'Nimbus Sans';text-align:center;text-anchor:middle"
         id="path979"
         inkscape:connector-curvature="0" />
      <path
         d="m 401.7083,180.10164 h -2.064 v -3.456 h -1.992 v 3.456 h -1.704 v 1.632 h 1.704 v 9.504 c 0,1.296 0.864,1.992 2.424,1.992 0.528,0 0.96,-0.048 1.632,-0.168 v -1.68 c -0.288,0.072 -0.552,0.096 -0.96,0.096 -0.864,0 -1.104,-0.24 -1.104,-1.128 v -8.616 h 2.064 z"
         style="font-style:normal;font-variant:normal;font-weight:normal;font-stretch:normal;line-height:100%;font-family:'Nimbus Sans';-inkscape-font-specification:'Nimbus Sans';text-align:center;text-anchor:middle"
         id="path981"
         inkscape:connector-curvature="0" />
      <path
         d="m 403.78393,180.10164 v 12.576 h 2.016 v -6.528 c 0.024,-3.024 1.272,-4.368 4.032,-4.296 v -2.04 c -0.336,-0.048 -0.528,-0.072 -0.768,-0.072 -1.296,0 -2.28,0.768 -3.432,2.64 v -2.28 z"
         style="font-style:normal;font-variant:normal;font-weight:normal;font-stretch:normal;line-height:100%;font-family:'Nimbus Sans';-inkscape-font-specification:'Nimbus Sans';text-align:center;text-anchor:middle"
         id="path983"
         inkscape:connector-curvature="0" />
      <path
         d="m 416.53093,179.74164 c -3.552,0 -5.664,2.52 -5.664,6.744 0,4.248 2.112,6.744 5.688,6.744 3.552,0 5.688,-2.52 5.688,-6.648 0,-4.368 -2.064,-6.84 -5.712,-6.84 z m 0.024,1.848 c 2.256,0 3.6,1.848 3.6,4.968 0,2.976 -1.392,4.824 -3.6,4.824 -2.232,0 -3.6,-1.848 -3.6,-4.896 0,-3.048 1.368,-4.896 3.6,-4.896 z"
         style="font-style:normal;font-variant:normal;font-weight:normal;font-stretch:normal;line-height:100%;font-family:'Nimbus Sans';-inkscape-font-specification:'Nimbus Sans';text-align:center;text-anchor:middle"
         id="path985"
         inkscape:connector-curvature="0" />
      <path
         d="m 429.78043,192.67764 4.824,-12.576 h -2.256 l -3.552,10.2 -3.36,-10.2 h -2.256 l 4.416,12.576 z"
         style="font-style:normal;font-variant:normal;font-weight:normal;font-stretch:normal;line-height:100%;font-family:'Nimbus Sans';-inkscape-font-specification:'Nimbus Sans';text-align:center;text-anchor:middle"
         id="path987"
         inkscape:connector-curvature="0" />
      <path
         d="m 439.93243,175.18164 h -1.992 v 8.112 l 0.528,5.352 h 0.936 l 0.528,-5.352 z m 0,15 h -2.016 v 2.496 h 2.016 z"
         style="font-style:normal;font-variant:normal;font-weight:normal;font-stretch:normal;line-height:100%;font-family:'Nimbus Sans';-inkscape-font-specification:'Nimbus Sans';text-align:center;text-anchor:middle"
         id="path989"
         inkscape:connector-curvature="0" />
    </g>
    <g
       aria-label=" PRIDRUŽI SE PROTESTU!"
       transform="matrix(0.15546681,-0.15546787,0.15546681,0.15546787,-57.697933,245.28081)"
       style="font-style:normal;font-variant:normal;font-weight:normal;font-stretch:normal;font-size:24px;line-height:0px;font-family:Montserrat;-inkscape-font-specification:'Montserrat, Normal';font-variant-ligatures:normal;font-variant-caps:normal;font-variant-numeric:normal;text-align:start;letter-spacing:0px;word-spacing:0px;writing-mode:lr-tb;text-anchor:start;fill:#ffffff;fill-opacity:1;stroke:none;stroke-width:1px;stroke-linecap:butt;stroke-linejoin:miter;stroke-opacity:1"
       id="flowRoot835">
      <path
         d="m 198.90447,283.381 h 4.488 c 3.216,0 5.28,-2.28 5.28,-5.832 0,-3.504 -1.992,-5.424 -5.64,-5.424 h -7.728 v 17.496 h 3.6 z m 0,-3 v -5.256 h 3.36 c 1.92,0 2.808,0.84 2.808,2.616 0,1.8 -0.888,2.64 -2.808,2.64 z"
         style="font-style:normal;font-variant:normal;font-weight:bold;font-stretch:normal;line-height:100%;font-family:'Nimbus Sans';-inkscape-font-specification:'Nimbus Sans Bold';text-align:center;text-anchor:middle;fill:#ffffff;fill-opacity:1"
         id="path992"
         inkscape:connector-curvature="0" />
      <path
         d="m 214.56297,282.685 h 4.128 c 1.56,0 2.232,0.624 2.232,2.064 v 0.72 c -0.024,0.456 -0.024,0.888 -0.024,1.152 0,1.656 0.096,2.16 0.528,3 h 3.864 v -0.648 c -0.552,-0.312 -0.768,-0.672 -0.768,-1.44 -0.096,-5.16 -0.192,-5.4 -2.424,-6.36 1.968,-0.768 2.952,-2.184 2.952,-4.32 0,-1.392 -0.48,-2.664 -1.32,-3.528 -0.792,-0.816 -1.896,-1.2 -3.384,-1.2 h -9.384 v 17.496 h 3.6 z m 0,-3 v -4.56 h 4.344 c 1.032,0 1.44,0.096 1.896,0.456 0.432,0.36 0.648,0.96 0.648,1.776 0,0.84 -0.216,1.512 -0.648,1.872 -0.408,0.336 -0.864,0.456 -1.896,0.456 z"
         style="font-style:normal;font-variant:normal;font-weight:bold;font-stretch:normal;line-height:100%;font-family:'Nimbus Sans';-inkscape-font-specification:'Nimbus Sans Bold';text-align:center;text-anchor:middle;fill:#ffffff;fill-opacity:1"
         id="path994"
         inkscape:connector-curvature="0" />
      <path
         d="m 231.59247,272.125 h -3.6 v 17.496 h 3.6 z"
         style="font-style:normal;font-variant:normal;font-weight:bold;font-stretch:normal;line-height:100%;font-family:'Nimbus Sans';-inkscape-font-specification:'Nimbus Sans Bold';text-align:center;text-anchor:middle;fill:#ffffff;fill-opacity:1"
         id="path996"
         inkscape:connector-curvature="0" />
      <path
         d="m 234.98472,289.621 h 6.84 c 2.664,0 4.344,-0.624 5.544,-2.04 1.368,-1.632 2.112,-3.984 2.112,-6.72 0,-2.712 -0.744,-5.064 -2.112,-6.72 -1.2,-1.416 -2.856,-2.016 -5.544,-2.016 h -6.84 z m 3.6,-3 v -11.496 h 3.24 c 2.712,0 4.056,1.896 4.056,5.76 0,3.84 -1.344,5.736 -4.056,5.736 z"
         style="font-style:normal;font-variant:normal;font-weight:bold;font-stretch:normal;line-height:100%;font-family:'Nimbus Sans';-inkscape-font-specification:'Nimbus Sans Bold';text-align:center;text-anchor:middle;fill:#ffffff;fill-opacity:1"
         id="path998"
         inkscape:connector-curvature="0" />
      <path
         d="m 256.00047,282.685 h 4.128 c 1.56,0 2.232,0.624 2.232,2.064 v 0.72 c -0.024,0.456 -0.024,0.888 -0.024,1.152 0,1.656 0.096,2.16 0.528,3 h 3.864 v -0.648 c -0.552,-0.312 -0.768,-0.672 -0.768,-1.44 -0.096,-5.16 -0.192,-5.4 -2.424,-6.36 1.968,-0.768 2.952,-2.184 2.952,-4.32 0,-1.392 -0.48,-2.664 -1.32,-3.528 -0.792,-0.816 -1.896,-1.2 -3.384,-1.2 h -9.384 v 17.496 h 3.6 z m 0,-3 v -4.56 h 4.344 c 1.032,0 1.44,0.096 1.896,0.456 0.432,0.36 0.648,0.96 0.648,1.776 0,0.84 -0.216,1.512 -0.648,1.872 -0.408,0.336 -0.864,0.456 -1.896,0.456 z"
         style="font-style:normal;font-variant:normal;font-weight:bold;font-stretch:normal;line-height:100%;font-family:'Nimbus Sans';-inkscape-font-specification:'Nimbus Sans Bold';text-align:center;text-anchor:middle;fill:#ffffff;fill-opacity:1"
         id="path1000"
         inkscape:connector-curvature="0" />
      <path
         d="m 279.73272,272.125 v 11.856 c 0,2.112 -1.08,3.12 -3.336,3.12 -2.256,0 -3.336,-1.008 -3.336,-3.12 v -11.856 h -3.6 v 11.856 c 0,1.968 0.528,3.36 1.704,4.416 1.272,1.152 3.12,1.776 5.232,1.776 2.112,0 3.96,-0.624 5.232,-1.776 1.176,-1.056 1.704,-2.448 1.704,-4.416 v -11.856 z"
         style="font-style:normal;font-variant:normal;font-weight:bold;font-stretch:normal;line-height:100%;font-family:'Nimbus Sans';-inkscape-font-specification:'Nimbus Sans Bold';text-align:center;text-anchor:middle;fill:#ffffff;fill-opacity:1"
         id="path1002"
         inkscape:connector-curvature="0" />
      <path
         d="m 298.85247,272.125 h -13.152 v 3 h 8.952 l -8.952,11.496 v 3 h 13.152 v -3 h -8.928 l 8.928,-11.496 z m -5.256,-1.368 2.568,-3.6 h -1.824 l -1.968,2.328 -1.968,-2.328 h -1.872 l 2.472,3.6 z"
         style="font-style:normal;font-variant:normal;font-weight:bold;font-stretch:normal;line-height:100%;font-family:'Nimbus Sans';-inkscape-font-specification:'Nimbus Sans Bold';text-align:center;text-anchor:middle;fill:#ffffff;fill-opacity:1"
         id="path1004"
         inkscape:connector-curvature="0" />
      <path
         d="m 304.76434,272.125 h -3.6 v 17.496 h 3.6 z"
         style="font-style:normal;font-variant:normal;font-weight:bold;font-stretch:normal;line-height:100%;font-family:'Nimbus Sans';-inkscape-font-specification:'Nimbus Sans Bold';text-align:center;text-anchor:middle;fill:#ffffff;fill-opacity:1"
         id="path1006"
         inkscape:connector-curvature="0" />
      <path
         d="m 327.53284,277.453 c -0.024,-3.624 -2.448,-5.616 -6.864,-5.616 -4.2,0 -6.624,1.968 -6.624,5.376 0,2.712 1.368,4.032 4.92,4.704 l 2.448,0.48 c 2.4,0.456 3.288,1.128 3.288,2.544 0,1.464 -1.344,2.352 -3.528,2.352 -2.448,0 -3.816,-1.032 -3.936,-2.904 h -3.504 c 0.216,3.744 2.784,5.784 7.248,5.784 4.512,0 7.176,-2.088 7.176,-5.664 0,-2.76 -1.392,-4.2 -4.632,-4.824 l -2.736,-0.528 c -2.568,-0.504 -3.312,-1.008 -3.312,-2.28 0,-1.32 1.152,-2.16 3.024,-2.16 2.28,0 3.552,0.96 3.672,2.736 z"
         style="font-style:normal;font-variant:normal;font-weight:bold;font-stretch:normal;line-height:100%;font-family:'Nimbus Sans';-inkscape-font-specification:'Nimbus Sans Bold';text-align:center;text-anchor:middle;fill:#ffffff;fill-opacity:1"
         id="path1008"
         inkscape:connector-curvature="0" />
      <path
         d="m 334.49209,282.085 h 8.376 v -3 h -8.376 v -3.96 h 9.048 v -3 h -12.648 v 17.496 h 13.08 v -3 h -9.48 z"
         style="font-style:normal;font-variant:normal;font-weight:bold;font-stretch:normal;line-height:100%;font-family:'Nimbus Sans';-inkscape-font-specification:'Nimbus Sans Bold';text-align:center;text-anchor:middle;fill:#ffffff;fill-opacity:1"
         id="path1010"
         inkscape:connector-curvature="0" />
      <path
         d="m 357.10759,283.381 h 4.488 c 3.216,0 5.28,-2.28 5.28,-5.832 0,-3.504 -1.992,-5.424 -5.64,-5.424 h -7.728 v 17.496 h 3.6 z m 0,-3 v -5.256 h 3.36 c 1.92,0 2.808,0.84 2.808,2.616 0,1.8 -0.888,2.64 -2.808,2.64 z"
         style="font-style:normal;font-variant:normal;font-weight:bold;font-stretch:normal;line-height:100%;font-family:'Nimbus Sans';-inkscape-font-specification:'Nimbus Sans Bold';text-align:center;text-anchor:middle;fill:#ffffff;fill-opacity:1"
         id="path1012"
         inkscape:connector-curvature="0" />
      <path
         d="m 372.76609,282.685 h 4.128 c 1.56,0 2.232,0.624 2.232,2.064 v 0.72 c -0.024,0.456 -0.024,0.888 -0.024,1.152 0,1.656 0.096,2.16 0.528,3 h 3.864 v -0.648 c -0.552,-0.312 -0.768,-0.672 -0.768,-1.44 -0.096,-5.16 -0.192,-5.4 -2.424,-6.36 1.968,-0.768 2.952,-2.184 2.952,-4.32 0,-1.392 -0.48,-2.664 -1.32,-3.528 -0.792,-0.816 -1.896,-1.2 -3.384,-1.2 h -9.384 v 17.496 h 3.6 z m 0,-3 v -4.56 h 4.344 c 1.032,0 1.44,0.096 1.896,0.456 0.432,0.36 0.648,0.96 0.648,1.776 0,0.84 -0.216,1.512 -0.648,1.872 -0.408,0.336 -0.864,0.456 -1.896,0.456 z"
         style="font-style:normal;font-variant:normal;font-weight:bold;font-stretch:normal;line-height:100%;font-family:'Nimbus Sans';-inkscape-font-specification:'Nimbus Sans Bold';text-align:center;text-anchor:middle;fill:#ffffff;fill-opacity:1"
         id="path1014"
         inkscape:connector-curvature="0" />
      <path
         d="m 393.71547,271.837 c -2.448,0 -4.464,0.816 -5.952,2.424 -1.56,1.68 -2.448,4.128 -2.448,6.744 0,2.616 0.888,5.088 2.448,6.744 1.512,1.632 3.48,2.424 5.976,2.424 2.496,0 4.464,-0.792 5.976,-2.424 1.512,-1.608 2.448,-4.152 2.448,-6.624 0,-2.736 -0.888,-5.208 -2.448,-6.864 -1.536,-1.656 -3.456,-2.424 -6,-2.424 z m 0.024,3.072 c 2.952,0 4.824,2.4 4.824,6.192 0,3.6 -1.944,6 -4.824,6 -2.928,0 -4.824,-2.4 -4.824,-6.096 0,-3.696 1.896,-6.096 4.824,-6.096 z"
         style="font-style:normal;font-variant:normal;font-weight:bold;font-stretch:normal;line-height:100%;font-family:'Nimbus Sans';-inkscape-font-specification:'Nimbus Sans Bold';text-align:center;text-anchor:middle;fill:#ffffff;fill-opacity:1"
         id="path1016"
         inkscape:connector-curvature="0" />
      <path
         d="m 411.73609,275.125 h 5.112 v -3 h -14.016 v 3 h 5.304 v 14.496 h 3.6 z"
         style="font-style:normal;font-variant:normal;font-weight:bold;font-stretch:normal;line-height:100%;font-family:'Nimbus Sans';-inkscape-font-specification:'Nimbus Sans Bold';text-align:center;text-anchor:middle;fill:#ffffff;fill-opacity:1"
         id="path1018"
         inkscape:connector-curvature="0" />
      <path
         d="m 422.47647,282.085 h 8.376 v -3 h -8.376 v -3.96 h 9.048 v -3 h -12.648 v 17.496 h 13.08 v -3 h -9.48 z"
         style="font-style:normal;font-variant:normal;font-weight:bold;font-stretch:normal;line-height:100%;font-family:'Nimbus Sans';-inkscape-font-specification:'Nimbus Sans Bold';text-align:center;text-anchor:middle;fill:#ffffff;fill-opacity:1"
         id="path1020"
         inkscape:connector-curvature="0" />
      <path
         d="m 447.34534,277.453 c -0.024,-3.624 -2.448,-5.616 -6.864,-5.616 -4.2,0 -6.624,1.968 -6.624,5.376 0,2.712 1.368,4.032 4.92,4.704 l 2.448,0.48 c 2.4,0.456 3.288,1.128 3.288,2.544 0,1.464 -1.344,2.352 -3.528,2.352 -2.448,0 -3.816,-1.032 -3.936,-2.904 h -3.504 c 0.216,3.744 2.784,5.784 7.248,5.784 4.512,0 7.176,-2.088 7.176,-5.664 0,-2.76 -1.392,-4.2 -4.632,-4.824 l -2.736,-0.528 c -2.568,-0.504 -3.312,-1.008 -3.312,-2.28 0,-1.32 1.152,-2.16 3.024,-2.16 2.28,0 3.552,0.96 3.672,2.736 z"
         style="font-style:normal;font-variant:normal;font-weight:bold;font-stretch:normal;line-height:100%;font-family:'Nimbus Sans';-inkscape-font-specification:'Nimbus Sans Bold';text-align:center;text-anchor:middle;fill:#ffffff;fill-opacity:1"
         id="path1022"
         inkscape:connector-curvature="0" />
      <path
         d="m 457.86109,275.125 h 5.112 v -3 h -14.016 v 3 h 5.304 v 14.496 h 3.6 z"
         style="font-style:normal;font-variant:normal;font-weight:bold;font-stretch:normal;line-height:100%;font-family:'Nimbus Sans';-inkscape-font-specification:'Nimbus Sans Bold';text-align:center;text-anchor:middle;fill:#ffffff;fill-opacity:1"
         id="path1024"
         inkscape:connector-curvature="0" />
      <path
         d="m 475.20147,272.125 v 11.856 c 0,2.112 -1.08,3.12 -3.336,3.12 -2.256,0 -3.336,-1.008 -3.336,-3.12 v -11.856 h -3.6 v 11.856 c 0,1.968 0.528,3.36 1.704,4.416 1.272,1.152 3.12,1.776 5.232,1.776 2.112,0 3.96,-0.624 5.232,-1.776 1.176,-1.056 1.704,-2.448 1.704,-4.416 v -11.856 z"
         style="font-style:normal;font-variant:normal;font-weight:bold;font-stretch:normal;line-height:100%;font-family:'Nimbus Sans';-inkscape-font-specification:'Nimbus Sans Bold';text-align:center;text-anchor:middle;fill:#ffffff;fill-opacity:1"
         id="path1026"
         inkscape:connector-curvature="0" />
      <path
         d="m 486.73722,272.197 h -3.6 v 5.04 l 0.984,7.416 h 1.608 l 1.008,-7.416 z m 0,13.92 h -3.6 v 3.504 h 3.6 z"
         style="font-style:normal;font-variant:normal;font-weight:bold;font-stretch:normal;line-height:100%;font-family:'Nimbus Sans';-inkscape-font-specification:'Nimbus Sans Bold';text-align:center;text-anchor:middle;fill:#ffffff;fill-opacity:1"
         id="path1028"
         inkscape:connector-curvature="0" />
    </g>
    <path
       style="fill:none;fill-rule:evenodd;stroke:#ff0dbf;stroke-width:2.29236197;stroke-linecap:butt;stroke-linejoin:miter;stroke-miterlimit:4;stroke-dasharray:none;stroke-opacity:1"
       d="M 1.5104742,230.88953 33.603526,198.79633"
       id="path4658"
       inkscape:connector-curvature="0" />
  </g>
</svg>
